<svg width="148" height="16" viewBox="0 0 148 16" fill="none" xmlns="http://www.w3.org/2000/svg">
<path fill-rule="evenodd" clip-rule="evenodd" d="M93.4388 7.90741C93.4388 7.90741 94.8163 7.81557 94.8163 6.16251C94.8163 4.54006 93.6837 3.74414 92.2449 3.74414H89.5816H89.5204H87.5V12.8666H89.5204H89.6122H92.2755C92.2755 12.8666 95.1837 12.9584 95.1837 10.1727C95.1742 10.1727 95.1699 10.1187 95.1625 10.0274L95.1625 10.0274C95.1223 9.52724 94.9919 7.90741 93.4388 7.90741ZM89.5816 5.36659H91.8776H92.2143C92.2143 5.36659 92.8571 5.36659 92.8571 6.31557C92.8571 7.26455 92.4898 7.387 92.0612 7.387H89.5816V5.36659ZM89.5816 11.2441H92.1224C92.4898 11.2135 93.1939 11.1217 93.1939 10.0503C93.1939 8.79516 92.2449 8.79516 92.2449 8.79516H89.5816V11.2441Z" fill="#BEC0C2"/>
<path fill-rule="evenodd" clip-rule="evenodd" d="M95.5209 9.56206C95.5209 9.56206 95.5209 6.07227 99.0107 6.07227C102.377 6.07227 102.221 9.38821 102.195 9.94297C102.193 9.99361 102.192 10.0212 102.194 10.0212H97.4801C97.4801 11.7355 99.0719 11.6131 99.0719 11.6131C100.603 11.6131 100.541 10.6335 100.541 10.6335H102.133C102.133 13.2355 99.0107 13.0519 99.0107 13.0519C95.276 13.0519 95.5209 9.56206 95.5209 9.56206ZM97.4188 8.79676H100.419C100.419 8.79676 100.449 7.38859 99.0107 7.38859C97.6025 7.38859 97.4188 8.79676 97.4188 8.79676Z" fill="#BEC0C2"/>
<rect x="96.9902" y="4.11133" width="3.97959" height="1.22449" fill="#BEC0C2"/>
<path fill-rule="evenodd" clip-rule="evenodd" d="M140.5 16C136.375 16 133 12.625 133 8.5C133 4.375 136.375 1 140.5 1C144.625 1 148 4.375 148 8.5C148 12.625 144.625 16 140.5 16ZM146.812 9.53125C146.594 9.46875 144.844 8.9375 142.812 9.25C143.656 11.5625 144 13.4375 144.062 13.8125C145.531 12.8438 146.531 11.3125 146.812 9.53125ZM143 14.4062C142.906 13.8438 142.531 11.875 141.625 9.5625H141.594C137.969 10.8125 136.688 13.3125 136.562 13.5625C137.656 14.4062 139 14.9062 140.5 14.9062C141.375 14.9062 142.219 14.75 143 14.4062ZM135.75 12.7812C135.906 12.5312 137.656 9.625 140.969 8.5625C141.062 8.53125 141.125 8.5 141.219 8.5C141.062 8.125 140.875 7.78125 140.688 7.40625C137.5 8.375 134.375 8.3125 134.094 8.3125C134.094 8.375 134.094 8.4375 134.094 8.5C134.094 10.1562 134.719 11.6562 135.75 12.7812ZM134.219 7.1875C134.5 7.1875 137.156 7.1875 140.156 6.40625C139.094 4.53125 137.938 2.9375 137.781 2.6875C135.969 3.5625 134.656 5.21875 134.219 7.1875ZM139 2.28125C139.188 2.53125 140.344 4.09375 141.375 6.03125C143.656 5.1875 144.625 3.875 144.719 3.71875C143.625 2.71875 142.125 2.09375 140.5 2.09375C139.969 2.09375 139.469 2.15625 139 2.28125ZM145.469 4.46875C145.344 4.65625 144.25 6.03125 141.906 7C142.062 7.3125 142.188 7.625 142.344 7.9375C142.406 8.0625 142.438 8.15625 142.469 8.28125C144.594 8 146.719 8.4375 146.938 8.5C146.906 6.9375 146.344 5.5625 145.469 4.46875Z" fill="#BEC0C2"/>
<path d="M3.334 15.5L3.3125 8.9375H0.5V6.125H3.3125V4.25C3.3125 1.7195 4.87954 0.5 7.13692 0.5C8.21822 0.5 9.14756 0.580503 9.41838 0.616484V3.261L7.85278 3.26172C6.62509 3.26172 6.38738 3.84509 6.38738 4.70116V6.125H9.875L8.9375 8.9375H6.38737V15.5H3.334Z" fill="#BEC0C2"/>
<path fill-rule="evenodd" clip-rule="evenodd" d="M45.4407 4.89554C44.6454 4.89554 44 4.23661 44 3.44107C44 2.64554 44.6454 2 45.4407 2C46.2361 2 46.8815 2.64554 46.8815 3.44107C46.8815 4.23661 46.2361 4.89554 45.4407 4.89554ZM46.686 14H44.1982V5.98839H46.686V14ZM53.5148 14H55.9973H56V9.59911C56 7.44554 55.5367 5.7875 53.0194 5.7875C51.809 5.7875 50.9975 6.45179 50.6655 7.08125H50.6307V5.98839H48.2446V14H50.7297V10.033C50.7297 8.98839 50.9279 7.97857 52.2214 7.97857C53.4961 7.97857 53.5148 9.17054 53.5148 10.1V14Z" fill="#BEC0C2"/>
</svg>
