<svg width="140" height="43" viewBox="0 0 140 43" fill="none" xmlns="http://www.w3.org/2000/svg">
<path fill-rule="evenodd" clip-rule="evenodd" d="M13.7231 25.816L12.7846 26.7522L11.8464 25.816L12.7846 24.8799L13.7231 25.816ZM16.5383 28.6246L15.6001 29.5608L14.6616 28.6246L15.6001 27.6885L16.5383 28.6246ZM9.03076 24.8805L9.96928 23.9443L10.9078 24.8805L9.96928 25.8166L9.03076 24.8805ZM13.723 29.5611L12.7845 30.497L11.846 29.5611L12.7845 28.625L13.723 29.5611ZM10.9075 30.4967L9.96928 31.4328L9.03076 30.4967L9.96928 29.5605L10.9075 30.4967ZM11.846 33.3048L10.9078 34.2406L9.9693 33.3048L10.9078 32.3687L11.846 33.3048ZM22.5036 15.1858L13.723 23.9445L12.7845 23.0084L11.846 22.0722L10.9078 23.0084L9.96929 22.0722L10.9075 21.1361L8.09226 18.3277L7.15374 19.2638L8.09226 20.1999L7.15374 21.1361L6.21556 20.1999L4.33852 22.0722L5.27704 23.0084L6.21522 22.0722L7.15374 23.0084L8.09226 22.0722L9.03077 23.0084L8.09226 23.9445L7.15374 23.0084L6.21556 23.9442L5.27704 23.0084L4.33852 23.9445L6.21522 25.8165L7.15374 24.8803L9.03077 26.7526L8.09226 27.6887L9.03077 28.6246L7.15374 30.4965L8.09226 31.433L9.03077 32.3691L8.09226 33.3053L9.03077 34.2414L7.15374 36.1134L6.21556 35.1772L8.09226 33.3053L6.21522 31.433L5.27704 32.3691L6.21522 33.3053L5.27704 34.2411L4.33852 33.3053L3.4 34.2414L4.33852 35.1772L3.4 36.1134L4.33852 37.0495L5.27704 36.1134L6.21522 37.0495L5.27704 37.9853L4.33852 37.0495L2.46149 38.9215L3.4 39.8576L4.33852 38.9215L5.27704 39.8576L3.4 41.7299L3.73461 42.0633C4.06821 42.3961 4.60883 42.3961 4.94243 42.0636L8.09226 38.9215L7.15374 37.9853L8.09226 37.0492L9.03077 37.9853L13.723 33.3053L22.5033 42.0636C22.8372 42.3961 23.3782 42.3961 23.7118 42.0633L27.1959 38.588C27.5295 38.2553 27.5295 37.7157 27.1955 37.3829L18.4153 28.6246L27.1959 19.8665C27.5295 19.5338 27.5295 18.9942 27.1955 18.6614L23.7118 15.1861C23.3782 14.8534 22.8372 14.8534 22.5036 15.1858V15.1858ZM1.52296 36.1133L0.584778 37.0494L1.52296 37.9852L2.46148 37.0494L1.52296 36.1133ZM0.584778 38.9215L1.5233 39.8576L2.46148 38.9215L1.52296 37.9854L0.584778 38.9215ZM3.4 17.3921L2.46149 18.3279L3.4 19.264L4.33852 18.3279L3.4 17.3921ZM6.21522 16.4556L5.27704 17.3917L6.21522 18.3275L7.15374 17.3917L6.21522 16.4556ZM3.4 19.2642L2.46149 20.2003L3.4 21.1364L4.33852 20.2003L3.4 19.2642ZM6.21522 18.3276L5.27704 19.2638L6.21556 20.1999L7.15374 19.2638L6.21522 18.3276ZM2.46149 22.0724L3.4 23.0085L4.33852 22.0724L3.4 21.1362L2.46149 22.0724ZM0.584806 18.3276L0.250198 18.6611C-0.0833995 18.9942 -0.0833995 19.5337 0.250198 19.8665L0.58447 20.1999L1.52299 19.2638L0.584806 18.3276ZM4.94245 15.1861C4.60885 14.8534 4.06789 14.8534 3.7343 15.1858L3.40002 15.5196L4.33854 16.4557L5.27706 15.5196L4.94245 15.1861ZM127.699 14.3175C125.202 14.3175 122.888 15.0951 120.983 16.4178V0.684983C120.983 0.306563 120.675 0 120.296 0H115.143C114.764 0 114.457 0.306563 114.457 0.684983V41.6281C114.457 42.0066 114.764 42.3131 115.143 42.3131H120.296C120.675 42.3131 120.983 42.0066 120.983 41.6281V26.6562C120.983 23.3606 123.661 20.6888 126.965 20.6888C130.269 20.6888 132.947 23.3606 132.947 26.6562V41.6281C132.947 42.0066 133.255 42.3131 133.634 42.3131H138.787C139.166 42.3131 139.474 42.0066 139.474 41.6281V26.0619C139.474 19.5757 134.202 14.3175 127.699 14.3175V14.3175ZM111.699 14.9364H107.403V8.85014C107.403 8.54626 107.096 8.2998 106.716 8.2998H101.564C101.184 8.2998 100.877 8.54626 100.877 8.85014V14.9364H98.5418C98.1203 14.9364 97.7786 15.2772 97.7786 15.6976V19.9234C97.7786 20.3441 98.1203 20.6849 98.5418 20.6849H100.877V41.7622C100.877 42.0664 101.184 42.3129 101.564 42.3129H106.716C107.096 42.3129 107.403 42.0664 107.403 41.7622V20.6849H111.699C112.121 20.6849 112.462 20.3441 112.462 19.9234V15.6976C112.462 15.2772 112.121 14.9364 111.699 14.9364V14.9364ZM71.0992 36.5398C66.7166 36.5398 63.1642 32.9963 63.1642 28.6249C63.1642 24.2537 66.2561 20.71 70.6387 20.71C75.0205 20.71 77.8065 24.2537 77.8065 28.6249C77.8065 32.9963 75.481 36.5398 71.0992 36.5398V36.5398ZM83.5281 14.9365H78.375C77.9956 14.9365 77.6883 15.2428 77.6883 15.6212V16.2172C75.718 15.0114 73.3805 14.3184 70.7814 14.3184C62.8599 14.3184 56.7558 20.7236 56.7558 28.6251C56.7558 36.5266 63.1776 42.9322 71.0992 42.9322C73.5912 42.9322 75.813 42.2972 77.6883 41.1821V41.628C77.6883 42.0064 77.9956 42.313 78.375 42.313H83.5281C83.9075 42.313 84.2145 42.0064 84.2145 41.628V15.6212C84.2145 15.2428 83.9075 14.9365 83.5281 14.9365V14.9365ZM41.3285 20.7017C44.7318 20.7017 47.1724 22.8372 48.0958 25.8374H34.2944C35.3006 22.8372 37.9252 20.7017 41.3285 20.7017V20.7017ZM54.9047 30.7608V28.0836C54.9047 20.5005 48.7555 14.2282 41.1538 14.3188C33.3191 14.4122 27.446 20.7815 27.446 28.6249C27.446 36.5267 33.8678 42.9327 41.7897 42.9327C46.4415 42.9327 50.574 40.7222 53.1946 37.2983C53.4215 37.0022 53.3538 36.5757 53.0458 36.3642L48.8454 33.4762C48.5609 33.2808 48.1782 33.3439 47.9607 33.6115C46.5045 35.4025 44.2817 36.5479 41.7897 36.5479C38.3864 36.5479 35.4843 34.4127 34.3536 31.4118H54.2516C54.6125 31.4118 54.9047 31.1204 54.9047 30.7608V30.7608ZM88.8624 41.6281V0.684983C88.8624 0.306563 89.1697 0 89.5491 0H94.7022C95.0816 0 95.3889 0.306563 95.3889 0.684983V41.6281C95.3889 42.0066 95.0816 42.3131 94.7022 42.3131H89.5491C89.1697 42.3131 88.8624 42.0066 88.8624 41.6281V41.6281Z" fill="#00B0FF"/>
</svg>
