<svg width="195" height="43" viewBox="0 0 195 43" fill="none" xmlns="http://www.w3.org/2000/svg">
<g clip-path="url(#clip0)">
<path d="M125.126 33.6473C124.476 33.6473 123.609 33.5936 123.122 33.5398C123.176 33.3248 123.284 32.7873 123.339 32.3036L123.393 32.0886H123.339L123.284 32.1423C122.58 33.1636 121.822 33.5398 120.739 33.5398C120.63 33.5398 120.522 33.5398 120.359 33.5398C118.139 33.3786 117.109 32.5186 117.109 30.5836C117.109 30.3148 117.109 30.0461 117.164 29.7236C117.651 27.1973 119.493 26.6598 122.309 26.4986L124.043 26.4448C124.259 26.4448 124.476 26.2298 124.476 26.0686L124.747 24.6173C124.801 24.3486 124.584 24.0261 124.314 23.9186C123.664 23.7036 122.905 23.5961 122.201 23.5961C121.389 23.5961 120.251 23.7573 119.439 23.9186C119.33 23.9186 119.33 23.8648 119.276 23.8111C119.276 23.5961 119.222 23.3811 119.222 23.0586C119.222 22.5748 119.222 22.0911 119.33 21.6073C119.33 21.5536 119.384 21.4998 119.493 21.4461C120.522 21.2311 121.659 21.0698 122.797 21.0698C124.53 21.0698 126.372 21.4461 127.455 22.0911C127.672 22.2523 127.834 22.5748 127.78 22.8436C127.78 22.8973 126.589 29.6698 126.48 30.3686C126.48 30.4223 126.155 32.7336 126.101 33.4861C125.884 33.6473 125.505 33.6473 125.126 33.6473ZM121.93 28.3261C120.847 28.3798 120.251 28.5948 120.034 29.7236C120.034 29.8311 119.98 29.9923 119.98 30.2073C119.98 30.7986 120.197 31.4436 121.334 31.4436C122.093 31.4436 122.797 31.2286 123.393 30.9061C123.501 30.8523 123.609 30.6911 123.609 30.5836L123.88 28.8636C123.934 28.7023 123.88 28.5948 123.772 28.4873C123.664 28.3798 123.555 28.2723 123.393 28.2723L121.93 28.3261Z" fill="#3876C3"/>
<path d="M47.5588 40.5276C39.0547 40.5276 32.0672 33.8088 32.0672 25.5313C32.0672 17.2538 39.0005 10.4813 47.5588 10.4813C51.4588 10.4813 55.0338 11.8788 57.7422 14.2438H61.3171C58.013 10.4813 53.0838 8.0626 47.613 8.0626C44.6338 8.0626 41.8172 8.76135 39.3255 10.0513L32.8797 0.591346C32.5005 9.60538e-05 31.7422 -0.161154 31.1463 0.215096C30.5505 0.591346 30.4422 1.34385 30.8213 1.9351L37.1588 11.2876C36.238 11.8788 35.4255 12.6313 34.613 13.4376L18.7963 0.591346C18.2547 0.161346 17.4422 0.215096 17.0088 0.752596C16.5755 1.2901 16.6297 2.09635 17.1713 2.52635L32.988 15.3188C32.3922 16.0713 31.9047 16.8776 31.4713 17.7376L1.84215 2.5801C1.19215 2.2576 0.487987 2.4726 0.162987 3.1176C-0.162013 3.7626 0.0546536 4.46135 0.704654 4.78385L30.4963 19.9951C30.1713 21.0163 29.8463 22.1988 29.738 23.3276L4.38799 17.2538C3.68382 17.0926 3.03382 17.4688 2.81715 18.1676C2.70882 18.8126 3.08799 19.4576 3.73799 19.6726L29.5213 25.8001C29.5213 26.9826 29.6838 28.1651 29.9547 29.2401L12.2963 30.3688C11.5922 30.4226 11.1047 30.9601 11.1047 31.7126C11.1588 32.3576 11.7547 32.8951 12.4588 32.8413L30.7672 31.7126C33.3672 38.2701 39.9213 43.0001 47.613 43.0001C52.9213 43.0001 57.6338 40.7964 60.938 37.2489H57.2546C54.5463 39.2914 51.188 40.5276 47.5588 40.5276Z" fill="#3876C3"/>
<path d="M47.7206 33.5935C45.9331 33.5935 43.3331 33.486 41.8164 33.271L44.7956 16.8235C46.3122 16.6085 49.0747 16.501 50.6456 16.501C54.8706 16.501 57.1456 18.9197 57.1456 23.3272C57.1997 29.4547 53.3539 33.5935 47.7206 33.5935ZM49.9414 19.4572C49.3997 19.4572 48.5872 19.4572 47.9372 19.5647H47.8289L45.8789 30.476H46.0414C46.5289 30.5297 47.6664 30.5835 48.2622 30.5835C51.4581 30.5835 53.4081 27.7885 53.4081 23.1122C53.4081 20.801 52.1622 19.4572 49.9414 19.4572Z" fill="#3876C3"/>
<path d="M58.3926 33.3785L60.5592 21.446H63.4842L61.3176 33.3785H58.3926V33.3785ZM62.2926 19.8335C61.2634 19.8335 60.9384 19.1347 60.9384 18.4897C60.9384 17.3072 61.8051 16.501 62.9967 16.501C64.0259 16.501 64.3509 17.1997 64.3509 17.8447C64.3509 19.0272 63.5384 19.8335 62.2926 19.8335Z" fill="#3876C3"/>
<path d="M69.9833 33.6477C66.8417 33.6477 65 31.8739 65 28.9177C65 28.3802 65.0542 27.8427 65.1625 27.2514C65.8667 23.2739 67.925 21.2314 71.3917 21.2314C72.475 21.2314 73.775 21.4464 74.6417 21.7152C74.4792 22.4677 74.2083 23.4889 73.8292 24.3489C73.1792 24.1339 72.3667 23.9727 71.5542 23.9727C69.7667 23.9727 68.9 24.9402 68.4667 27.3589C68.3583 27.9502 68.3042 28.3802 68.3042 28.8102C68.3042 30.3689 69.0083 31.0139 70.7417 31.0139C71.4458 31.0139 72.4208 30.7989 73.1792 30.4227C73.3417 31.3902 73.3958 32.2502 73.3958 33.0564C72.5833 33.3252 70.9583 33.6477 69.9833 33.6477Z" fill="#3876C3"/>
<path d="M79.8423 33.6478C77.5131 33.6478 76.3215 32.6265 76.3215 30.584C76.3215 30.154 76.3757 29.7778 76.4298 29.4553L77.4048 23.9728H75.834L76.2673 21.5003H77.8381L78.3257 18.9203C79.2465 18.7053 80.384 18.4903 81.359 18.4365L80.8173 21.4465H84.0673C83.959 22.1453 83.7965 23.059 83.4715 23.919H80.384L79.3548 29.5628C79.3007 29.724 79.3006 29.8315 79.3006 29.939C79.3006 30.9065 80.0048 31.014 80.8173 31.014C81.359 31.014 82.0631 30.8528 82.5506 30.6915C82.5506 30.9603 82.6048 31.2828 82.6048 31.6053C82.6048 32.1965 82.5507 32.7878 82.4965 33.164C81.7923 33.4865 80.5465 33.6478 79.8423 33.6478Z" fill="#3876C3"/>
<path d="M84.5547 33.3785L86.7214 21.446H89.6464L87.4797 33.3785H84.5547V33.3785ZM88.4547 19.8335C87.4255 19.8335 87.1005 19.1347 87.1005 18.4897C87.1005 17.3072 87.9672 16.501 89.1589 16.501C90.188 16.501 90.513 17.1997 90.513 17.8447C90.4589 19.0272 89.7005 19.8335 88.4547 19.8335Z" fill="#3876C3"/>
<path d="M96.2016 33.6477C93.0057 33.6477 91.1641 31.9277 91.1641 28.9177C91.1641 28.3264 91.2724 27.6277 91.3266 27.1439C91.9766 23.3814 94.1974 21.2314 97.6641 21.2314C100.86 21.2314 102.702 22.9514 102.702 25.9614C102.702 26.4452 102.647 27.0902 102.539 27.7352C101.889 31.5514 99.6682 33.6477 96.2016 33.6477ZM97.4474 23.5964C95.8224 23.5964 94.9557 24.7252 94.5224 27.3589C94.4141 27.9502 94.3599 28.4877 94.3599 28.9177C94.3599 30.4227 95.0641 31.1752 96.4182 31.1752C98.0432 31.1752 98.8557 30.1002 99.3432 27.4127C99.4516 26.8752 99.5057 26.2839 99.5057 25.8539C99.4516 24.3489 98.8016 23.5964 97.4474 23.5964Z" fill="#3876C3"/>
<path d="M110.934 33.379L112.397 25.209C112.451 24.994 112.451 24.9403 112.451 24.8328C112.451 24.0265 111.855 23.5965 110.772 23.5965C110.068 23.5965 109.309 23.8115 108.497 24.2415L108.443 24.2953L106.818 33.3253H103.893L106.059 21.5003C106.926 21.3928 108.063 21.339 109.038 21.2853L108.822 22.5215H109.255L109.309 22.4678C110.501 21.2315 111.584 21.124 112.613 21.124C113.805 21.124 115.701 21.4465 115.701 23.8115C115.701 24.0265 115.647 24.349 115.593 24.7253L114.022 33.2715H110.934V33.379Z" fill="#3876C3"/>
<path d="M129.459 33.379L131.626 21.554C132.492 21.4465 133.63 21.3927 134.605 21.339L134.334 22.8977H134.442L134.496 22.844C135.688 21.3927 137.042 21.1777 137.746 21.1777C137.963 21.1777 138.288 21.2315 138.451 21.2852C138.234 22.2527 137.963 23.3815 137.638 24.2952C137.313 24.1877 136.934 24.1877 136.501 24.1877C135.688 24.1877 134.767 24.4027 134.009 24.779L133.955 24.8327L132.384 33.3252H129.459V33.379Z" fill="#3876C3"/>
<path d="M138.342 38.4851C137.909 38.4851 136.826 38.4313 136.176 38.1088C136.392 37.1413 136.663 36.2276 136.988 35.5288C137.476 35.6901 138.288 35.7438 138.884 35.7438C139.805 35.7438 140.238 35.4751 140.834 34.5076L141.484 33.5401V33.4863C140.726 30.7988 139.751 26.1226 139.588 21.6076C140.401 21.5001 141.538 21.4463 142.405 21.3926L143.163 28.5951C143.217 28.8101 143.272 29.4013 143.272 29.9926V30.1538H143.705L143.759 30.0463C143.922 29.6163 144.084 29.1326 144.355 28.6488L147.876 21.3926C148.688 21.3926 149.934 21.4463 150.747 21.5538L144.626 33.2176C142.405 37.6251 140.617 38.4851 138.342 38.4851Z" fill="#3876C3"/>
<path d="M150.314 33.6474C149.393 33.6474 148.852 33.1636 148.852 32.3574C148.852 30.9599 149.935 30.4224 150.856 30.4224C151.668 30.4224 152.21 30.9599 152.21 31.7661C152.264 33.1099 151.181 33.6474 150.314 33.6474Z" fill="#3876C3"/>
<path d="M159.413 33.6477C156.271 33.6477 154.43 31.8739 154.43 28.9177C154.43 28.3802 154.484 27.8427 154.592 27.2514C155.296 23.2739 157.355 21.2314 160.821 21.2314C161.905 21.2314 163.205 21.4464 164.071 21.7152C163.909 22.4677 163.638 23.4889 163.259 24.3489C162.609 24.1339 161.796 23.9727 160.984 23.9727C159.196 23.9727 158.33 24.9402 157.896 27.3589C157.788 27.9502 157.734 28.3802 157.734 28.8102C157.734 30.3689 158.438 31.0139 160.171 31.0139C160.93 31.0139 161.796 30.7989 162.446 30.5302C162.555 31.3902 162.609 32.3577 162.609 33.2177C161.742 33.4327 160.334 33.6477 159.413 33.6477Z" fill="#3876C3"/>
<path d="M169.487 33.6477C166.291 33.6477 164.449 31.9277 164.449 28.9177C164.449 28.3264 164.558 27.6277 164.612 27.1439C165.262 23.3814 167.483 21.2314 170.949 21.2314C174.145 21.2314 175.987 22.9514 175.987 25.9614C175.987 26.4452 175.933 27.0902 175.824 27.7352C175.174 31.5514 172.953 33.6477 169.487 33.6477ZM170.733 23.5964C169.108 23.5964 168.241 24.7252 167.808 27.3589C167.699 27.9502 167.645 28.4877 167.645 28.9177C167.645 30.4227 168.349 31.1752 169.703 31.1752C171.328 31.1752 172.141 30.1002 172.628 27.4127C172.737 26.8752 172.791 26.2839 172.791 25.8539C172.737 24.3489 172.087 23.5964 170.733 23.5964Z" fill="#3876C3"/>
<path d="M190.288 33.3787L191.75 25.2624C191.805 25.1012 191.805 25.0474 191.805 24.8862C191.805 24.2949 191.588 23.6499 190.288 23.6499C189.638 23.6499 188.88 23.9187 188.23 24.2949L188.175 24.3487L186.55 33.3249H183.625L185.088 25.1549C185.142 24.9399 185.142 24.8324 185.142 24.7249C185.142 24.1874 184.925 23.5424 183.68 23.5424C182.975 23.5424 182.38 23.7574 181.567 24.1874L181.513 24.2412L179.888 33.2174H176.963L179.13 21.3924C179.996 21.2849 181.134 21.2312 182.109 21.1774L181.892 22.4137H182.325L182.38 22.3599C183.517 21.2312 184.438 21.0162 185.63 21.0162C186.984 21.0162 187.796 21.5537 187.959 22.5212L188.013 22.7899L188.23 22.5749C189.421 21.4462 190.505 20.9624 191.859 20.9624C192.996 20.9624 194.946 21.2849 194.946 23.6499C194.946 23.9187 194.892 24.2949 194.838 24.5637L193.159 33.2174H190.288V33.3787Z" fill="#3876C3"/>
</g>
<defs>
<clipPath id="clip0">
<rect width="195" height="43" fill="white"/>
</clipPath>
</defs>
</svg>
