<svg width="127" height="38" viewBox="0 0 127 38" fill="none" xmlns="http://www.w3.org/2000/svg">
<path fill-rule="evenodd" clip-rule="evenodd" d="M122.879 28.6445C125.091 28.6445 127 30.4495 127 32.7053C127 34.9599 125.09 36.7649 122.879 36.7649C120.667 36.7649 118.758 34.9599 118.758 32.7053C118.758 30.4495 120.667 28.6445 122.879 28.6445" fill="#0022DC"/>
<path fill-rule="evenodd" clip-rule="evenodd" d="M107.148 17.8179H102.977V11.0508H107.148V10.3488C107.148 6.18781 108.153 4.08303 110.112 2.5282C112.226 0.773864 114.887 0.675698 117.099 0.675698C118.154 0.675698 119.512 0.825587 120.116 0.925864V7.14203C119.46 6.89081 118.607 6.89081 117.853 6.89081C115.491 6.89081 114.386 7.74264 114.386 9.89914V11.0518H119.46V17.8179H114.386V36.3155H107.148V17.8179V17.8179ZM91.7691 36.3144H99.2579V11.0508H91.7681V36.3144H91.7691ZM91.2177 4.6847C91.2171 4.12494 91.327 3.57055 91.5414 3.05324C91.7558 2.53593 92.0704 2.06588 92.4671 1.66997C92.8639 1.27407 93.335 0.960088 93.8536 0.746008C94.3721 0.531927 94.9279 0.421948 95.4892 0.422364C97.8514 0.422364 99.7606 2.27698 99.7606 4.68364C99.7606 7.03964 97.8514 8.89425 95.4892 8.89425C93.1767 8.89425 91.2167 7.03964 91.2167 4.68259L91.2177 4.6847ZM75.5872 17.8179H72.2704V11.0508H75.5872V1.37553H82.8738V11.0508H88.5042V17.8169H82.8738V26.8408C82.8738 29.2971 83.8793 30.1985 86.0912 30.1985C86.6436 30.1985 87.3474 30.0983 88.0004 29.998V36.6142C87.1463 36.8158 85.7388 36.9657 84.3322 36.9657C80.6122 36.9657 75.5872 35.8637 75.5872 27.9428V17.8179V17.8179ZM56.1372 10.2981C50.8349 10.2981 46.2735 13.0056 43.8711 17.0653H56.1372C59.0529 17.0653 61.7188 18.9453 62.4639 21.7562C63.6968 26.4038 60.3218 30.4202 55.9403 30.2956C52.6351 30.2017 49.8538 27.5512 49.5776 24.2653C49.5332 23.7375 49.5501 23.2224 49.621 22.7263C49.6619 22.4333 49.6393 22.1349 49.5546 21.8514C49.47 21.5679 49.3253 21.3058 49.1304 21.0828C48.9354 20.8599 48.6947 20.6813 48.4246 20.5591C48.1545 20.4369 47.8613 20.3739 47.5647 20.3745H42.4889V20.3755C42.4254 20.6183 42.3704 20.8664 42.3196 21.1144L42.2878 21.2896C42.252 21.4842 42.2202 21.6796 42.1926 21.8755L42.1629 22.1014C42.1407 22.2914 42.1227 22.4814 42.1079 22.6735C42.1026 22.7474 42.0941 22.8202 42.091 22.8941C42.0751 23.1548 42.0645 23.4176 42.0645 23.6826C42.0645 23.9159 42.0709 24.147 42.0836 24.3782C42.3714 29.903 46.0841 34.4788 51.271 36.2638C52.1506 36.5657 53.0571 36.7834 53.9782 36.914C55.4064 37.1169 56.8563 37.1169 58.2845 36.914C59.2025 36.7814 60.1061 36.5633 60.9833 36.2627C66.1606 34.4788 69.8997 29.903 70.1908 24.3771C70.2035 24.1481 70.2098 23.9159 70.2098 23.6826C70.2098 16.2135 63.9276 10.2981 56.1372 10.2981V10.2981ZM0 11.0497H7.48877V14.2079C8.44338 12.0018 10.9559 10.4987 14.0716 10.4987C17.5398 10.4987 19.8025 11.9026 20.9582 14.5088C22.6166 11.3505 25.8329 10.4976 29.4005 10.4976C35.1811 10.4976 38.3974 14.4591 38.3974 20.9751V36.3134H30.9086V21.8776C30.9086 18.9706 29.6016 17.116 27.1399 17.116C24.6772 17.116 22.9182 19.1701 22.9182 22.1278V36.3144H15.4305V21.8765C15.4305 18.9695 14.1235 17.1149 11.6618 17.1149C9.24877 17.1149 7.48982 19.169 7.48982 22.1267V36.3134H0V11.0486V11.0497Z" fill="#080947"/>
</svg>
