<svg aria-hidden="true" style="position: absolute; width: 0; height: 0; overflow: hidden;" version="1.1" xmlns="http://www.w3.org/2000/svg" xmlns:xlink="http://www.w3.org/1999/xlink">
<defs>
<symbol id="icon-w-project" viewBox="0 0 32 32">
<title>w-project</title>
<path fill="#fff" style="fill: var(--color1, #fff)" d="M2 5c0-2.761 2.239-5 5-5s5 2.239 5 5c0 2.761-2.239 5-5 5s-5-2.239-5-5zM7 2c-1.657 0-3 1.343-3 3s1.343 3 3 3c1.657 0 3-1.343 3-3s-1.343-3-3-3z"></path>
<path fill="#fff" style="fill: var(--color1, #fff)" d="M7 10c0.552 0 1 0.448 1 1v8c0 0.552-0.448 1-1 1s-1-0.448-1-1v-8c0-0.552 0.448-1 1-1z"></path>
<path fill="#fff" style="fill: var(--color1, #fff)" d="M0 17c0-3.866 3.134-7 7-7s7 3.134 7 7v4c0 0.552-0.448 1-1 1h-1.095l-0.91 9.099c-0.051 0.511-0.481 0.901-0.995 0.901h-6c-0.514 0-0.944-0.389-0.995-0.901l-0.91-9.099h-1.095c-0.552 0-1-0.448-1-1v-4zM7 12c-2.761 0-5 2.239-5 5v3h1c0.514 0 0.944 0.389 0.995 0.901l0.91 9.099h4.19l0.91-9.099c0.051-0.511 0.481-0.901 0.995-0.901h1v-3c0-2.761-2.239-5-5-5z"></path>
<path fill="#dd2c03" style="fill: var(--color2, #dd2c03)" d="M14 1c0-0.552 0.448-1 1-1h14c1.657 0 3 1.343 3 3v14c0 1.657-1.343 3-3 3h-12c-0.552 0-1-0.448-1-1s0.448-1 1-1h12c0.552 0 1-0.448 1-1v-14c0-0.552-0.448-1-1-1h-14c-0.552 0-1-0.448-1-1z"></path>
<path fill="#dd2c03" style="fill: var(--color2, #dd2c03)" d="M27.707 6.293c0.39 0.391 0.39 1.024 0 1.414l-5 5c-0.39 0.39-1.024 0.39-1.414 0l-2.293-2.293-2.293 2.293c-0.39 0.39-1.024 0.39-1.414 0s-0.39-1.024 0-1.414l3-3c0.39-0.391 1.024-0.391 1.414 0l2.293 2.293 4.293-4.293c0.39-0.391 1.024-0.391 1.414 0z"></path>
<path fill="#dd2c03" style="fill: var(--color2, #dd2c03)" d="M22 7c0-0.552 0.448-1 1-1h4c0.552 0 1 0.448 1 1v4c0 0.552-0.448 1-1 1s-1-0.448-1-1v-3h-3c-0.552 0-1-0.448-1-1z"></path>
<path fill="#dd2c03" style="fill: var(--color2, #dd2c03)" d="M21 18c0.552 0 1 0.448 1 1v7c0 0.552-0.448 1-1 1s-1-0.448-1-1v-7c0-0.552 0.448-1 1-1z"></path>
<path fill="#dd2c03" style="fill: var(--color2, #dd2c03)" d="M16 26c0-0.552 0.448-1 1-1h8c0.552 0 1 0.448 1 1s-0.448 1-1 1h-8c-0.552 0-1-0.448-1-1z"></path>
</symbol>
<symbol id="icon-w-web" viewBox="0 0 37 32">
<title>w-web</title>
<path fill="#fff" style="fill: var(--color1, #fff)" d="M3.604 0h29.379c1.979 0.006 3.582 1.609 3.588 3.588v24.812c-0.006 1.986-1.614 3.594-3.6 3.6h-29.543c-1.894 0-3.429-1.535-3.429-3.429v-24.971c0.006-1.986 1.614-3.594 3.6-3.6h0.004zM3.606 2.286c-0.728 0.003-1.317 0.592-1.32 1.32v24.966c0 0.631 0.512 1.143 1.143 1.143h29.537c0.728-0.003 1.318-0.592 1.32-1.32v-24.801c-0.003-0.721-0.587-1.305-1.308-1.308h-29.372z"></path>
<path fill="#fff" style="fill: var(--color1, #fff)" d="M0 8c0-0.631 0.512-1.143 1.143-1.143h34.286c0.631 0 1.143 0.512 1.143 1.143s-0.512 1.143-1.143 1.143h-34.286c-0.631 0-1.143-0.512-1.143-1.143z"></path>
<path fill="#dd2c03" style="fill: var(--color2, #dd2c03)" d="M24.335 14.049c0.446-0.446 1.17-0.446 1.616 0l4.571 4.571c0.446 0.446 0.446 1.17 0 1.616l-4.571 4.571c-0.446 0.446-1.17 0.446-1.616 0s-0.446-1.17 0-1.616l3.763-3.763-3.763-3.763c-0.446-0.446-0.446-1.17 0-1.616z"></path>
<path fill="#dd2c03" style="fill: var(--color2, #dd2c03)" d="M12.237 14.049c0.446 0.446 0.446 1.17 0 1.616l-3.763 3.763 3.763 3.763c0.446 0.446 0.446 1.17 0 1.616s-1.17 0.446-1.616 0l-4.571-4.571c-0.446-0.446-0.446-1.17 0-1.616l4.571-4.571c0.446-0.446 1.17-0.446 1.616 0z"></path>
<path fill="#dd2c03" style="fill: var(--color2, #dd2c03)" d="M21.083 13.835c0.565 0.282 0.793 0.969 0.511 1.533l-4.571 9.143c-0.282 0.565-0.969 0.793-1.533 0.511s-0.793-0.969-0.511-1.533l4.571-9.143c0.282-0.565 0.969-0.793 1.533-0.511z"></path>
</symbol>
<symbol id="icon-w-mobile" viewBox="0 0 32 32">
<title>w-mobile</title>
<path fill="#dd2c03" style="fill: var(--color2, #dd2c03)" d="M23 16c-0.552 0-1 0.448-1 1v7c0 0.347-0.18 0.668-0.474 0.851s-0.663 0.199-0.973 0.044l-1.565-0.783c-0.321-0.161-0.698-0.167-1.024-0.017s-0.566 0.44-0.653 0.788c-0.112 0.449 0.048 0.922 0.409 1.21l0.008 0.006 5.052 4.125c0.428 0.349 0.491 0.979 0.142 1.407s-0.979 0.491-1.407 0.142l-5.049-4.122c-0.969-0.777-1.397-2.047-1.096-3.253zM15.37 24.399c0.234-0.937 0.88-1.718 1.758-2.122s1.891-0.387 2.754 0.045c0 0-0 0 0 0l0.118 0.059v-5.382c0-1.657 1.343-3 3-3s3 1.343 3 3v3.153l1.822 0.303c2.411 0.402 4.178 2.487 4.178 4.932v5.612c0 0.552-0.448 1-1 1s-1-0.448-1-1v-5.612c0-0 0 0 0 0-0-1.466-1.060-2.718-2.507-2.959 0 0 0 0 0 0l-2.657-0.443c-0.482-0.080-0.836-0.497-0.836-0.986v-4c0-0.552-0.448-1-1-1z"></path>
<path fill="#fff" style="fill: var(--color1, #fff)" d="M3 2c-0.552 0-1 0.448-1 1v18c0 0.552 0.448 1 1 1h2c0.552 0 1 0.448 1 1s-0.448 1-1 1h-2c-1.657 0-3-1.343-3-3v-18c0-1.657 1.343-3 3-3h10c1.657 0 3 1.343 3 3v2c0 0.552-0.448 1-1 1s-1-0.448-1-1v-2c0-0.552-0.448-1-1-1h-10z"></path>
<path fill="#fff" style="fill: var(--color1, #fff)" d="M0 19c0-0.552 0.448-1 1-1h4c0.552 0 1 0.448 1 1s-0.448 1-1 1h-4c-0.552 0-1-0.448-1-1z"></path>
<path fill="#fff" style="fill: var(--color1, #fff)" d="M0 5c0-0.552 0.448-1 1-1h14c0.552 0 1 0.448 1 1s-0.448 1-1 1h-14c-0.552 0-1-0.448-1-1z"></path>
<path fill="#fff" style="fill: var(--color1, #fff)" d="M11 10c-0.552 0-1 0.448-1 1v10c0 0.552 0.448 1 1 1s1 0.448 1 1c0 0.552-0.448 1-1 1-1.657 0-3-1.343-3-3v-10c0-1.657 1.343-3 3-3h18c1.657 0 3 1.343 3 3v6c0 0.552-0.448 1-1 1s-1-0.448-1-1v-6c0-0.552-0.448-1-1-1h-18z"></path>
<path fill="#fff" style="fill: var(--color1, #fff)" d="M13 8c0.552 0 1 0.448 1 1v12c0 0.552-0.448 1-1 1s-1-0.448-1-1v-12c0-0.552 0.448-1 1-1z"></path>
<path fill="#fff" style="fill: var(--color1, #fff)" d="M27 8c0.552 0 1 0.448 1 1v4c0 0.552-0.448 1-1 1s-1-0.448-1-1v-4c0-0.552 0.448-1 1-1z"></path>
</symbol>
<symbol id="icon-w-backend" viewBox="0 0 32 32">
<title>w-backend</title>
<path fill="#fff" style="fill: var(--color1, #fff)" d="M12.015 24.829c0.083-0.479 0.499-0.829 0.985-0.829h6c0.486 0 0.902 0.35 0.985 0.829l1 5.76-0.985 0.171v1h-8c-0.295 0-0.575-0.13-0.765-0.356s-0.271-0.524-0.22-0.815l1-5.76zM18.811 29.76l-0.653-3.76h-4.317l-0.653 3.76h5.623z"></path>
<path fill="#fff" style="fill: var(--color1, #fff)" d="M8 30.76c0-0.552 0.448-1 1-1h14c0.552 0 1 0.448 1 1s-0.448 1-1 1h-14c-0.552 0-1-0.448-1-1z"></path>
<path fill="#fff" style="fill: var(--color1, #fff)" d="M0 5.96c0-2.761 2.239-5 5-5h22c2.761 0 5 2.239 5 5v15.040c0 2.761-2.239 5-5 5h-22c-2.761 0-5-2.239-5-5v-15.040zM5 2.96c-1.657 0-3 1.343-3 3v15.040c0 1.657 1.343 3 3 3h22c1.657 0 3-1.343 3-3v-15.040c0-1.657-1.343-3-3-3h-22z"></path>
<path fill="#dd2c03" style="fill: var(--color2, #dd2c03)" d="M7 6.72c0.552 0 1 0.448 1 1v3.84c0 0.552-0.448 1-1 1s-1-0.448-1-1v-3.84c0-0.552 0.448-1 1-1z"></path>
<path fill="#dd2c03" style="fill: var(--color2, #dd2c03)" d="M19 6.72c0.552 0 1 0.448 1 1v3.84c0 0.552-0.448 1-1 1s-1-0.448-1-1v-3.84c0-0.552 0.448-1 1-1z"></path>
<path fill="#dd2c03" style="fill: var(--color2, #dd2c03)" d="M25 6.72c0.552 0 1 0.448 1 1v3.84c0 0.552-0.448 1-1 1s-1-0.448-1-1v-3.84c0-0.552 0.448-1 1-1z"></path>
<path fill="#dd2c03" style="fill: var(--color2, #dd2c03)" d="M25 14.4c0.552 0 1 0.448 1 1v3.84c0 0.552-0.448 1-1 1s-1-0.448-1-1v-3.84c0-0.552 0.448-1 1-1z"></path>
<path fill="#dd2c03" style="fill: var(--color2, #dd2c03)" d="M13 14.4c0.552 0 1 0.448 1 1v3.84c0 0.552-0.448 1-1 1s-1-0.448-1-1v-3.84c0-0.552 0.448-1 1-1z"></path>
<path fill="#dd2c03" style="fill: var(--color2, #dd2c03)" d="M7 14.4c0.552 0 1 0.448 1 1v3.84c0 0.552-0.448 1-1 1s-1-0.448-1-1v-3.84c0-0.552 0.448-1 1-1z"></path>
<path fill="#dd2c03" style="fill: var(--color2, #dd2c03)" d="M10 9.64c0-1.651 1.382-2.92 3-2.92s3 1.269 3 2.92c0 1.651-1.382 2.92-3 2.92s-3-1.269-3-2.92zM13 8.72c-0.591 0-1 0.45-1 0.92s0.409 0.92 1 0.92c0.591 0 1-0.45 1-0.92s-0.409-0.92-1-0.92z"></path>
<path fill="#dd2c03" style="fill: var(--color2, #dd2c03)" d="M16 17.32c0-1.651 1.382-2.92 3-2.92s3 1.269 3 2.92c0 1.651-1.382 2.92-3 2.92s-3-1.269-3-2.92zM19 16.4c-0.591 0-1 0.45-1 0.92s0.409 0.92 1 0.92c0.591 0 1-0.45 1-0.92s-0.409-0.92-1-0.92z"></path>
</symbol>
<symbol id="icon-w-prototype" viewBox="0 0 31 32">
<title>w-prototype</title>
<path fill="#fff" style="fill: var(--color1, #fff)" d="M1.939 11.259c0.046-0.899 0.807-1.597 1.709-1.563 0.012 0 0.024 0.001 0.037 0.001h8.145c0.012 0 0.025-0 0.037-0.001 0.902-0.034 1.663 0.663 1.709 1.563v12.51c-0.138 3.060-2.719 5.438-5.782 5.323-0.024-0.001-0.049-0.001-0.073 0-3.063 0.115-5.644-2.263-5.782-5.323v-12.51zM3.702 7.758c-1.967-0.064-3.621 1.47-3.701 3.44-0.001 0.013-0.001 0.026-0.001 0.039v12.553c0 0.013 0 0.027 0.001 0.040 0.172 4.124 3.636 7.336 7.757 7.201 4.121 0.135 7.585-3.077 7.757-7.201 0.001-0.013 0.001-0.027 0.001-0.040v-12.553c0-0.013-0-0.026-0.001-0.039-0.080-1.969-1.734-3.504-3.701-3.44h-8.112z"></path>
<path fill="#fff" style="fill: var(--color1, #fff)" d="M0 15.515c0-0.536 0.434-0.97 0.97-0.97h13.576c0.536 0 0.97 0.434 0.97 0.97s-0.434 0.97-0.97 0.97h-13.576c-0.536 0-0.97-0.434-0.97-0.97z"></path>
<path fill="#dd2c03" style="fill: var(--color2, #dd2c03)" d="M27.151 0c0.341 0 0.656 0.179 0.831 0.471l2.909 4.848c0.090 0.151 0.138 0.323 0.138 0.499v13.899c0 0.020-0.001 0.040-0.002 0.060-0.126 2.029-1.852 3.58-3.877 3.496-2.025 0.084-3.751-1.467-3.877-3.496-0.001-0.020-0.002-0.040-0.002-0.060v-13.899c0-0.176 0.048-0.348 0.138-0.499l2.909-4.848c0.175-0.292 0.491-0.471 0.831-0.471zM25.212 6.087v13.597c0.075 0.97 0.911 1.705 1.886 1.651 0.036-0.002 0.072-0.002 0.107 0 0.974 0.054 1.811-0.681 1.886-1.651v-13.597l-1.939-3.232-1.939 3.232z"></path>
<path fill="#fff" style="fill: var(--color1, #fff)" d="M13.576 1.939c-2.678 0-4.848 2.171-4.848 4.848v8.727c0 0.536-0.434 0.97-0.97 0.97s-0.97-0.434-0.97-0.97v-8.727c0-3.749 3.039-6.788 6.788-6.788 1.8 0 3.527 0.715 4.8 1.988s1.988 2.999 1.988 4.8v18.424c0 1.607 1.302 2.909 2.909 2.909s2.909-1.302 2.909-2.909v-2.909c0-0.536 0.434-0.97 0.97-0.97s0.97 0.434 0.97 0.97v2.909c0 2.678-2.171 4.849-4.849 4.849s-4.849-2.171-4.849-4.849v-18.424c0-1.286-0.511-2.519-1.42-3.428s-2.142-1.42-3.428-1.42z"></path>
<path fill="#dd2c03" style="fill: var(--color2, #dd2c03)" d="M23.273 18.424c0-0.536 0.434-0.97 0.97-0.97h5.818c0.536 0 0.97 0.434 0.97 0.97s-0.434 0.97-0.97 0.97h-5.818c-0.536 0-0.97-0.434-0.97-0.97z"></path>
<path fill="#dd2c03" style="fill: var(--color2, #dd2c03)" d="M23.273 7.758c0-0.536 0.434-0.97 0.97-0.97h5.818c0.536 0 0.97 0.434 0.97 0.97s-0.434 0.97-0.97 0.97h-5.818c-0.536 0-0.97-0.434-0.97-0.97z"></path>
</symbol>
<symbol id="icon-w-design" viewBox="0 0 34 32">
<title>w-design</title>
<path fill="#fff" style="fill: var(--color1, #fff)" d="M12.842 7.134c-0.781-0.781-0.781-2.047 0-2.828l2.829-2.828c0.781-0.781 2.047-0.781 2.828 0l2.659 2.659c0.781 0.781 0.781 2.047 0 2.828l-2.828 2.828c-0.781 0.781-2.047 0.781-2.829 0l-2.659-2.659zM14.256 5.72l2.659 2.659 2.828-2.828-2.659-2.659-2.829 2.828z"></path>
<path fill="#fff" style="fill: var(--color1, #fff)" d="M1.67 17.859c-0.781-0.781-0.781-2.047 0-2.828l2.828-2.828c0.781-0.781 2.047-0.781 2.828 0l2.659 2.659c0.781 0.781 0.781 2.047 0 2.828l-2.828 2.828c-0.781 0.781-2.047 0.781-2.828 0l-2.659-2.659zM3.084 16.445l2.659 2.659 2.828-2.828-2.659-2.659-2.828 2.828z"></path>
<path fill="#fff" style="fill: var(--color1, #fff)" d="M24.014 17.86c-0.781-0.781-0.781-2.047 0-2.828l2.828-2.829c0.781-0.781 2.047-0.781 2.828 0l2.659 2.659c0.781 0.781 0.781 2.047 0 2.828l-2.828 2.829c-0.781 0.781-2.047 0.781-2.828 0l-2.659-2.659zM25.428 16.445l2.659 2.659 2.828-2.828-2.659-2.659-2.828 2.828z"></path>
<path fill="#fff" style="fill: var(--color1, #fff)" d="M15.6 6.979c0.383 0.398 0.37 1.031-0.029 1.414l-6.929 6.652c-0.398 0.383-1.031 0.37-1.414-0.029s-0.37-1.031 0.029-1.414l6.929-6.652c0.398-0.382 1.031-0.37 1.414 0.029z"></path>
<path fill="#fff" style="fill: var(--color1, #fff)" d="M18.4 6.979c0.383-0.398 1.015-0.411 1.414-0.029l6.929 6.652c0.398 0.383 0.411 1.016 0.029 1.414s-1.015 0.411-1.414 0.029l-6.929-6.652c-0.398-0.382-0.411-1.016-0.029-1.414z"></path>
<path fill="#dd2c03" style="fill: var(--color2, #dd2c03)" d="M18.968 12.981c-0.371-0.713-1.113-1.139-1.9-1.139s-1.529 0.427-1.9 1.139zM18.968 12.981l3.98 7.642c0 0 0 0 0 0 1.283 2.464 0.774 5.436-1.24 7.37-2.567 2.464-6.713 2.464-9.28 0-2.014-1.933-2.523-4.906-1.24-7.37zM15.169 12.981c0 0 0-0 0 0l-3.98 7.642zM16.056 13.443l0.887 0.462-3.98 7.642c-0.866 1.662-0.533 3.674 0.851 5.003 1.793 1.721 4.716 1.721 6.51 0zM20.323 26.55c1.384-1.329 1.717-3.341 0.851-5.003l-3.98-7.642c-0.012-0.024-0.054-0.063-0.126-0.063s-0.113 0.039-0.126 0.063l-0.887-0.462z"></path>
<path fill="#dd2c03" style="fill: var(--color2, #dd2c03)" d="M17.069 11.843c0.552 0 1 0.448 1 1v9.238c0 0.552-0.448 1-1 1s-1-0.448-1-1v-9.238c0-0.552 0.448-1 1-1z"></path>
<path fill="#dd2c03" style="fill: var(--color2, #dd2c03)" d="M10 30.76c0-0.552 0.448-1 1-1h12c0.552 0 1 0.448 1 1s-0.448 1-1 1h-12c-0.552 0-1-0.448-1-1z"></path>
</symbol>
<symbol id="icon-w-idea" viewBox="0 0 32 32">
<title>w-idea</title>
<path fill="#fff" style="fill: var(--color1, #fff)" d="M0.068 27.516c0-2.476 2.008-4.484 4.484-4.484s4.484 2.008 4.484 4.484c0 2.477-2.008 4.484-4.484 4.484s-4.484-2.008-4.484-4.484zM4.552 25.032c-1.372 0-2.484 1.112-2.484 2.484s1.112 2.484 2.484 2.484 2.484-1.112 2.484-2.484c0-1.372-1.112-2.484-2.484-2.484z"></path>
<path fill="#fff" style="fill: var(--color1, #fff)" d="M11.681 24.227c0-0.552 0.448-1 1-1h6.636c0.552 0 1 0.448 1 1v6.636c0 0.552-0.448 1-1 1h-6.636c-0.552 0-1-0.448-1-1v-6.636zM13.681 25.227v4.636h4.636v-4.636h-4.636z"></path>
<path fill="#fff" style="fill: var(--color1, #fff)" d="M26.949 22.563c0.366 0 0.703 0.2 0.878 0.521l3.983 7.3-0.878 0.479v1h-7.964c-0.353 0-0.68-0.186-0.86-0.489s-0.187-0.68-0.018-0.989l3.981-7.3c0.175-0.321 0.512-0.521 0.878-0.521zM29.247 29.863l-2.298-4.212-2.297 4.212h4.595z"></path>
<path fill="#dd2c03" style="fill: var(--color2, #dd2c03)" d="M20.977 6.113l-1-0.002c0.003-1.987-1.461-3.672-3.429-3.946s-3.837 0.947-4.376 2.86c-0.539 1.913 0.416 3.93 2.237 4.725 0.364 0.159 0.6 0.519 0.6 0.917v1.415h1.981v-1.415c0-0.398 0.236-0.758 0.601-0.917 1.448-0.631 2.384-2.059 2.386-3.638l2 0.003c0-0 0-0 0-0.001 0.005-2.986-2.195-5.518-5.153-5.93s-5.766 1.423-6.577 4.298zM13.009 11.281c-2.342-1.351-3.511-4.142-2.762-6.798z"></path>
<path fill="#fff" style="fill: var(--color1, #fff)" d="M3.719 17.259c0-0.552 0.448-1 1-1h22.563c0.552 0 1 0.448 1 1v3.317c0 0.552-0.448 1-1 1s-1-0.448-1-1v-2.317h-20.563v2.317c0 0.552-0.448 1-1 1s-1-0.448-1-1v-3.317z"></path>
<path fill="#dd2c03" style="fill: var(--color2, #dd2c03)" d="M25.367 6.972c0-0.552 0.448-1 1-1h1.991c0.552 0 1 0.448 1 1s-0.448 1-1 1h-1.991c-0.552 0-1-0.448-1-1z"></path>
<path fill="#dd2c03" style="fill: var(--color2, #dd2c03)" d="M25.248 10.83c0.391-0.39 1.024-0.39 1.414 0.001l1.407 1.408c0.39 0.391 0.39 1.024-0.001 1.414s-1.024 0.39-1.414-0.001l-1.407-1.408c-0.39-0.391-0.39-1.024 0.001-1.414z"></path>
<path fill="#dd2c03" style="fill: var(--color2, #dd2c03)" d="M28.068 0.293c0.391 0.39 0.391 1.024 0.001 1.414l-1.407 1.408c-0.39 0.391-1.023 0.391-1.414 0.001s-0.391-1.023-0.001-1.414l1.407-1.408c0.39-0.391 1.023-0.391 1.414-0.001z"></path>
<path fill="#dd2c03" style="fill: var(--color2, #dd2c03)" d="M2.643 6.972c0-0.552 0.448-1 1-1h1.991c0.552 0 1 0.448 1 1s-0.448 1-1 1h-1.991c-0.552 0-1-0.448-1-1z"></path>
<path fill="#dd2c03" style="fill: var(--color2, #dd2c03)" d="M6.752 10.83c0.391 0.39 0.391 1.024 0 1.414l-1.408 1.408c-0.391 0.39-1.024 0.39-1.414 0s-0.391-1.024 0-1.414l1.408-1.408c0.391-0.39 1.024-0.39 1.414 0z"></path>
<path fill="#dd2c03" style="fill: var(--color2, #dd2c03)" d="M3.93 0.293c0.391-0.391 1.024-0.391 1.414 0l1.408 1.408c0.391 0.391 0.391 1.024 0 1.414s-1.024 0.391-1.414 0l-1.408-1.408c-0.391-0.391-0.391-1.024 0-1.414z"></path>
<path fill="#fff" style="fill: var(--color1, #fff)" d="M16 12.081c0.552 0 1 0.448 1 1v6.832c0 0.552-0.448 1-1 1s-1-0.448-1-1v-6.832c0-0.552 0.448-1 1-1z"></path>
</symbol>
<symbol id="icon-w-research" viewBox="0 0 32 32">
<title>w-research</title>
<path fill="#fff" style="fill: var(--color1, #fff)" d="M3 5c0-2.761 2.239-5 5-5s5 2.239 5 5c0 2.761-2.239 5-5 5s-5-2.239-5-5zM8 2c-1.657 0-3 1.343-3 3s1.343 3 3 3c1.657 0 3-1.343 3-3s-1.343-3-3-3z"></path>
<path fill="#fff" style="fill: var(--color1, #fff)" d="M4.902 10.625c2.969-1.248 6.397-0.593 8.698 1.66 0.395 0.386 0.401 1.020 0.015 1.414s-1.020 0.401-1.414 0.015c-1.726-1.69-4.297-2.181-6.524-1.245s-3.676 3.115-3.677 5.531v2h2c0.514 0 0.944 0.389 0.995 0.901l0.91 9.1h4.19l0.291-2.9c0.055-0.549 0.545-0.95 1.095-0.895s0.95 0.545 0.895 1.095l-0.381 3.8c-0.051 0.511-0.481 0.9-0.995 0.9h-6c-0.514 0-0.944-0.389-0.995-0.901l-0.91-9.099h-2.095c-0.552 0-1-0.448-1-1v-3c0.001-3.221 1.933-6.127 4.902-7.375z"></path>
<path fill="#dd2c03" style="fill: var(--color2, #dd2c03)" d="M13 21c0-4.418 3.582-8 8-8s8 3.582 8 8c0 4.418-3.582 8-8 8s-8-3.582-8-8zM21 15c-3.314 0-6 2.686-6 6s2.686 6 6 6c3.314 0 6-2.686 6-6s-2.686-6-6-6z"></path>
<path fill="#dd2c03" style="fill: var(--color2, #dd2c03)" d="M25.244 25.242c0.39-0.39 1.024-0.39 1.414 0l5.049 5.051c0.39 0.39 0.39 1.024-0 1.414s-1.024 0.39-1.414-0l-5.049-5.051c-0.39-0.39-0.39-1.024 0-1.414z"></path>
<path fill="#fff" style="fill: var(--color1, #fff)" d="M17.5 4.5c0-2.485 2.015-4.5 4.5-4.5s4.5 2.015 4.5 4.5c0 2.485-2.015 4.5-4.5 4.5s-4.5-2.015-4.5-4.5zM22 2c-1.381 0-2.5 1.119-2.5 2.5s1.119 2.5 2.5 2.5c1.381 0 2.5-1.119 2.5-2.5s-1.119-2.5-2.5-2.5z"></path>
<path fill="#fff" style="fill: var(--color1, #fff)" d="M16.734 10.395c1.486-1.701 3.702-2.58 5.95-2.361s4.252 1.509 5.382 3.465c0.276 0.478 0.113 1.090-0.366 1.366s-1.090 0.113-1.366-0.366c-0.807-1.397-2.239-2.319-3.845-2.475s-3.188 0.472-4.25 1.686c-0.363 0.416-0.995 0.458-1.411 0.095s-0.458-0.995-0.095-1.411z"></path>
</symbol>
<symbol id="icon-dribbble" viewBox="0 0 32 32">
<title>dribbble</title>
<path d="M16 32c-8.825 0-16-7.175-16-16s7.175-16 16-16c8.825 0 16 7.175 16 16s-7.175 16-16 16v0zM29.494 18.188c-0.469-0.15-4.231-1.269-8.512-0.581 1.788 4.912 2.512 8.912 2.656 9.744 3.063-2.075 5.25-5.356 5.856-9.163v0zM21.337 28.6c-0.206-1.2-0.994-5.375-2.913-10.363-0.031 0.012-0.063 0.019-0.087 0.031-7.713 2.688-10.481 8.031-10.725 8.531 2.319 1.806 5.231 2.887 8.387 2.887 1.894 0 3.7-0.387 5.338-1.087v0zM5.844 25.156c0.313-0.531 4.063-6.738 11.106-9.019 0.175-0.056 0.356-0.113 0.538-0.162-0.344-0.775-0.719-1.556-1.106-2.319-6.819 2.044-13.444 1.956-14.044 1.95-0.006 0.137-0.006 0.275-0.006 0.419 0 3.506 1.331 6.712 3.512 9.131v0zM2.625 13.219c0.612 0.006 6.244 0.031 12.637-1.662-2.262-4.025-4.706-7.412-5.069-7.906-3.825 1.806-6.688 5.331-7.569 9.569v0zM12.8 2.731c0.375 0.506 2.863 3.888 5.1 8 4.863-1.819 6.919-4.588 7.163-4.938-2.413-2.144-5.587-3.444-9.063-3.444-1.1 0.006-2.175 0.138-3.2 0.381v0zM26.581 7.381c-0.288 0.388-2.581 3.325-7.631 5.388 0.319 0.65 0.625 1.313 0.906 1.981 0.1 0.238 0.2 0.469 0.294 0.706 4.55-0.569 9.069 0.344 9.519 0.438-0.031-3.225-1.188-6.188-3.087-8.512v0z"></path>
</symbol>
<symbol id="icon-behance" viewBox="0 0 32 32">
<title>behance</title>
<path d="M9.281 6.412c0.944 0 1.794 0.081 2.569 0.25 0.775 0.162 1.431 0.438 1.988 0.813 0.55 0.375 0.975 0.875 1.287 1.5 0.3 0.619 0.45 1.394 0.45 2.313 0 0.994-0.225 1.819-0.675 2.481-0.456 0.662-1.119 1.2-2.006 1.625 1.213 0.35 2.106 0.962 2.706 1.831 0.6 0.875 0.887 1.925 0.887 3.163 0 1-0.194 1.856-0.575 2.581-0.387 0.731-0.912 1.325-1.556 1.781-0.65 0.462-1.4 0.8-2.237 1.019-0.831 0.219-1.688 0.331-2.575 0.331h-9.544v-19.688h9.281zM8.719 14.363c0.769 0 1.406-0.181 1.906-0.55 0.5-0.363 0.738-0.963 0.738-1.787 0-0.456-0.081-0.838-0.244-1.131-0.169-0.294-0.387-0.525-0.669-0.688-0.275-0.169-0.588-0.281-0.956-0.344-0.356-0.069-0.731-0.1-1.113-0.1h-4.050v4.6h4.388zM8.956 22.744c0.425 0 0.831-0.038 1.213-0.125 0.387-0.087 0.731-0.219 1.019-0.419 0.287-0.194 0.531-0.45 0.706-0.788 0.175-0.331 0.256-0.756 0.256-1.275 0-1.012-0.287-1.738-0.856-2.175-0.569-0.431-1.325-0.644-2.262-0.644h-4.7v5.419h4.625z"></path>
<path d="M22.663 22.675c0.587 0.575 1.431 0.863 2.531 0.863 0.788 0 1.475-0.2 2.044-0.6s0.913-0.825 1.044-1.262h3.45c-0.556 1.719-1.394 2.938-2.544 3.675-1.131 0.738-2.519 1.113-4.125 1.113-1.125 0-2.131-0.181-3.038-0.538-0.906-0.363-1.663-0.869-2.3-1.531-0.619-0.663-1.106-1.45-1.45-2.375-0.337-0.919-0.512-1.938-0.512-3.038 0-1.069 0.175-2.063 0.525-2.981 0.356-0.925 0.844-1.719 1.494-2.387s1.413-1.2 2.313-1.588c0.894-0.387 1.881-0.581 2.975-0.581 1.206 0 2.262 0.231 3.169 0.706 0.9 0.469 1.644 1.1 2.225 1.887s0.994 1.694 1.25 2.706c0.256 1.012 0.344 2.069 0.275 3.175h-10.294c0 1.119 0.375 2.188 0.969 2.756zM27.156 15.188c-0.462-0.512-1.256-0.794-2.212-0.794-0.625 0-1.144 0.106-1.556 0.319-0.406 0.213-0.738 0.475-0.994 0.787-0.25 0.313-0.425 0.65-0.525 1.006-0.1 0.344-0.163 0.663-0.181 0.938h6.375c-0.094-1-0.438-1.738-0.906-2.256z"></path>
<path d="M20.887 8h7.981v1.944h-7.981v-1.944z"></path>
</symbol>
<symbol id="icon-linkedin" viewBox="0 0 32 32">
<title>linkedin</title>
<path d="M12 12h5.535v2.837h0.079c0.77-1.381 2.655-2.837 5.464-2.837 5.842 0 6.922 3.637 6.922 8.367v9.633h-5.769v-8.54c0-2.037-0.042-4.657-3.001-4.657-3.005 0-3.463 2.218-3.463 4.509v8.688h-5.767v-18z"></path>
<path d="M2 12h6v18h-6v-18z"></path>
<path d="M8 7c0 1.657-1.343 3-3 3s-3-1.343-3-3c0-1.657 1.343-3 3-3s3 1.343 3 3z"></path>
</symbol>
<symbol id="icon-facebook" viewBox="0 0 32 32">
<title>facebook</title>
<path d="M19 6h5v-6h-5c-3.86 0-7 3.14-7 7v3h-4v6h4v16h6v-16h5l1-6h-6v-3c0-0.542 0.458-1 1-1z"></path>
</symbol>
<symbol id="icon-arrow-right" viewBox="0 0 42 32">
<title>arrow-right</title>
<path d="M40 17h-40v-2h40v2z"></path>
<path d="M38.586 16l-13.293-13.293 1.414-1.414 14.707 14.707-14.707 14.707-1.414-1.414 13.293-13.293z"></path>
</symbol>
<symbol id="icon-project" viewBox="0 0 32 32">
<title>project</title>
<path fill="#01111e" style="fill: var(--color3, #01111e)" d="M2 5c0-2.761 2.239-5 5-5s5 2.239 5 5c0 2.761-2.239 5-5 5s-5-2.239-5-5zM7 2c-1.657 0-3 1.343-3 3s1.343 3 3 3c1.657 0 3-1.343 3-3s-1.343-3-3-3z"></path>
<path fill="#01111e" style="fill: var(--color3, #01111e)" d="M7 10c0.552 0 1 0.448 1 1v8c0 0.552-0.448 1-1 1s-1-0.448-1-1v-8c0-0.552 0.448-1 1-1z"></path>
<path fill="#01111e" style="fill: var(--color3, #01111e)" d="M0 17c0-3.866 3.134-7 7-7s7 3.134 7 7v4c0 0.552-0.448 1-1 1h-1.095l-0.91 9.099c-0.051 0.511-0.481 0.901-0.995 0.901h-6c-0.514 0-0.944-0.389-0.995-0.901l-0.91-9.099h-1.095c-0.552 0-1-0.448-1-1v-4zM7 12c-2.761 0-5 2.239-5 5v3h1c0.514 0 0.944 0.389 0.995 0.901l0.91 9.099h4.19l0.91-9.099c0.051-0.511 0.481-0.901 0.995-0.901h1v-3c0-2.761-2.239-5-5-5z"></path>
<path fill="#dd2c03" style="fill: var(--color2, #dd2c03)" d="M14 1c0-0.552 0.448-1 1-1h14c1.657 0 3 1.343 3 3v14c0 1.657-1.343 3-3 3h-12c-0.552 0-1-0.448-1-1s0.448-1 1-1h12c0.552 0 1-0.448 1-1v-14c0-0.552-0.448-1-1-1h-14c-0.552 0-1-0.448-1-1z"></path>
<path fill="#dd2c03" style="fill: var(--color2, #dd2c03)" d="M27.707 6.293c0.39 0.391 0.39 1.024 0 1.414l-5 5c-0.39 0.39-1.024 0.39-1.414 0l-2.293-2.293-2.293 2.293c-0.39 0.39-1.024 0.39-1.414 0s-0.39-1.024 0-1.414l3-3c0.39-0.391 1.024-0.391 1.414 0l2.293 2.293 4.293-4.293c0.39-0.391 1.024-0.391 1.414 0z"></path>
<path fill="#dd2c03" style="fill: var(--color2, #dd2c03)" d="M22 7c0-0.552 0.448-1 1-1h4c0.552 0 1 0.448 1 1v4c0 0.552-0.448 1-1 1s-1-0.448-1-1v-3h-3c-0.552 0-1-0.448-1-1z"></path>
<path fill="#dd2c03" style="fill: var(--color2, #dd2c03)" d="M21 18c0.552 0 1 0.448 1 1v7c0 0.552-0.448 1-1 1s-1-0.448-1-1v-7c0-0.552 0.448-1 1-1z"></path>
<path fill="#dd2c03" style="fill: var(--color2, #dd2c03)" d="M16 26c0-0.552 0.448-1 1-1h8c0.552 0 1 0.448 1 1s-0.448 1-1 1h-8c-0.552 0-1-0.448-1-1z"></path>
</symbol>
<symbol id="icon-web" viewBox="0 0 37 32">
<title>web</title>
<path fill="#01111e" style="fill: var(--color3, #01111e)" d="M3.604 0h29.379c1.979 0.006 3.582 1.609 3.588 3.588v24.812c-0.006 1.986-1.614 3.594-3.6 3.6h-29.543c-1.894 0-3.429-1.535-3.429-3.429v-24.971c0.006-1.986 1.614-3.594 3.6-3.6h0.004zM3.606 2.286c-0.728 0.003-1.317 0.592-1.32 1.32v24.966c0 0.631 0.512 1.143 1.143 1.143h29.537c0.728-0.003 1.318-0.592 1.32-1.32v-24.801c-0.003-0.721-0.587-1.305-1.308-1.308h-29.372z"></path>
<path fill="#01111e" style="fill: var(--color3, #01111e)" d="M0 8c0-0.631 0.512-1.143 1.143-1.143h34.286c0.631 0 1.143 0.512 1.143 1.143s-0.512 1.143-1.143 1.143h-34.286c-0.631 0-1.143-0.512-1.143-1.143z"></path>
<path fill="#dd2c03" style="fill: var(--color2, #dd2c03)" d="M24.335 14.049c0.446-0.446 1.17-0.446 1.616 0l4.571 4.571c0.446 0.446 0.446 1.17 0 1.616l-4.571 4.571c-0.446 0.446-1.17 0.446-1.616 0s-0.446-1.17 0-1.616l3.763-3.763-3.763-3.763c-0.446-0.446-0.446-1.17 0-1.616z"></path>
<path fill="#dd2c03" style="fill: var(--color2, #dd2c03)" d="M12.237 14.049c0.446 0.446 0.446 1.17 0 1.616l-3.763 3.763 3.763 3.763c0.446 0.446 0.446 1.17 0 1.616s-1.17 0.446-1.616 0l-4.571-4.571c-0.446-0.446-0.446-1.17 0-1.616l4.571-4.571c0.446-0.446 1.17-0.446 1.616 0z"></path>
<path fill="#dd2c03" style="fill: var(--color2, #dd2c03)" d="M21.082 13.835c0.565 0.282 0.793 0.969 0.511 1.533l-4.571 9.143c-0.282 0.565-0.969 0.793-1.533 0.511s-0.793-0.969-0.511-1.533l4.571-9.143c0.282-0.565 0.969-0.793 1.533-0.511z"></path>
</symbol>
<symbol id="icon-mobile" viewBox="0 0 32 32">
<title>mobile</title>
<path fill="#dd2c03" style="fill: var(--color2, #dd2c03)" d="M23 16c-0.552 0-1 0.448-1 1v7c0 0.347-0.18 0.668-0.474 0.851s-0.663 0.199-0.973 0.044l-1.565-0.783c-0.321-0.161-0.698-0.167-1.024-0.017s-0.566 0.44-0.653 0.788c-0.112 0.449 0.048 0.922 0.409 1.21l0.008 0.006 5.052 4.125c0.428 0.349 0.491 0.979 0.142 1.407s-0.979 0.491-1.407 0.142l-5.049-4.122c-0.969-0.777-1.397-2.047-1.096-3.253zM15.37 24.399c0.234-0.937 0.88-1.718 1.758-2.122s1.891-0.387 2.754 0.045c0 0-0 0 0 0l0.118 0.059v-5.382c0-1.657 1.343-3 3-3s3 1.343 3 3v3.153l1.822 0.303c2.411 0.402 4.178 2.487 4.178 4.932v5.612c0 0.552-0.448 1-1 1s-1-0.448-1-1v-5.612c0-0 0 0 0 0-0-1.466-1.060-2.718-2.507-2.959 0 0 0 0 0 0l-2.657-0.443c-0.482-0.080-0.836-0.497-0.836-0.986v-4c0-0.552-0.448-1-1-1z"></path>
<path fill="#01111e" style="fill: var(--color3, #01111e)" d="M3 2c-0.552 0-1 0.448-1 1v18c0 0.552 0.448 1 1 1h2c0.552 0 1 0.448 1 1s-0.448 1-1 1h-2c-1.657 0-3-1.343-3-3v-18c0-1.657 1.343-3 3-3h10c1.657 0 3 1.343 3 3v2c0 0.552-0.448 1-1 1s-1-0.448-1-1v-2c0-0.552-0.448-1-1-1h-10z"></path>
<path fill="#01111e" style="fill: var(--color3, #01111e)" d="M0 19c0-0.552 0.448-1 1-1h4c0.552 0 1 0.448 1 1s-0.448 1-1 1h-4c-0.552 0-1-0.448-1-1z"></path>
<path fill="#01111e" style="fill: var(--color3, #01111e)" d="M0 5c0-0.552 0.448-1 1-1h14c0.552 0 1 0.448 1 1s-0.448 1-1 1h-14c-0.552 0-1-0.448-1-1z"></path>
<path fill="#01111e" style="fill: var(--color3, #01111e)" d="M11 10c-0.552 0-1 0.448-1 1v10c0 0.552 0.448 1 1 1s1 0.448 1 1c0 0.552-0.448 1-1 1-1.657 0-3-1.343-3-3v-10c0-1.657 1.343-3 3-3h18c1.657 0 3 1.343 3 3v6c0 0.552-0.448 1-1 1s-1-0.448-1-1v-6c0-0.552-0.448-1-1-1h-18z"></path>
<path fill="#01111e" style="fill: var(--color3, #01111e)" d="M13 8c0.552 0 1 0.448 1 1v12c0 0.552-0.448 1-1 1s-1-0.448-1-1v-12c0-0.552 0.448-1 1-1z"></path>
<path fill="#01111e" style="fill: var(--color3, #01111e)" d="M27 8c0.552 0 1 0.448 1 1v4c0 0.552-0.448 1-1 1s-1-0.448-1-1v-4c0-0.552 0.448-1 1-1z"></path>
</symbol>
<symbol id="icon-backend" viewBox="0 0 32 32">
<title>backend</title>
<path fill="#01111e" style="fill: var(--color3, #01111e)" d="M12.015 24.829c0.083-0.479 0.499-0.829 0.985-0.829h6c0.486 0 0.902 0.35 0.985 0.829l1 5.76-0.985 0.171v1h-8c-0.295 0-0.575-0.13-0.765-0.356s-0.271-0.524-0.22-0.815l1-5.76zM18.811 29.76l-0.653-3.76h-4.317l-0.653 3.76h5.623z"></path>
<path fill="#01111e" style="fill: var(--color3, #01111e)" d="M8 30.76c0-0.552 0.448-1 1-1h14c0.552 0 1 0.448 1 1s-0.448 1-1 1h-14c-0.552 0-1-0.448-1-1z"></path>
<path fill="#01111e" style="fill: var(--color3, #01111e)" d="M0 5.96c0-2.761 2.239-5 5-5h22c2.761 0 5 2.239 5 5v15.040c0 2.761-2.239 5-5 5h-22c-2.761 0-5-2.239-5-5v-15.040zM5 2.96c-1.657 0-3 1.343-3 3v15.040c0 1.657 1.343 3 3 3h22c1.657 0 3-1.343 3-3v-15.040c0-1.657-1.343-3-3-3h-22z"></path>
<path fill="#dd2c03" style="fill: var(--color2, #dd2c03)" d="M7 6.72c0.552 0 1 0.448 1 1v3.84c0 0.552-0.448 1-1 1s-1-0.448-1-1v-3.84c0-0.552 0.448-1 1-1z"></path>
<path fill="#dd2c03" style="fill: var(--color2, #dd2c03)" d="M19 6.72c0.552 0 1 0.448 1 1v3.84c0 0.552-0.448 1-1 1s-1-0.448-1-1v-3.84c0-0.552 0.448-1 1-1z"></path>
<path fill="#dd2c03" style="fill: var(--color2, #dd2c03)" d="M25 6.72c0.552 0 1 0.448 1 1v3.84c0 0.552-0.448 1-1 1s-1-0.448-1-1v-3.84c0-0.552 0.448-1 1-1z"></path>
<path fill="#dd2c03" style="fill: var(--color2, #dd2c03)" d="M25 14.4c0.552 0 1 0.448 1 1v3.84c0 0.552-0.448 1-1 1s-1-0.448-1-1v-3.84c0-0.552 0.448-1 1-1z"></path>
<path fill="#dd2c03" style="fill: var(--color2, #dd2c03)" d="M13 14.4c0.552 0 1 0.448 1 1v3.84c0 0.552-0.448 1-1 1s-1-0.448-1-1v-3.84c0-0.552 0.448-1 1-1z"></path>
<path fill="#dd2c03" style="fill: var(--color2, #dd2c03)" d="M7 14.4c0.552 0 1 0.448 1 1v3.84c0 0.552-0.448 1-1 1s-1-0.448-1-1v-3.84c0-0.552 0.448-1 1-1z"></path>
<path fill="#dd2c03" style="fill: var(--color2, #dd2c03)" d="M10 9.64c0-1.651 1.382-2.92 3-2.92s3 1.269 3 2.92c0 1.651-1.382 2.92-3 2.92s-3-1.269-3-2.92zM13 8.72c-0.591 0-1 0.45-1 0.92s0.409 0.92 1 0.92 1-0.45 1-0.92c0-0.47-0.409-0.92-1-0.92z"></path>
<path fill="#dd2c03" style="fill: var(--color2, #dd2c03)" d="M16 17.32c0-1.651 1.382-2.92 3-2.92s3 1.269 3 2.92c0 1.651-1.382 2.92-3 2.92s-3-1.269-3-2.92zM19 16.4c-0.591 0-1 0.45-1 0.92s0.409 0.92 1 0.92c0.591 0 1-0.45 1-0.92s-0.409-0.92-1-0.92z"></path>
</symbol>
<symbol id="icon-prototype" viewBox="0 0 31 32">
<title>prototype</title>
<path fill="#01111e" style="fill: var(--color3, #01111e)" d="M1.939 11.259c0.046-0.899 0.807-1.597 1.709-1.563 0.012 0 0.024 0.001 0.037 0.001h8.145c0.012 0 0.025-0 0.037-0.001 0.902-0.034 1.663 0.663 1.709 1.563v12.51c-0.138 3.060-2.719 5.438-5.782 5.323-0.024-0.001-0.049-0.001-0.073 0-3.063 0.115-5.644-2.263-5.782-5.323v-12.51zM3.702 7.758c-1.967-0.064-3.621 1.47-3.701 3.44-0.001 0.013-0.001 0.026-0.001 0.039v12.553c0 0.013 0 0.027 0.001 0.040 0.172 4.124 3.636 7.336 7.757 7.201 4.121 0.135 7.585-3.077 7.757-7.201 0.001-0.013 0.001-0.027 0.001-0.040v-12.553c0-0.013-0-0.026-0.001-0.039-0.080-1.969-1.734-3.504-3.701-3.44h-8.112z"></path>
<path fill="#01111e" style="fill: var(--color3, #01111e)" d="M0 15.515c0-0.536 0.434-0.97 0.97-0.97h13.576c0.536 0 0.97 0.434 0.97 0.97s-0.434 0.97-0.97 0.97h-13.576c-0.536 0-0.97-0.434-0.97-0.97z"></path>
<path fill="#dd2c03" style="fill: var(--color2, #dd2c03)" d="M27.151 0c0.341 0 0.656 0.179 0.831 0.471l2.909 4.848c0.090 0.151 0.138 0.323 0.138 0.499v13.899c0 0.020-0.001 0.040-0.002 0.060-0.126 2.029-1.852 3.58-3.877 3.496-2.025 0.084-3.751-1.467-3.877-3.496-0.001-0.020-0.002-0.040-0.002-0.060v-13.899c0-0.176 0.048-0.348 0.138-0.499l2.909-4.848c0.175-0.292 0.491-0.471 0.831-0.471zM25.212 6.087v13.597c0.075 0.97 0.911 1.705 1.886 1.651 0.036-0.002 0.072-0.002 0.107 0 0.974 0.054 1.811-0.681 1.886-1.651v-13.597l-1.939-3.232-1.939 3.232z"></path>
<path fill="#01111e" style="fill: var(--color3, #01111e)" d="M13.576 1.939c-2.678 0-4.848 2.171-4.848 4.848v8.727c0 0.536-0.434 0.97-0.97 0.97s-0.97-0.434-0.97-0.97v-8.727c0-3.749 3.039-6.788 6.788-6.788 1.8 0 3.527 0.715 4.8 1.988s1.988 2.999 1.988 4.8v18.424c0 1.607 1.302 2.909 2.909 2.909s2.909-1.302 2.909-2.909v-2.909c0-0.536 0.434-0.97 0.97-0.97s0.97 0.434 0.97 0.97v2.909c0 2.678-2.171 4.849-4.849 4.849s-4.849-2.171-4.849-4.849v-18.424c0-1.286-0.511-2.519-1.42-3.428s-2.142-1.42-3.428-1.42z"></path>
<path fill="#dd2c03" style="fill: var(--color2, #dd2c03)" d="M23.273 18.424c0-0.536 0.434-0.97 0.97-0.97h5.818c0.536 0 0.97 0.434 0.97 0.97s-0.434 0.97-0.97 0.97h-5.818c-0.536 0-0.97-0.434-0.97-0.97z"></path>
<path fill="#dd2c03" style="fill: var(--color2, #dd2c03)" d="M23.273 7.758c0-0.536 0.434-0.97 0.97-0.97h5.818c0.536 0 0.97 0.434 0.97 0.97s-0.434 0.97-0.97 0.97h-5.818c-0.536 0-0.97-0.434-0.97-0.97z"></path>
</symbol>
<symbol id="icon-design" viewBox="0 0 34 32">
<title>design</title>
<path fill="#000" style="fill: var(--color4, #000)" d="M12.842 7.134c-0.781-0.781-0.781-2.047 0-2.828l2.829-2.828c0.781-0.781 2.047-0.781 2.828 0l2.659 2.659c0.781 0.781 0.781 2.047 0 2.828l-2.828 2.828c-0.781 0.781-2.047 0.781-2.828 0l-2.659-2.659zM14.256 5.72l2.659 2.659 2.828-2.828-2.659-2.659-2.828 2.828z"></path>
<path fill="#000" style="fill: var(--color4, #000)" d="M1.67 17.859c-0.781-0.781-0.781-2.047 0-2.829l2.828-2.828c0.781-0.781 2.047-0.781 2.828 0l2.659 2.659c0.781 0.781 0.781 2.047 0 2.828l-2.828 2.829c-0.781 0.781-2.047 0.781-2.828 0l-2.659-2.659zM3.084 16.444l2.659 2.659 2.828-2.828-2.659-2.659-2.828 2.828z"></path>
<path fill="#000" style="fill: var(--color4, #000)" d="M24.013 17.859c-0.781-0.781-0.781-2.047 0-2.828l2.829-2.828c0.781-0.781 2.047-0.781 2.828 0l2.659 2.659c0.781 0.781 0.781 2.047 0 2.828l-2.828 2.828c-0.781 0.781-2.047 0.781-2.828 0l-2.659-2.659zM25.427 16.445l2.659 2.659 2.828-2.828-2.659-2.659-2.828 2.828z"></path>
<path fill="#000" style="fill: var(--color4, #000)" d="M15.6 6.979c0.383 0.398 0.37 1.031-0.029 1.414l-6.929 6.652c-0.398 0.383-1.031 0.37-1.414-0.029s-0.37-1.031 0.029-1.414l6.929-6.652c0.398-0.382 1.031-0.37 1.414 0.029z"></path>
<path fill="#000" style="fill: var(--color4, #000)" d="M18.4 6.979c0.382-0.398 1.015-0.411 1.414-0.029l6.929 6.652c0.398 0.382 0.411 1.015 0.029 1.414s-1.015 0.411-1.414 0.029l-6.929-6.652c-0.398-0.382-0.411-1.016-0.029-1.414z"></path>
<path fill="#dd2c03" style="fill: var(--color2, #dd2c03)" d="M18.968 12.981c-0.371-0.713-1.113-1.139-1.9-1.139s-1.529 0.427-1.9 1.139zM18.968 12.981l3.98 7.642c0 0 0 0 0 0 1.283 2.464 0.774 5.436-1.24 7.37-2.567 2.464-6.713 2.464-9.28 0-2.014-1.933-2.523-4.906-1.24-7.37zM15.169 12.981c0 0 0-0 0 0l-3.98 7.642zM16.056 13.443l0.887 0.462-3.98 7.642c-0.866 1.663-0.533 3.674 0.851 5.003 1.793 1.721 4.716 1.721 6.51 0zM20.323 26.549c1.384-1.329 1.717-3.34 0.851-5.003l-3.98-7.642c-0.012-0.024-0.054-0.063-0.126-0.063s-0.113 0.039-0.126 0.063l-0.887-0.462z"></path>
<path fill="#dd2c03" style="fill: var(--color2, #dd2c03)" d="M17.069 11.842c0.552 0 1 0.448 1 1v9.238c0 0.552-0.448 1-1 1s-1-0.448-1-1v-9.238c0-0.552 0.448-1 1-1z"></path>
<path fill="#dd2c03" style="fill: var(--color2, #dd2c03)" d="M10 30.76c0-0.552 0.448-1 1-1h12c0.552 0 1 0.448 1 1s-0.448 1-1 1h-12c-0.552 0-1-0.448-1-1z"></path>
</symbol>
<symbol id="icon-idea" viewBox="0 0 32 32">
<title>idea</title>
<path fill="#000" style="fill: var(--color4, #000)" d="M0.068 27.516c0-2.476 2.008-4.484 4.484-4.484s4.484 2.008 4.484 4.484c0 2.477-2.008 4.484-4.484 4.484s-4.484-2.008-4.484-4.484zM4.552 25.032c-1.372 0-2.484 1.112-2.484 2.484s1.112 2.484 2.484 2.484 2.484-1.112 2.484-2.484c0-1.372-1.112-2.484-2.484-2.484z"></path>
<path fill="#000" style="fill: var(--color4, #000)" d="M11.681 24.227c0-0.552 0.448-1 1-1h6.636c0.552 0 1 0.448 1 1v6.636c0 0.552-0.448 1-1 1h-6.636c-0.552 0-1-0.448-1-1v-6.636zM13.681 25.227v4.636h4.636v-4.636h-4.636z"></path>
<path fill="#000" style="fill: var(--color4, #000)" d="M26.949 22.563c0.366 0 0.703 0.2 0.878 0.521l3.983 7.3-0.878 0.479v1h-7.964c-0.353 0-0.68-0.186-0.86-0.489s-0.187-0.68-0.018-0.989l3.981-7.3c0.175-0.321 0.512-0.521 0.878-0.521zM29.247 29.863l-2.298-4.212-2.297 4.212h4.595z"></path>
<path fill="#dd2c03" style="fill: var(--color2, #dd2c03)" d="M20.977 6.113l-1-0.002c0.003-1.987-1.461-3.672-3.429-3.946s-3.837 0.947-4.376 2.86c-0.54 1.913 0.416 3.93 2.237 4.725 0.364 0.159 0.6 0.519 0.6 0.917v1.415h1.981v-1.415c0-0.398 0.236-0.758 0.601-0.917 1.448-0.631 2.384-2.059 2.386-3.638l2 0.003c0-0 0-0 0-0.001 0.005-2.986-2.195-5.518-5.153-5.93s-5.766 1.423-6.577 4.298zM13.009 11.281c-2.342-1.351-3.511-4.142-2.762-6.798z"></path>
<path fill="#000" style="fill: var(--color4, #000)" d="M3.719 17.259c0-0.552 0.448-1 1-1h22.563c0.552 0 1 0.448 1 1v3.317c0 0.552-0.448 1-1 1s-1-0.448-1-1v-2.317h-20.563v2.317c0 0.552-0.448 1-1 1s-1-0.448-1-1v-3.317z"></path>
<path fill="#dd2c03" style="fill: var(--color2, #dd2c03)" d="M25.366 6.972c0-0.552 0.448-1 1-1h1.991c0.552 0 1 0.448 1 1s-0.448 1-1 1h-1.991c-0.552 0-1-0.448-1-1z"></path>
<path fill="#dd2c03" style="fill: var(--color2, #dd2c03)" d="M25.248 10.83c0.391-0.39 1.024-0.39 1.414 0.001l1.407 1.408c0.39 0.391 0.39 1.024-0.001 1.414s-1.024 0.39-1.414-0.001l-1.407-1.408c-0.39-0.391-0.39-1.024 0.001-1.414z"></path>
<path fill="#dd2c03" style="fill: var(--color2, #dd2c03)" d="M28.068 0.293c0.391 0.39 0.391 1.024 0.001 1.414l-1.407 1.408c-0.39 0.391-1.023 0.391-1.414 0.001s-0.391-1.023-0.001-1.414l1.407-1.408c0.39-0.391 1.023-0.391 1.414-0.001z"></path>
<path fill="#dd2c03" style="fill: var(--color2, #dd2c03)" d="M2.643 6.972c0-0.552 0.448-1 1-1h1.991c0.552 0 1 0.448 1 1s-0.448 1-1 1h-1.991c-0.552 0-1-0.448-1-1z"></path>
<path fill="#dd2c03" style="fill: var(--color2, #dd2c03)" d="M6.752 10.83c0.391 0.39 0.391 1.024 0 1.414l-1.408 1.408c-0.391 0.39-1.024 0.39-1.414 0s-0.391-1.024 0-1.414l1.408-1.408c0.391-0.39 1.024-0.39 1.414 0z"></path>
<path fill="#dd2c03" style="fill: var(--color2, #dd2c03)" d="M3.93 0.293c0.391-0.391 1.024-0.391 1.414 0l1.408 1.408c0.391 0.391 0.391 1.024 0 1.414s-1.024 0.391-1.414 0l-1.408-1.408c-0.391-0.391-0.391-1.024 0-1.414z"></path>
<path fill="#000" style="fill: var(--color4, #000)" d="M16 12.082c0.552 0 1 0.448 1 1v6.832c0 0.552-0.448 1-1 1s-1-0.448-1-1v-6.832c0-0.552 0.448-1 1-1z"></path>
</symbol>
<symbol id="icon-research" viewBox="0 0 32 32">
<title>research</title>
<path fill="#000" style="fill: var(--color4, #000)" d="M3 5c0-2.761 2.239-5 5-5s5 2.239 5 5c0 2.761-2.239 5-5 5s-5-2.239-5-5zM8 2c-1.657 0-3 1.343-3 3s1.343 3 3 3c1.657 0 3-1.343 3-3s-1.343-3-3-3z"></path>
<path fill="#000" style="fill: var(--color4, #000)" d="M4.902 10.625c2.969-1.248 6.397-0.593 8.698 1.66 0.395 0.386 0.401 1.020 0.015 1.414s-1.020 0.401-1.414 0.015c-1.726-1.69-4.297-2.181-6.524-1.245s-3.676 3.115-3.677 5.531v2h2c0.514 0 0.944 0.389 0.995 0.901l0.91 9.1h4.19l0.291-2.9c0.055-0.549 0.545-0.95 1.095-0.895s0.95 0.545 0.895 1.095l-0.381 3.8c-0.051 0.511-0.481 0.9-0.995 0.9h-6c-0.514 0-0.944-0.389-0.995-0.901l-0.91-9.099h-2.095c-0.552 0-1-0.448-1-1v-3c0.001-3.221 1.933-6.127 4.902-7.375z"></path>
<path fill="#dd2c03" style="fill: var(--color2, #dd2c03)" d="M13 21c0-4.418 3.582-8 8-8s8 3.582 8 8c0 4.418-3.582 8-8 8s-8-3.582-8-8zM21 15c-3.314 0-6 2.686-6 6s2.686 6 6 6c3.314 0 6-2.686 6-6s-2.686-6-6-6z"></path>
<path fill="#dd2c03" style="fill: var(--color2, #dd2c03)" d="M25.244 25.242c0.39-0.39 1.024-0.39 1.414 0l5.049 5.051c0.39 0.39 0.39 1.024-0 1.414s-1.024 0.39-1.414-0l-5.049-5.051c-0.39-0.39-0.39-1.024 0-1.414z"></path>
<path fill="#000" style="fill: var(--color4, #000)" d="M17.5 4.5c0-2.485 2.015-4.5 4.5-4.5s4.5 2.015 4.5 4.5c0 2.485-2.015 4.5-4.5 4.5s-4.5-2.015-4.5-4.5zM22 2c-1.381 0-2.5 1.119-2.5 2.5s1.119 2.5 2.5 2.5c1.381 0 2.5-1.119 2.5-2.5s-1.119-2.5-2.5-2.5z"></path>
<path fill="#000" style="fill: var(--color4, #000)" d="M16.734 10.395c1.486-1.701 3.702-2.58 5.95-2.361s4.252 1.509 5.382 3.465c0.276 0.478 0.113 1.090-0.366 1.366s-1.090 0.113-1.366-0.366c-0.807-1.397-2.239-2.319-3.844-2.475s-3.188 0.472-4.25 1.686c-0.363 0.416-0.995 0.458-1.411 0.095s-0.458-0.995-0.095-1.411z"></path>
</symbol>
<symbol id="icon-linkedin1" viewBox="0 0 32 32">
<title>linkedin1</title>
<path d="M29 0h-26c-1.65 0-3 1.35-3 3v26c0 1.65 1.35 3 3 3h26c1.65 0 3-1.35 3-3v-26c0-1.65-1.35-3-3-3zM12 26h-4v-14h4v14zM10 10c-1.106 0-2-0.894-2-2s0.894-2 2-2c1.106 0 2 0.894 2 2s-0.894 2-2 2zM26 26h-4v-8c0-1.106-0.894-2-2-2s-2 0.894-2 2v8h-4v-14h4v2.481c0.825-1.131 2.087-2.481 3.5-2.481 2.488 0 4.5 2.238 4.5 5v9z"></path>
</symbol>
<symbol id="icon-twitter" viewBox="0 0 32 32">
<title>twitter</title>
<path d="M32 7.075c-1.175 0.525-2.444 0.875-3.769 1.031 1.356-0.813 2.394-2.1 2.887-3.631-1.269 0.75-2.675 1.3-4.169 1.594-1.2-1.275-2.906-2.069-4.794-2.069-3.625 0-6.563 2.938-6.563 6.563 0 0.512 0.056 1.012 0.169 1.494-5.456-0.275-10.294-2.888-13.531-6.862-0.563 0.969-0.887 2.1-0.887 3.3 0 2.275 1.156 4.287 2.919 5.463-1.075-0.031-2.087-0.331-2.975-0.819 0 0.025 0 0.056 0 0.081 0 3.181 2.263 5.838 5.269 6.437-0.55 0.15-1.131 0.231-1.731 0.231-0.425 0-0.831-0.044-1.237-0.119 0.838 2.606 3.263 4.506 6.131 4.563-2.25 1.762-5.075 2.813-8.156 2.813-0.531 0-1.050-0.031-1.569-0.094 2.913 1.869 6.362 2.95 10.069 2.95 12.075 0 18.681-10.006 18.681-18.681 0-0.287-0.006-0.569-0.019-0.85 1.281-0.919 2.394-2.075 3.275-3.394z"></path>
</symbol>
</defs>
</svg>
