<svg width="124" height="31" viewBox="0 0 124 31" fill="none" xmlns="http://www.w3.org/2000/svg">
<path fill-rule="evenodd" clip-rule="evenodd" d="M47.0564 29.7906C47.5306 29.7906 47.7673 29.5406 47.7673 29.0415V26.4211C47.7673 25.922 47.5306 25.6724 47.0564 25.6724L37.1917 25.6714C38.1409 23.2771 44.2153 17.4472 46.3047 14.1254C47.081 12.8915 47.4751 11.9384 47.4751 11.3167C47.4751 10.5957 47.1275 8.98682 44.6745 8.98682H33.0927C32.6194 8.98682 32.3821 9.23672 32.3821 9.73589V12.3157C32.3821 12.8145 32.6194 13.0645 33.0927 13.0645L41.9154 13.0641C41.4723 13.9157 35.6192 20.1346 33.4505 23.8404C32.8804 24.8145 32.0919 26.3611 32.0919 27.5436C32.0919 29.0415 32.9833 29.7906 34.7672 29.7906H47.0564ZM72.64 16.185C72.64 14.5595 71.6216 12.147 68.5775 12.147C67.4353 12.147 64.4515 12.589 63.9872 17.1419H71.7624C72.3473 17.1419 72.64 16.8237 72.64 16.185V16.185ZM72.4729 20.9282H63.7777C63.7777 23.6855 65.6908 26.1293 68.7939 26.1293C70.6887 26.1293 72.3895 25.4776 73.8941 24.1732C74.3975 23.6721 74.7605 24.2412 74.7724 24.2568C74.7724 24.2568 76.241 26.3259 76.444 26.6074C76.4969 26.6987 76.57 26.9196 76.2353 27.2525C74.2558 29.2227 71.7341 30.2067 68.6685 30.2067C62.3444 30.2067 59.0963 25.0659 59.0963 19.2226C59.0963 12.2039 63.6148 8.27979 68.7525 8.27979C73.1752 8.27979 77.0296 11.6409 77.0296 16.3099C77.0296 19.3886 75.5096 20.9282 72.4729 20.9282V20.9282ZM112.97 12.8569C113.445 12.8569 113.681 12.607 113.681 12.1078V9.73039C113.681 9.23122 113.445 8.98738 112.97 8.98738H107.871V4.12524C107.871 3.65415 107.62 3.41797 107.119 3.41797H103.858C103.356 3.41797 103.105 3.65415 103.105 4.12524V8.98738H100.388C99.9148 8.98738 99.6775 9.23122 99.6775 9.73039V12.1078C99.6775 12.607 99.9148 12.8569 100.388 12.8569L103.105 12.8566V22.8426C103.105 25.8143 104.219 27.4469 104.777 28.0849C105.334 28.7232 106.752 30.131 109.626 30.1237C112.188 30.117 114.298 28.7088 115.186 27.7935C115.537 27.4322 115.477 27.2257 115.285 26.977C115.231 26.9068 113.64 24.8396 113.64 24.8396C113.406 24.5173 113.002 24.5361 112.762 24.7563C112.19 25.2252 110.971 26.2656 109.323 25.656C108.125 25.2127 107.871 23.8824 107.871 22.8841V12.8569H112.97ZM80.2481 29.0836C80.2481 29.5556 80.4988 29.7912 81.0004 29.7912H84.2612C84.763 29.7912 85.0138 29.5556 85.0138 29.0836V13.398C85.9873 12.7398 89.0311 11.7185 91.2434 13.013C92.5854 13.7988 93.0914 15.9398 93.0814 18.4321L93.0811 29.0836C93.0811 29.5556 93.3319 29.7912 93.8334 29.7912H97.0946C97.5958 29.7912 97.8472 29.5556 97.8472 29.0836V18.0992C97.8472 11.6087 94.8647 8.32932 88.9012 8.28017C86.0127 8.25623 82.8131 9.35894 81.1261 10.8182C80.5444 11.3215 80.2484 11.9279 80.2484 12.6489L80.2481 29.0836ZM54.8742 8.98682H51.6133C51.1118 8.98682 50.8611 9.223 50.8611 9.6944V29.083C50.8611 29.555 51.1118 29.7906 51.6133 29.7906H54.8742C55.3757 29.7906 55.6268 29.555 55.6268 29.083V9.6944C55.6268 9.223 55.3757 8.98682 54.8742 8.98682V8.98682ZM27.6608 8.98682H24.4C23.8985 8.98682 23.6474 9.223 23.6474 9.6944V29.083C23.6474 29.555 23.8985 29.7906 24.4 29.7906H27.6608C28.1624 29.7906 28.4131 29.555 28.4131 29.083V9.6944C28.4131 9.223 28.1624 8.98682 27.6608 8.98682V8.98682ZM53.2439 0C51.6508 0 50.3595 1.28527 50.3595 2.8712C50.3595 4.45648 51.6508 5.74176 53.2439 5.74176C54.8366 5.74176 56.1279 4.45648 56.1279 2.8712C56.1279 1.28527 54.8366 0 53.2439 0V0ZM26.0303 0C24.4373 0 23.1459 1.28527 23.1459 2.8712C23.1459 4.45648 24.4373 5.74176 26.0303 5.74176C27.6234 5.74176 28.9147 4.45648 28.9147 2.8712C28.9147 1.28527 27.6234 0 26.0303 0V0ZM8.06277 28.9167C2.55309 22.4504 0.0381142 9.82303 0.0111783 9.6727C-0.0436555 9.3663 0.0923066 8.98682 0.663733 8.98682H4.21703C4.57874 8.98682 4.80801 9.16619 4.88561 9.5278C6.31354 16.16 9.05426 22.5107 10.3619 24.2984C11.6696 22.5107 14.41 16.16 15.8383 9.5278C15.9159 9.16619 16.1451 8.98682 16.5069 8.98682H20.0601C20.6316 8.98682 20.7675 9.3663 20.7127 9.6727C20.6861 9.82303 18.1708 22.4504 12.6611 28.9167C12.047 29.6374 11.3137 29.9983 10.3616 29.9983C9.4102 29.9983 8.67684 29.6374 8.06277 28.9167V28.9167Z" fill="#FF4E02"/>
<path fill-rule="evenodd" clip-rule="evenodd" d="M122.948 26.6089L122.01 28.5571L121.053 26.6089H120.618V29.7903H121.04V27.3953L121.83 29.0084H122.18L122.962 27.3685V29.7903H123.388V26.6089H122.948ZM117.687 26.6089L117.633 26.9798H118.665V29.7903H119.11V26.9798H120.093L120.147 26.6089H117.687Z" fill="#FF4E02"/>
</svg>
