<svg width="148" height="21" viewBox="0 0 148 21" fill="none" xmlns="http://www.w3.org/2000/svg">
<g clip-path="url(#clip0)">
<path d="M54.0261 0.000223047H49.3441C49.1767 0.00743768 49.0154 0.0668021 48.8811 0.170552C48.7469 0.274302 48.646 0.417607 48.5916 0.581723L45.0085 13.1727C44.9169 13.4902 44.7656 13.4902 44.6741 13.1727L41.0471 0.581723C40.9923 0.417913 40.8913 0.274918 40.7571 0.171245C40.623 0.0675728 40.4618 0.0079952 40.2946 0.000223047H35.5808C35.513 -0.00514951 35.4449 0.00758441 35.3832 0.0372091C35.3214 0.0668338 35.268 0.11236 35.2281 0.169442C35.1882 0.226524 35.163 0.293256 35.1551 0.363267C35.1471 0.433278 35.1566 0.50423 35.1827 0.569351L42.3132 20.4311C42.3802 20.5944 42.4906 20.7346 42.6316 20.8353C42.7726 20.9361 42.9383 20.9933 43.1094 21.0002H46.5811C46.7522 20.9933 46.9179 20.9361 47.0589 20.8353C47.1999 20.7346 47.3103 20.5944 47.3773 20.4311L54.4242 0.569351C54.4503 0.50423 54.4598 0.433278 54.4518 0.363267C54.4439 0.293256 54.4187 0.226524 54.3788 0.169442C54.3389 0.11236 54.2855 0.0668338 54.2237 0.0372091C54.162 0.00758441 54.0939 -0.00514951 54.0261 0.000223047V0.000223047Z" fill="#1C4F96"/>
<path d="M102.012 0.569128C101.945 0.405854 101.835 0.26567 101.694 0.164908C101.553 0.0641463 101.387 0.00695582 101.216 0L97.7602 0C97.589 0.00695582 97.4233 0.0641463 97.2823 0.164908C97.1414 0.26567 97.0309 0.405854 96.9639 0.569128L89.9171 20.4309C89.891 20.496 89.8815 20.5669 89.8894 20.637C89.8974 20.707 89.9225 20.7737 89.9625 20.8308C90.0024 20.8879 90.0558 20.9334 90.1175 20.963C90.1793 20.9926 90.2473 21.0054 90.3152 21H94.9972C95.1644 20.9922 95.3255 20.9327 95.4596 20.829C95.5938 20.7253 95.6948 20.5823 95.7496 20.4185L99.3328 7.82757C99.4244 7.50589 99.5717 7.50589 99.6672 7.82757L103.298 20.4185C103.353 20.5823 103.454 20.7253 103.588 20.829C103.722 20.9327 103.883 20.9922 104.051 21H108.764C108.832 21.0054 108.9 20.9926 108.962 20.963C109.024 20.9334 109.077 20.8879 109.117 20.8308C109.157 20.7737 109.182 20.707 109.19 20.637C109.198 20.5669 109.189 20.496 109.163 20.4309L102.012 0.569128Z" fill="#1C4F96"/>
<path d="M62.9044 0H58.5091C58.1859 0 57.9238 0.271425 57.9238 0.606245V20.3938C57.9238 20.7286 58.1859 21 58.5091 21H62.9044C63.2276 21 63.4897 20.7286 63.4897 20.3938V0.606245C63.4897 0.271425 63.2276 0 62.9044 0Z" fill="#1C4F96"/>
<path d="M86.5129 0H82.1335C81.9783 0 81.8294 0.0638721 81.7197 0.177565C81.6099 0.291258 81.5482 0.445459 81.5482 0.606245V10.0917C81.5482 10.4258 81.385 10.4835 81.182 10.2196L73.7569 0.474273C73.6368 0.33458 73.4913 0.220787 73.3287 0.139406C73.1661 0.0580249 72.9896 0.0106526 72.8093 0L69.6243 0C69.4691 0 69.3202 0.0638721 69.2105 0.177565C69.1007 0.291258 69.0391 0.445459 69.0391 0.606245V20.402C69.0401 20.5625 69.1021 20.716 69.2116 20.8295C69.3212 20.9429 69.4694 21.0072 69.6243 21.0082H74.0037C74.1586 21.0072 74.3069 20.9429 74.4164 20.8295C74.5259 20.716 74.5879 20.5625 74.589 20.402V11.2836C74.589 10.9495 74.7562 10.8712 74.9552 11.1475L82.2728 20.5257C82.5174 20.8074 82.8593 20.9778 83.2244 21H86.481C86.6359 20.9989 86.7842 20.9347 86.8937 20.8212C87.0033 20.7078 87.0652 20.5542 87.0663 20.3938V0.597997C87.0645 0.444196 87.0063 0.296854 86.9036 0.185819C86.8008 0.0747847 86.6612 0.00835942 86.5129 0V0Z" fill="#1C4F96"/>
<path d="M125.013 0H108.945C108.868 0 108.792 0.015681 108.721 0.0461477C108.65 0.0766143 108.585 0.12127 108.531 0.177565C108.476 0.23386 108.433 0.300692 108.404 0.374245C108.375 0.447798 108.359 0.526632 108.359 0.606245V4.42105C108.359 4.50067 108.375 4.5795 108.404 4.65305C108.433 4.72661 108.476 4.79344 108.531 4.84973C108.585 4.90603 108.65 4.95068 108.721 4.98115C108.792 5.01162 108.868 5.0273 108.945 5.0273H113.627C113.782 5.0273 113.931 5.09117 114.04 5.20486C114.15 5.31856 114.212 5.47276 114.212 5.63354V20.3938C114.213 20.5542 114.275 20.7078 114.384 20.8212C114.494 20.9347 114.642 20.9989 114.797 21H119.196C119.351 20.9979 119.499 20.9333 119.608 20.8201C119.717 20.7068 119.78 20.5539 119.782 20.3938V5.63354C119.782 5.47276 119.843 5.31856 119.953 5.20486C120.063 5.09117 120.212 5.0273 120.367 5.0273H125.013C125.168 5.0273 125.317 4.96343 125.427 4.84973C125.537 4.73604 125.598 4.58184 125.598 4.42105V0.606245C125.598 0.445459 125.537 0.291258 125.427 0.177565C125.317 0.0638721 125.168 0 125.013 0V0Z" fill="#1C4F96"/>
<path d="M31.6278 0H21.0774C20.7542 0 20.4922 0.271425 20.4922 0.606245V4.42105C20.4922 4.75587 20.7542 5.0273 21.0774 5.0273H31.6278C31.951 5.0273 32.2131 4.75587 32.2131 4.42105V0.606245C32.2131 0.271425 31.951 0 31.6278 0Z" fill="#1C4F96"/>
<path d="M34.0046 15.9727H21.0774C20.7542 15.9727 20.4922 16.2441 20.4922 16.5789V20.3937C20.4922 20.7285 20.7542 21 21.0774 21H34.0046C34.3279 21 34.5899 20.7285 34.5899 20.3937V16.5789C34.5899 16.2441 34.3279 15.9727 34.0046 15.9727Z" fill="#1C4F96"/>
<path d="M29.4023 7.98438H21.0774C20.7542 7.98438 20.4922 8.2558 20.4922 8.59062V12.4054C20.4922 12.7402 20.7542 13.0117 21.0774 13.0117H29.4023C29.7255 13.0117 29.9875 12.7402 29.9875 12.4054V8.59062C29.9875 8.2558 29.7255 7.98438 29.4023 7.98438Z" fill="#1C4F96"/>
<path d="M145.051 0H129.683C129.36 0 129.098 0.271425 129.098 0.606245V4.42105C129.098 4.75587 129.36 5.0273 129.683 5.0273H145.051C145.374 5.0273 145.636 4.75587 145.636 4.42105V0.606245C145.636 0.271425 145.374 0 145.051 0Z" fill="#1C4F96"/>
<path d="M147.416 15.9727H129.683C129.36 15.9727 129.098 16.2441 129.098 16.5789V20.3937C129.098 20.7285 129.36 21 129.683 21H147.416C147.739 21 148.001 20.7285 148.001 20.3937V16.5789C148.001 16.2441 147.739 15.9727 147.416 15.9727Z" fill="#1C4F96"/>
<path d="M142.809 7.98438H129.683C129.36 7.98438 129.098 8.2558 129.098 8.59062V12.4054C129.098 12.7402 129.36 13.0117 129.683 13.0117H142.809C143.132 13.0117 143.394 12.7402 143.394 12.4054V8.59062C143.394 8.2558 143.132 7.98438 142.809 7.98438Z" fill="#1C4F96"/>
<path d="M13.5363 13.7952C13.4559 13.6483 13.4247 13.4779 13.4478 13.3107C13.4709 13.1436 13.5468 12.989 13.6637 12.8714C14.3342 12.2357 14.9098 11.5005 15.3717 10.6897C15.8875 9.6312 16.1522 8.4606 16.1441 7.27494C16.1401 6.36624 15.9657 5.467 15.6305 4.62726C15.2966 3.76857 14.8181 2.97819 14.2171 2.29301C13.6051 1.60662 12.8729 1.04683 12.0593 0.643362C11.3663 0.344775 10.6356 0.15035 9.88949 0.0659859C9.55507 0.0288688 9.04546 0 8.72298 0H0.585248C0.43003 0 0.28117 0.0638721 0.171415 0.177565C0.0616598 0.291258 0 0.445459 0 0.606245L0 20.402C0.0010431 20.5625 0.0630379 20.716 0.172568 20.8295C0.282098 20.943 0.430353 21.0072 0.585248 21.0083H4.96465C5.04403 21.011 5.12312 20.9972 5.19719 20.9675C5.27126 20.9378 5.33877 20.8929 5.39567 20.8355C5.45256 20.7781 5.49767 20.7094 5.52828 20.6335C5.55889 20.5576 5.57437 20.476 5.57379 20.3938V15.1561C5.57483 14.9957 5.63683 14.8421 5.74636 14.7286C5.85589 14.6152 6.00414 14.551 6.15904 14.5499H7.07473C7.25195 14.5549 7.42534 14.6045 7.57999 14.6943C7.73463 14.7841 7.86592 14.9114 7.96255 15.0654L11.2033 20.4845C11.3059 20.6334 11.4391 20.7568 11.5933 20.846C11.7476 20.9351 11.9189 20.9877 12.0951 21H17.2031C17.5256 21 17.649 20.7649 17.4818 20.4804L13.5363 13.7952ZM10.0368 8.93284C9.61478 9.46072 8.81455 9.52259 8.49206 9.52259H6.15107C5.99757 9.51937 5.85134 9.4542 5.74351 9.34097C5.63569 9.22774 5.57479 9.07539 5.57379 8.91634V5.61705C5.57483 5.45659 5.63683 5.30302 5.74636 5.18956C5.85589 5.0761 6.00414 5.01188 6.15904 5.0108H8.36068C8.94226 5.00957 9.50583 5.21973 9.95319 5.60467C10.3281 6.07075 10.5124 6.67011 10.4668 7.27494C10.5112 7.8623 10.3594 8.44762 10.0368 8.93284V8.93284Z" fill="#1C4F96"/>
</g>
<defs>
<clipPath id="clip0">
<rect width="148" height="21" fill="white"/>
</clipPath>
</defs>
</svg>
