<svg width="144" height="26" viewBox="0 0 144 26" fill="none" xmlns="http://www.w3.org/2000/svg">
<g clip-path="url(#clip0)">
<path d="M53.47 1.85525C54.9562 3.09356 55.6994 4.86782 55.6994 7.17805C55.738 8.6023 55.3069 9.9985 54.4755 11.1425C53.6451 12.2481 52.4781 13.0399 51.1584 13.3931V13.4638C51.9851 13.7546 52.7129 14.2811 53.2559 14.9811C53.7691 15.6599 54.3169 16.7966 54.8993 18.3913L57.3817 25.428H51.7898L49.7961 19.3918C49.329 18.0106 48.7869 17.0536 48.1699 16.5206C47.5529 15.9875 46.6382 15.7196 45.4259 15.7166H42.5953V25.4346H37.4531V0H46.6173C49.6937 0 51.9779 0.618417 53.47 1.85525ZM42.5953 11.5357H46.2324C49.0998 11.5357 50.5334 10.2841 50.5334 7.78101C50.5334 5.42513 49.0068 4.2472 45.9535 4.2472H42.5953V11.5357Z" fill="#3A4757"/>
<path d="M71.5307 7.89156C72.8855 8.66856 73.9859 9.83628 74.6943 11.2487C75.4382 12.702 75.8101 14.4048 75.8101 16.3572C75.8101 18.3097 75.4374 20.0118 74.6921 21.4636C73.9838 22.8761 72.8834 24.0438 71.5286 24.8207C70.1648 25.607 68.5625 26.0001 66.7216 26.0001C64.8806 26.0001 63.2776 25.607 61.9124 24.8207C60.5575 24.0439 59.457 22.8761 58.7488 21.4636C58.0021 20.0118 57.6294 18.3097 57.6309 16.3572C57.6323 14.4048 58.005 12.7027 58.7488 11.2509C59.4571 9.83841 60.5576 8.67066 61.9124 7.89376C63.2762 7.10749 64.8792 6.71436 66.7216 6.71436C68.5639 6.71436 70.167 7.10676 71.5307 7.89156ZM63.8369 12.1432C63.1262 13.1915 62.7709 14.5962 62.7709 16.3572C62.7709 18.1183 63.1262 19.5229 63.8369 20.5713C64.1544 21.0551 64.5837 21.4516 65.0868 21.7257C65.5899 21.9999 66.1513 22.1433 66.7216 22.1433C67.2918 22.1433 67.8532 21.9999 68.3563 21.7257C68.8594 21.4516 69.2887 21.0551 69.6062 20.5713C70.3169 19.5244 70.6722 18.1197 70.6722 16.3572C70.6722 14.5947 70.3169 13.1901 69.6062 12.1432C69.2887 11.6594 68.8594 11.2629 68.3563 10.9888C67.8532 10.7146 67.2918 10.5712 66.7216 10.5712C66.1513 10.5712 65.5899 10.7146 65.0868 10.9888C64.5837 11.2629 64.1544 11.6594 63.8369 12.1432V12.1432Z" fill="#3A4757"/>
<path d="M78.2617 25.428V0H83.1617V25.428H78.2617Z" fill="#3A4757"/>
<path d="M86.5488 25.428V0H91.4445V25.428H86.5488Z" fill="#3A4757"/>
<path d="M99.7649 9.46398C100.3 8.63184 101.043 7.96025 101.917 7.51818C102.81 7.05506 103.799 6.81655 104.801 6.82246C106.178 6.79443 107.529 7.2068 108.665 8.00187C109.813 8.84076 110.699 10.0004 111.217 11.3413C111.839 12.9363 112.142 14.6426 112.108 16.3593C112.143 18.0777 111.834 19.7853 111.2 21.3773C110.667 22.7221 109.766 23.8816 108.605 24.7168C107.458 25.5126 106.098 25.9248 104.712 25.8962C103.687 25.9019 102.677 25.6436 101.776 25.1453C100.881 24.6567 100.134 23.9282 99.6136 23.0382H99.5444V25.4302H94.7871V0H99.6828V9.46398H99.7649ZM100.461 12.1607C99.7851 13.1737 99.4471 14.5725 99.4471 16.3571C99.4471 18.1417 99.7851 19.5405 100.461 20.5535C101.137 21.5651 102.035 22.0708 103.153 22.0708C104.318 22.0708 105.251 21.5555 105.952 20.5248C106.652 19.4941 107.002 18.1071 107 16.3637C107 14.6263 106.651 13.2393 105.952 12.2027C105.252 11.1661 104.32 10.6508 103.153 10.6566C102.038 10.6463 101.14 11.1477 100.461 12.1607Z" fill="#3A4757"/>
<path d="M127.881 8.51636C129.162 9.71933 129.803 11.5113 129.803 13.8922V20.4606C129.803 22.5088 129.966 24.1638 130.292 25.4256H125.887C125.713 24.6284 125.631 23.813 125.643 22.9961H125.574C124.267 24.9015 122.344 25.8541 119.804 25.8541C117.962 25.8541 116.493 25.3388 115.397 24.3081C114.861 23.8098 114.437 23.1992 114.154 22.518C113.87 21.8369 113.734 21.1012 113.754 20.3612C113.754 18.8137 114.284 17.5622 115.345 16.6066C116.406 15.651 118.172 14.9722 120.643 14.5702C122.135 14.3332 123.616 14.1668 125.085 14.0711V13.4284C125.085 12.3329 124.828 11.523 124.315 10.9989C123.802 10.4747 123.091 10.2126 122.183 10.2126C121.273 10.2126 120.568 10.4563 120.068 10.9436C119.546 11.4806 119.251 12.2055 119.246 12.9623H114.489C114.512 12.1042 114.711 11.2604 115.072 10.4853C115.433 9.71008 115.949 9.02063 116.587 8.46115C117.893 7.29499 119.757 6.71191 122.181 6.71191C124.698 6.71339 126.598 7.31487 127.881 8.51636ZM121.517 17.4989C120.491 17.6888 119.756 17.9745 119.313 18.3558C118.871 18.7372 118.65 19.2849 118.65 19.999C118.637 20.31 118.691 20.6199 118.809 20.9069C118.927 21.1939 119.105 21.451 119.331 21.6599C119.785 22.0766 120.434 22.285 121.277 22.285C121.807 22.2863 122.333 22.196 122.834 22.0177C123.299 21.8611 123.724 21.5983 124.075 21.2491C124.456 20.8702 124.734 20.3958 124.879 19.8731C125.04 19.1893 125.113 18.4869 125.096 17.7838V17.1057C123.689 17.2014 122.496 17.3325 121.517 17.4989Z" fill="#3A4757"/>
<path d="M143.999 7.20906V11.5358C143.492 11.4303 142.977 11.3704 142.459 11.3569C140.967 11.3569 139.825 11.8273 139.032 12.7682C138.239 13.7091 137.843 15.0725 137.843 16.8586V25.4303H132.949V7.28415H137.46V9.85942H137.529C138.026 8.96797 138.739 8.22246 139.601 7.69496C140.452 7.21878 141.411 6.9789 142.382 6.99924C142.928 6.99157 143.472 7.06219 143.999 7.20906V7.20906Z" fill="#3A4757"/>
<path d="M30.9351 25.3926V3.20031C30.8789 1.78457 30.8314 -0.368841 27.7435 0.918791C22.5732 2.85134 17.3748 4.71101 12.2543 6.76725C8.37277 8.32433 4.12151 10.0338 1.93318 18.3758C1.36014 20.5624 0.573033 23.2083 0 25.3948H5.02539C5.48814 23.6279 6.06767 21.3994 6.53907 19.6325C8.1068 13.6692 11.1839 12.4235 13.9928 11.2949C18.0235 9.67601 22.1104 8.20286 26.1779 6.6789V25.397L30.9351 25.3926Z" fill="#3A4757"/>
<path fill-rule="evenodd" clip-rule="evenodd" d="M12.1182 13.4751C11.6047 13.7608 11.1239 14.1038 10.6845 14.4977C9.17083 15.8781 8.3448 17.8482 7.82799 19.8139L6.39648 25.2162H12.1182V13.4751Z" fill="#F7941D"/>
<path fill-rule="evenodd" clip-rule="evenodd" d="M18.3415 10.8931C17.044 11.3849 15.7552 11.8877 14.4751 12.4016C14.1313 12.5385 13.7918 12.6754 13.4609 12.819V25.216H18.3415V10.8931Z" fill="#BFD730"/>
<path fill-rule="evenodd" clip-rule="evenodd" d="M24.826 25.2158V8.46777C23.1112 9.10386 21.3943 9.73994 19.6816 10.3849V25.2158H24.826Z" fill="#00BAD9"/>
</g>
<defs>
<clipPath id="clip0">
<rect width="144" height="26" fill="white"/>
</clipPath>
</defs>
</svg>
