<svg width="173" height="46" viewBox="0 0 173 46" fill="none" xmlns="http://www.w3.org/2000/svg">
<path d="M171.716 20.3128C171.198 19.7953 170.537 19.5078 169.79 19.5078C169.042 19.5078 168.41 19.7666 167.864 20.3128C167.346 20.8303 167.059 21.4915 167.059 22.239C167.059 22.9865 167.317 23.6189 167.864 24.1652C168.381 24.6826 169.042 24.9701 169.79 24.9701C170.537 24.9701 171.17 24.7114 171.716 24.1652C172.233 23.6477 172.521 22.9865 172.521 22.239C172.492 21.4627 172.233 20.8303 171.716 20.3128ZM171.716 23.7339C171.543 23.7339 171.371 23.6477 171.17 23.5039C170.997 23.3889 170.825 23.2164 170.652 23.0152L170.163 22.4402C170.451 22.4115 170.681 22.2965 170.853 22.124C171.026 21.9515 171.112 21.7502 171.112 21.4915C171.112 21.204 170.997 20.974 170.796 20.8015C170.595 20.629 170.307 20.5428 169.962 20.5428H168.266V20.7153C168.525 20.7153 168.697 20.7728 168.755 20.8878C168.841 21.0028 168.87 21.2328 168.87 21.6352V22.8714C168.87 23.2452 168.841 23.5039 168.755 23.6189C168.669 23.7339 168.525 23.7914 168.266 23.7914V23.9352H169.991V23.7914C169.732 23.7914 169.56 23.7339 169.502 23.6189C169.416 23.5039 169.387 23.2739 169.387 22.8714V22.4977H169.646L170.71 23.9352H171.572C171.342 24.1652 171.083 24.3664 170.767 24.5101C170.451 24.6539 170.135 24.7114 169.79 24.7114C169.129 24.7114 168.554 24.4814 168.065 23.9927C167.576 23.5039 167.346 22.929 167.346 22.2677C167.346 21.6065 167.576 21.0315 168.065 20.5428C168.554 20.054 169.129 19.8241 169.79 19.8241C170.451 19.8241 171.026 20.054 171.515 20.5428C172.003 21.0315 172.233 21.6065 172.233 22.2677C172.233 22.7852 172.061 23.3027 171.716 23.7339ZM169.905 22.1815H169.387V20.8303H169.905C170.106 20.8303 170.279 20.8878 170.393 21.0315C170.48 21.1465 170.537 21.319 170.537 21.4915C170.537 21.6927 170.48 21.8365 170.365 21.9802C170.25 22.124 170.106 22.1815 169.905 22.1815Z" fill="#292B2D"/>
<path d="M41.0218 33.7096H40.2456H40.1594L40.1306 33.6234L35.5595 23.0724C34.8695 21.4337 34.2083 20.8588 33.0584 20.8588H32.9434V20.7438V19.9675V19.8525H33.0584H40.0444H40.1594V19.9675V20.7438V20.8588H40.0444C39.2969 20.8588 38.8082 21.0313 38.6069 21.3475C38.3769 21.6925 38.4344 22.2387 38.7794 22.9862L41.4243 29.0522H41.1943L44.328 19.9388L44.3567 19.8525H44.443H45.3055H45.3917L45.4205 19.9388L49.3878 29.0522H49.1578L51.2565 22.9862C51.544 22.1525 51.5728 21.5775 51.3428 21.2613C51.1703 21.0025 50.7965 20.8875 50.2503 20.8875H50.1066V20.7725V19.9963V19.8813H50.2503H55.6839H55.8276V19.9963V20.7725V20.8875H55.6839C54.3614 20.8875 53.6427 21.4912 53.0677 23.1012L49.1578 33.6521L49.1291 33.7383H49.0428H48.2666H48.1804L48.1516 33.6521L44.2417 24.6536H44.4717L41.1368 33.6234L41.1081 33.7096H41.0218Z" fill="#292B2D"/>
<path d="M57.2363 33.0198V32.2148C59.795 32.2148 60.2837 31.5536 60.2837 27.7012V25.7751C60.2837 21.9227 59.795 21.2902 57.2363 21.2902V20.4852L63.0436 19.479V27.6725C63.0436 31.5536 63.5036 32.1861 66.091 32.1861V32.9911H57.2363V33.0198Z" fill="#292B2D"/>
<path d="M61.6351 15.6842C60.6864 15.6842 59.9102 14.908 59.9102 13.9305C59.9102 13.0105 60.6864 12.2056 61.6351 12.2056C62.5551 12.2056 63.36 12.9818 63.36 13.9305C63.36 14.908 62.5838 15.6842 61.6351 15.6842Z" fill="#292B2D"/>
<path d="M104.817 33.3073C103.868 33.3073 103.092 32.531 103.092 31.5536C103.092 30.6336 103.868 29.8286 104.817 29.8286C105.737 29.8286 106.513 30.6048 106.513 31.5536C106.513 32.531 105.737 33.3073 104.817 33.3073Z" fill="#D61D2C"/>
<path d="M78.7119 19.163C81.9893 19.163 83.8867 21.3192 83.8867 25.0566V27.5003C83.8867 31.2951 84.2892 31.8989 86.8191 31.8989H86.9629V32.0426V32.8476V32.9626H86.8191H77.9357H77.8207V32.8476V32.0426V31.8989H77.9357C80.2643 31.8989 80.8681 31.4676 80.8681 27.5003V25.2578C80.8681 22.5554 79.8619 21.233 77.7919 21.233C75.8082 21.233 73.4796 22.8717 73.4796 24.9991V27.529C73.4796 31.4964 73.7383 31.9276 76.0382 31.9276H76.1532V32.0714V32.8763V32.9913H76.0382H67.4998H67.3848V32.8763V32.0714V31.9276H67.4998C70.0009 31.9276 70.4322 31.2664 70.4322 27.529V25.5741C70.4322 21.6067 69.8859 21.2042 67.4998 21.2042H67.3848V21.0605V20.2555V20.1405L67.4998 20.1118L72.6746 19.163L72.7608 19.1343L72.7896 19.2205C72.9908 19.623 73.3358 21.233 73.4508 22.0379L73.2208 21.9804C74.0833 20.9455 75.8945 19.163 78.7119 19.163Z" fill="#292B2D"/>
<path d="M101.28 30.8635L100.59 30.001L100.503 29.886L100.417 29.9723C99.3534 30.9497 97.5422 31.7259 96.2485 31.7259C94.581 31.7259 93.2873 31.2372 92.4249 30.2597C91.4474 29.1673 91.0736 27.5286 91.3324 25.5161H100.561H100.647L100.676 25.4299C101.078 23.9924 100.82 22.5262 99.9284 21.3475C98.8934 19.9963 97.1685 19.1626 95.271 19.1626C91.7349 19.1626 87.9688 22.0375 87.9688 26.3499C87.9688 30.4897 91.1024 33.6234 95.271 33.6234C97.3984 33.6234 99.8134 32.5884 101.28 31.036L101.366 30.9497L101.28 30.8635ZM95.041 20.9738C96.421 20.9738 97.111 21.52 97.4272 21.98C97.8009 22.4975 97.8872 23.1875 97.7147 23.82H97.8297L97.7147 23.9062C97.7147 23.8774 97.7147 23.8487 97.7434 23.82H91.5911C91.5624 23.8774 91.5624 23.9349 91.5336 23.9924L91.4186 23.82H91.5911C92.1374 22.095 93.4886 20.9738 95.041 20.9738Z" fill="#292B2D"/>
<path d="M111.457 26.6377C111.457 29.8864 113.067 31.6688 115.97 31.6688C117.35 31.6688 118.845 31.0076 120.024 29.9151L120.139 29.8289L120.225 29.9439L120.887 30.8063L120.944 30.8926L120.858 30.9788C119.334 32.6175 117.178 33.5663 114.993 33.5663C110.853 33.5663 108.064 30.7776 108.064 26.6665C108.064 22.2104 111.716 19.1055 114.993 19.1055C118.472 19.1055 119.708 20.6579 119.708 22.0091C119.708 22.6416 119.334 23.7916 117.868 23.7916C116.948 23.7916 116.229 23.0441 116.229 22.1241C116.229 20.8017 115.453 20.6004 114.964 20.6004C113.009 20.5717 111.457 23.2166 111.457 26.6377Z" fill="#292B2D"/>
<path d="M130.056 19.0762C125.686 19.0762 122.121 22.3248 122.121 26.2922C122.121 30.2883 125.686 33.537 130.056 33.537C134.426 33.537 137.991 30.2883 137.991 26.2922C137.991 22.3248 134.426 19.0762 130.056 19.0762ZM130.056 31.7545C126.692 31.7545 125.513 28.9371 125.513 26.2922C125.513 23.6473 126.721 20.8299 130.056 20.8299C132.902 20.8299 134.598 22.8711 134.598 26.2922C134.598 29.7133 132.902 31.7545 130.056 31.7545Z" fill="#292B2D"/>
<path d="M154.839 27.4133C154.839 31.5532 155.127 31.8407 157.139 31.8407H157.254V31.9557V32.7607V32.8757H157.139H149.521H149.377V32.7607V31.9557V31.8407H149.521C151.504 31.8407 151.849 31.5245 151.849 27.4133V25.1709C151.849 22.4685 150.987 21.146 149.176 21.146C147.853 21.146 145.295 22.6122 145.295 24.9122V27.4421C145.295 31.5532 145.611 31.8695 147.566 31.8695H147.681V31.9844V32.7894V32.9044H147.566H139.344H139.229V32.7894V31.9844V31.8407H139.344C141.845 31.8407 142.276 31.1795 142.276 27.4133V25.4584C142.276 21.491 141.73 21.0885 139.344 21.0885H139.229V20.9736V20.1686V20.0536L139.344 20.0248L144.518 19.0761L144.605 19.0474L144.662 19.1336C144.863 19.5361 145.237 21.146 145.323 21.951L145.093 21.8935C145.927 20.8298 147.709 19.0761 150.239 19.0761C152.482 19.0761 153.862 20.0536 154.494 22.0373L154.264 22.0085C155.127 20.8011 157.398 19.0761 159.784 19.0761C162.86 19.0761 164.384 21.0023 164.384 24.9697V27.4133C164.384 31.1795 164.815 31.8407 167.316 31.8407H167.431V31.9557V32.7607V32.8757H167.316H159.065H158.95V32.7607V31.9557V31.8407H159.065C161.049 31.8407 161.337 31.5532 161.337 27.4133V25.1709C161.337 22.4685 160.474 21.146 158.72 21.146C157.398 21.146 154.839 22.6122 154.839 24.9122V27.4133Z" fill="#292B2D"/>
<path d="M24.3759 23.7338C24.3759 23.7626 24.3472 23.7914 24.3472 23.8201C24.3759 23.8489 24.3759 23.8776 24.4047 23.8776C24.3759 23.8201 24.3759 23.7913 24.3759 23.7338ZM24.4622 26.5513C24.3472 26.6375 24.2322 26.7238 24.0885 26.81C24.2322 27.0112 24.3759 27.2125 24.4909 27.3562C24.4909 27.0975 24.4909 26.81 24.4622 26.5513ZM10.0014 22.0664C10.0014 22.1814 9.97266 22.2677 9.97266 22.3826C10.1164 22.4976 10.2889 22.5839 10.4614 22.6989C10.2889 22.4689 10.1452 22.2676 10.0014 22.0664ZM14.5438 25.6888C14.63 25.8038 14.7163 25.9188 14.8025 26.0338C14.9175 25.8038 15.1187 25.5738 15.435 25.3725C15.2337 25.4875 14.9462 25.6025 14.5438 25.6888Z" fill="#292B2D"/>
<path d="M14.5449 25.6888C14.6312 25.8038 14.7174 25.9188 14.8037 26.0338C14.9187 25.8038 15.1199 25.5738 15.4361 25.3726C15.2349 25.4876 14.9474 25.6026 14.5449 25.6888Z" fill="#292B2D"/>
<path d="M24.4635 26.5508C24.3485 26.637 24.2335 26.7233 24.0898 26.8095C24.2335 27.0108 24.3773 27.212 24.4923 27.3558C24.4923 27.097 24.4923 26.8095 24.4635 26.5508ZM8.07655 16.5461C7.99031 16.3736 7.90406 16.1724 7.78906 15.9424C7.93281 16.4599 8.13405 16.9486 8.36404 17.2936C8.47904 17.4373 9.19777 18.4148 10.2327 19.8235C10.2327 19.7373 10.2327 19.6798 10.2615 19.5935C9.08277 18.3286 8.36404 17.1786 8.07655 16.5461ZM14.5451 25.6883C14.6313 25.8033 14.7176 25.9183 14.8038 26.0333C14.9188 25.8033 15.1201 25.5733 15.4363 25.3721C15.2351 25.4871 14.9476 25.6021 14.5451 25.6883Z" fill="#292B2D"/>
<path d="M28.4584 29.7136C28.0559 29.1386 26.8197 27.3562 25.4972 25.4875C26.7909 23.7625 26.9922 21.2614 26.331 18.3002C25.6697 15.3103 24.261 14.0741 23.6573 13.6429C23.5998 13.5854 23.5423 13.5566 23.4848 13.5279C23.4561 13.5279 23.4561 13.4991 23.4273 13.4991C22.5936 12.9816 20.9549 12.4067 20.4661 12.2054C20.4661 12.2054 20.4374 12.2054 20.4374 12.1767C21.0699 11.0267 21.2999 9.47425 20.9549 7.95055C20.3224 5.04689 18.3962 4.32817 17.2175 4.41442C15.9238 4.50066 13.9689 5.59313 13.8251 8.81302C13.8251 9.10051 13.8251 9.388 13.8539 9.67549C13.1926 9.388 12.3302 9.12926 11.3239 9.01427C9.6565 6.16811 6.95408 1.19452 6.95408 1.19452C6.17786 -0.127941 4.10792 -0.38668 2.29673 0.590789C0.45679 1.59701 -0.520678 3.60944 0.284296 4.8744C0.370543 5.01815 6.00536 12.8091 6.00536 12.8091C6.00536 12.8091 5.51663 14.3041 5.74662 15.4253C5.74662 15.4253 5.71787 15.4541 5.71787 15.4828C5.71787 15.4828 4.36666 17.6102 4.8554 20.5139C5.22914 22.8138 7.44282 25.0275 9.5415 26.0625C9.39775 26.58 8.56403 29.5986 8.42028 33.681C8.30529 37.3609 8.47778 40.782 8.47778 42.3344C8.47778 42.5932 8.36279 42.8807 8.04655 43.1107C7.55781 43.4844 6.86783 44.0594 6.86783 44.6344C6.86783 45.3531 7.44282 45.5256 8.36279 45.5831C9.28276 45.6406 11.2664 45.4681 12.4164 45.3243C13.3651 45.2093 13.4226 44.4906 13.4514 44.2894C13.4801 44.0881 13.7101 42.8232 14.2276 40.4083C14.7163 38.0221 15.4351 36.6996 16.2975 36.6996C17.16 36.6996 17.8787 38.0508 18.3675 40.4083C18.8562 42.8232 19.0574 44.0881 19.1149 44.2894C19.1437 44.4906 19.2299 45.2668 20.1499 45.3243C21.2999 45.4106 23.3123 45.6406 24.2323 45.5831C25.1522 45.5256 25.7272 45.3531 25.7272 44.6344C25.7272 44.0594 25.0373 43.4844 24.5485 43.1107C24.2323 42.8807 24.1173 42.5932 24.1173 42.3344C24.1173 41.2132 24.2035 39.0858 24.2035 36.6134C26.0722 35.6359 28.0272 34.1697 28.8609 33.106C29.7809 31.956 29.4071 31.0648 28.4584 29.7136ZM24.1748 18.4727C24.261 18.0415 24.3473 17.639 24.4048 17.294C24.9223 18.214 25.5547 21.4914 24.376 23.7338C24.376 23.7913 24.376 23.82 24.376 23.8775C24.3473 23.8488 24.3473 23.82 24.3185 23.82C24.1748 24.0788 24.0023 24.3375 23.801 24.5675C23.571 24.8263 23.3123 25.085 23.0536 25.315C22.9673 25.4012 22.8811 25.4587 22.7948 25.5162C22.0186 26.12 21.1274 26.5512 20.1499 26.7812C17.7925 27.3274 16.5275 27.1549 16.5275 26.5225C16.5275 25.89 17.4187 25.7175 17.85 25.5737C18.6262 25.3437 20.1212 24.51 21.5586 23.1876C21.7886 22.9863 22.0186 22.7563 22.2486 22.5263C22.4786 22.2963 22.6798 22.0088 22.8811 21.7501C23.5711 20.7151 23.916 19.5364 24.1748 18.4727ZM21.4724 14.5628C22.0761 14.8503 22.9673 15.5116 22.9961 15.8853C22.9961 15.914 22.9961 16.144 22.9961 16.5178C22.8236 17.5527 22.3923 18.9327 21.7886 20.1114C21.7599 20.0827 21.7599 20.0539 21.7311 20.0252C21.1849 19.2202 18.0225 14.3903 17.85 14.1316C17.8787 14.1316 17.9362 14.1316 17.965 14.1316C18.31 14.0741 18.655 13.9879 18.9424 13.8154C19.8912 14.0454 21.0699 14.3903 21.4724 14.5628ZM17.39 6.42685C18.425 6.36935 19.3449 7.57681 19.4312 9.10051C19.4887 10.6242 18.7125 11.9179 17.6487 11.9467C16.6138 12.0042 15.6938 10.7967 15.6363 9.27301C15.5501 7.74931 16.3263 6.48435 17.39 6.42685ZM1.95174 4.04067C1.578 3.40819 2.00924 2.48823 2.90046 1.94199C3.79168 1.39576 4.82665 1.45326 5.20039 2.08574C5.57413 2.71822 5.14289 3.63819 4.25167 4.18442C3.36045 4.7019 2.32548 4.6444 1.95174 4.04067ZM3.44669 6.11061C3.44669 6.11061 3.47544 6.11061 3.53294 6.08186C4.02168 5.99561 4.51041 5.82312 4.9704 5.56438C5.60287 5.21939 6.14911 4.7594 6.52285 4.24192C7.87405 6.36935 10.749 11.0555 10.749 11.0555C10.749 11.0555 12.5889 10.3655 13.9114 12.2342C13.9689 12.3204 13.9976 12.3779 14.0551 12.4642C14.0551 12.4642 14.3713 12.9241 14.9176 13.7004C16.125 15.4541 18.4537 18.789 20.5524 21.8076C20.5236 21.8364 20.4661 21.8939 20.4374 21.9226C19.4887 22.7563 18.7125 23.3601 17.6775 24.0213C17.39 23.3888 16.4988 23.1876 16.24 23.1301C15.8663 23.0438 13.4514 22.5263 11.6689 21.0314C11.5827 20.9451 11.4677 20.8589 11.3814 20.7726C10.979 20.3702 10.5765 19.9964 10.2602 19.6227C10.2602 19.7089 10.2602 19.7664 10.2315 19.8527C9.19651 18.444 8.47778 17.4665 8.36279 17.3227C8.13279 16.9778 7.93155 16.489 7.7878 15.9715C7.64406 15.4541 7.55781 14.9366 7.55781 14.6203C7.55781 13.9591 7.67281 13.5279 7.7878 13.3266C7.9028 13.1254 8.10404 13.0391 7.75906 12.5792C7.41407 12.0617 3.44669 6.11061 3.44669 6.11061ZM7.50031 22.2963C5.89037 20.1114 6.3791 17.3803 6.3791 17.3803L8.67903 21.1751C8.67903 21.1751 9.08151 21.7214 9.94399 22.3538C9.94399 22.2388 9.97274 22.1526 9.97274 22.0376C10.1165 22.2388 10.2602 22.4688 10.404 22.6701C10.7202 22.8713 11.0652 23.0438 11.4677 23.2163C11.9277 23.4176 12.4739 23.6188 13.0776 23.7338C13.5376 23.8488 14.0551 23.9063 14.6013 23.9638C15.2051 23.935 15.7226 24.1938 15.8375 24.51C15.895 24.6825 15.8088 25.0562 15.3776 25.3437C15.0613 25.545 14.8601 25.775 14.7451 26.005C14.6588 25.89 14.5726 25.775 14.4863 25.66C14.3426 25.6887 14.1701 25.6887 13.9976 25.7175C13.5664 25.7462 13.0489 25.7462 12.4739 25.66C12.1002 25.6025 11.6977 25.5162 11.2952 25.3725C10.7777 25.2 10.2315 24.9125 9.68525 24.5388C9.02402 24.0213 8.27654 23.3026 7.50031 22.2963ZM22.9673 44.2894C22.6511 44.2894 21.0124 44.0881 21.0124 44.0881C21.0124 44.0881 20.3799 39.8908 19.8912 38.4821C19.4024 37.0734 18.4537 35.2334 16.4413 35.1184C16.3838 35.1184 16.355 35.1184 16.2975 35.1184H16.24C14.2276 35.2334 13.2789 37.0446 12.7901 38.4821C12.3014 39.8908 11.6689 44.0881 11.6689 44.0881C11.6689 44.0881 10.0302 44.2894 9.71399 44.2894C9.05276 44.3181 9.05276 43.9444 9.45525 43.5994C9.68524 43.3982 10.0015 43.1107 10.059 42.3057C10.1452 41.3857 10.2027 38.7696 10.289 34.5147C10.3752 30.2598 11.2377 27.4137 11.3239 26.6662C13.0776 26.9537 13.3939 26.9249 13.4514 26.8962C13.4801 26.9249 13.4801 26.9249 13.4801 26.9537C14.3426 28.2474 19.4887 35.5209 20.0062 36.1821C20.4661 36.7859 20.9836 37.7346 22.4786 37.3609C22.5361 39.9483 22.5648 41.6157 22.6511 42.3057C22.7373 43.0819 23.0248 43.3982 23.2548 43.5994C23.6285 43.9444 23.6285 44.3181 22.9673 44.2894ZM25.9285 33.7672C25.3247 34.1985 24.7498 34.5722 24.2323 34.8597C23.801 35.0897 23.4273 35.2909 23.0536 35.4347C22.8236 35.5209 22.6223 35.5497 22.4498 35.5497C22.0186 35.4922 21.6449 35.1759 21.1849 34.5722C21.0986 34.4285 19.0287 31.6685 16.585 28.3911C17.0163 28.5349 17.505 28.6499 18.0225 28.7074C19.2587 28.8511 20.7824 28.6211 22.7661 27.5862C23.1686 27.3849 23.571 27.1549 24.0023 26.8962C24.031 26.8674 24.0885 26.8387 24.1173 26.8099C24.2323 26.7237 24.376 26.6375 24.491 26.5512C24.491 26.8099 24.5198 27.0974 24.5198 27.3562C24.6923 27.5862 24.8073 27.7587 24.8648 27.8449C25.6985 28.9086 26.6472 30.1448 27.0209 30.6336C27.6534 31.496 28.0847 32.186 25.9285 33.7672Z" fill="#292B2D"/>
<path d="M10.2322 19.5935C10.2322 19.6798 10.2322 19.7373 10.2034 19.8235C9.16847 18.4148 8.44974 17.4373 8.33475 17.2936C8.10475 16.9486 7.90351 16.4599 7.75977 15.9424C7.87476 16.1724 7.98976 16.3736 8.04726 16.5461C8.3635 17.1786 9.08222 18.3286 10.2322 19.5935Z" fill="#292B2D"/>
<path d="M15.4361 25.3438C15.1199 25.545 14.9187 25.775 14.8037 26.005C14.7174 25.89 14.6312 25.775 14.5449 25.66C14.9474 25.6025 15.2349 25.4875 15.4361 25.3438Z" fill="#292B2D"/>
<path d="M24.3764 23.7339C24.3764 23.7626 24.3477 23.7914 24.3477 23.8201C24.3764 23.8489 24.3764 23.8776 24.4052 23.8776C24.3764 23.8201 24.3764 23.7914 24.3764 23.7339Z" fill="#292B2D"/>
<path d="M14.5451 25.6883C14.6313 25.8033 14.7176 25.9183 14.8038 26.0333C14.9188 25.8033 15.1201 25.5733 15.4363 25.3721C15.2351 25.4871 14.9476 25.6021 14.5451 25.6883ZM10.0027 22.0659C10.0027 22.1809 9.97399 22.2672 9.97399 22.3822C10.1177 22.4972 10.2902 22.5834 10.4627 22.6984C10.2902 22.4684 10.1465 22.2672 10.0027 22.0659ZM8.07655 16.5461C7.99031 16.3736 7.90406 16.1724 7.78906 15.9424C7.93281 16.4599 8.13405 16.9486 8.36404 17.2936C8.47904 17.4373 9.19777 18.4148 10.2327 19.8235C10.2327 19.7373 10.2327 19.6798 10.2615 19.5935C9.08277 18.3286 8.36404 17.1786 8.07655 16.5461Z" fill="#292B2D"/>
</svg>
