<svg width="100" height="33" viewBox="0 0 100 33" fill="none" xmlns="http://www.w3.org/2000/svg">
<g clip-path="url(#clip0)">
<path d="M98.0415 2C97.9415 1.5 97.4415 1.2 96.8415 1C96.1415 0.9 94.3415 0.8 93.1415 1C92.2415 1.2 91.9415 1.8 92.0415 2.5C92.4415 6.2 92.5415 9.7 92.6415 13.4C92.7415 18 92.2415 27.1 89.2415 27.1C87.0415 27.1 86.0415 24 86.0415 17L85.9415 4.1C85.9415 3.5 85.2415 2.8 84.6415 2.8H81.3415C80.7415 2.8 80.0415 3.5 80.0415 4.1L79.9415 17C79.9415 24.1 78.8415 27.1 76.7415 27.1C73.6415 27.1 73.2415 18 73.3415 13.4C73.4415 9.7 73.6415 6.1 73.9415 2.5C74.0415 1.8 73.7415 1.1 72.8415 1C71.5415 0.8 69.7415 0.8 69.1415 1C68.6415 1.1 68.1415 1.4 67.9415 2C66.5415 7.3 66.8415 18.1 66.9415 19C66.9415 19 61.7415 27.3 54.9415 27.3C52.7415 27.3 51.7415 25.9 51.4415 25.3C51.4415 25.3 60.6415 19.8 62.3415 11.4C63.3415 6.5 61.5415 0.8 55.3415 0.7C49.4415 0.6 45.6415 5.7 44.2415 10.3C41.6415 18.6 44.0415 25.2 44.0415 25.2C44.0415 25.2 41.6415 27.4 40.2415 27.4C38.1415 27.4 38.6415 24.9 38.7415 19.7C38.8415 15.8 39.0415 8.9 39.1415 5.8C39.2415 2.7 37.5415 1.3 34.6415 1.3H28.9415C28.3415 0.5 27.3415 0 26.3415 0C24.4415 0 22.9415 1.5 22.9415 3.4C22.9415 4.5 23.4415 5.5 24.3415 6.1C24.2415 17.8 20.7415 27.6 13.0415 27.6C8.74148 27.6 6.04148 22.7 6.44148 16.8C6.74148 12 8.94148 6.2 12.4415 6.2C16.4415 6.2 12.4415 14 15.5415 14C17.1415 14 19.4415 11.4 19.4415 7.7C19.4415 5.3 18.1415 0.9 12.3415 0.9C6.24148 0.9 0.541481 6.4 0.0414808 16.8C-0.558519 27.4 5.44148 33.1 12.1415 33.1C20.3415 33.1 28.9415 26.4 29.3415 6.2H31.9415C33.1415 6.2 33.3415 6.8 33.2415 7.9C33.0415 10.8 32.5415 17.9 32.1415 23.8C31.7415 29.6 33.4415 33 37.9415 33C41.3415 33 45.9415 29.1 45.9415 29.1C48.0415 32.3 51.2415 33 53.6415 33C61.6415 33 67.9415 25 67.9415 24.9C67.9415 24.9 69.9415 32.9 75.8415 32.9C79.5415 32.9 81.9415 30.5 83.0415 28.7C84.1415 30.5 86.5415 32.9 90.2415 32.9C96.9415 32.9 98.9415 23.3 99.1415 19C99.1415 17.2 99.4415 7.3 98.0415 2V2ZM55.8415 6.4C59.2415 7.8 57.5415 15.6 49.6415 21.6C48.1415 15.3 51.8415 4.7 55.8415 6.4V6.4Z" fill="#DB0032"/>
</g>
<defs>
<clipPath id="clip0">
<rect width="100" height="33" fill="white"/>
</clipPath>
</defs>
</svg>
