<svg width="114" height="46" viewBox="0 0 114 46" fill="none" xmlns="http://www.w3.org/2000/svg">
<path d="M36.404 25.0752V26.4779H28.234V24.518C28.234 22.0009 29.659 21.3092 30.856 21.3092C31.692 21.3092 32.509 21.5205 33.269 21.9048L34.922 18.1003C33.915 17.5046 32.357 16.9858 30.191 16.9858C26.771 16.9858 22.857 18.9457 22.857 25.0752V26.4779H19.741V30.6667H22.857V45.5005H28.215V30.6667H36.347V45.462H41.705V30.6667H46.569V26.4779H41.724V24.5564C41.724 22.0393 43.149 21.3476 44.346 21.3476C45.182 21.3476 45.999 21.5589 46.759 21.9432L48.393 18.1387C48.393 18.1387 46.74 17.0243 43.662 17.0243C40.28 16.9858 36.404 18.9457 36.404 25.0752ZM9.32901 25.9207C6.251 25.9207 2.679 27.381 0.76 28.9566L2.527 32.7035C4.085 31.2624 6.574 30.0518 8.81601 30.0518C10.963 30.0518 12.141 30.782 12.141 32.2231C12.141 33.2031 11.343 33.6834 9.86101 33.8948C4.37 34.6249 0 36.2006 0 40.5046C0 43.9249 2.413 46.0001 6.194 46.0001C8.72101 46.0001 11.077 44.6742 12.426 42.503V45.4428H17.442V33.0878C17.404 27.9767 13.889 25.9207 9.32901 25.9207ZM7.448 42.0418C6.023 42.0418 5.339 41.3501 5.339 40.1972C5.339 38.0644 7.733 37.3342 12.046 36.8731C12.046 39.6976 10.108 42.0418 7.448 42.0418ZM64.695 29.6868V26.4779H59.679V45.4428H65.037V36.2774C65.037 31.9349 67.64 30.6859 69.464 30.6859C70.3 30.6859 71.098 30.9357 71.744 31.3777L72.713 26.3818C71.953 26.0744 71.117 25.9207 70.3 25.9591C67.526 25.9399 65.797 27.1696 64.695 29.6868ZM97.6221 25.9207C95.1711 25.9591 92.9101 27.2081 91.5611 29.2448C90.5161 27.1504 88.3881 25.9207 85.7471 25.9207C83.3531 25.8438 81.1111 27.1889 80.0471 29.3409V26.4779H74.86V45.4428H80.2181V35.6818C80.2181 32.1847 82.0231 30.513 83.7521 30.513C85.2721 30.513 86.6971 31.5314 86.6971 34.1254V45.5005H92.0551V35.701C92.0551 32.1655 93.8221 30.5322 95.6081 30.5322C97.0331 30.5322 98.5151 31.589 98.5151 34.1062V45.5005H103.873V32.3576C103.873 28.0535 101.042 25.9207 97.6221 25.9207ZM49.818 26.4779H55.176V45.4428H49.818V26.4779Z" fill="black"/>
<path d="M81.0533 0C66.5563 0 53.6553 10.1838 49.9883 23.2306H55.2513C58.3293 13.5079 68.7033 4.93818 81.0533 4.93818C96.1013 4.93818 109.078 16.5246 109.078 34.5288C109.116 38.2373 108.622 41.9073 107.596 45.4428H112.688L112.726 45.2699C113.6 41.7728 113.999 38.1604 113.999 34.5288C113.98 14.4302 99.5213 0 81.0533 0Z" fill="#0FA0EA"/>
</svg>
