<svg width="770" height="713" viewBox="0 0 770 713" fill="none" xmlns="http://www.w3.org/2000/svg">
<g filter="url(#filter0_d)">
<path d="M636.596 238.631C644.982 233.79 655.314 233.79 663.701 238.631L715.82 268.722C724.206 273.564 729.373 282.512 729.373 292.196V352.378C729.373 362.062 724.206 371.01 715.82 375.852L663.701 405.943C655.314 410.785 644.982 410.785 636.596 405.943L584.476 375.852C576.09 371.01 570.924 362.062 570.924 352.378V292.196C570.924 282.512 576.09 273.564 584.476 268.722L636.596 238.631Z" fill="white"/>
<path d="M636.595 247.667C644.982 242.825 655.314 242.825 663.7 247.667L707.995 273.24C716.381 278.082 721.547 287.03 721.547 296.714V347.861C721.547 357.544 716.381 366.493 707.995 371.335L663.7 396.908C655.314 401.75 644.982 401.75 636.595 396.908L592.301 371.335C583.914 366.493 578.748 357.544 578.748 347.861V296.714C578.748 287.03 583.914 278.082 592.301 273.24L636.595 247.667Z" fill="#FFE1CF"/>
<mask id="mask0" mask-type="alpha" maskUnits="userSpaceOnUse" x="578" y="244" width="144" height="157">
<path d="M636.595 247.667C644.982 242.825 655.314 242.825 663.7 247.667L707.995 273.24C716.381 278.082 721.547 287.03 721.547 296.714V347.861C721.547 357.544 716.381 366.493 707.995 371.335L663.7 396.908C655.314 401.75 644.982 401.75 636.595 396.908L592.301 371.335C583.914 366.493 578.748 357.544 578.748 347.861V296.714C578.748 287.03 583.914 278.082 592.301 273.24L636.595 247.667Z" fill="#FFE1CF"/>
</mask>
<g mask="url(#mask0)">
<rect x="521.398" y="203.377" width="320.746" height="292.511" fill="url(#paint0_linear)"/>
<path opacity="0.05" fill-rule="evenodd" clip-rule="evenodd" d="M933.937 36.2275L650.162 321.974L851.722 36.2275H782.206L650.166 321.968L727.791 36.2275H674.169L650.167 321.962L626.164 36.2275H572.544L650.166 321.956L518.13 36.2275H448.619L650.163 321.951L366.41 36.2275H364.414V123.338L650.158 321.947L364.414 187.496V246.441L650.152 321.944L364.414 295.949V347.94L650.146 321.944L364.414 397.447V456.389L650.141 321.947L364.414 520.544V607.698H366.361L650.136 321.951L448.576 607.698H518.091L650.133 321.956L572.507 607.698H626.129L650.131 321.962L674.134 607.698H727.755L650.132 321.968L782.167 607.698H851.679L650.135 321.974L933.887 607.698H935.884V520.587L650.14 321.977L935.884 456.429V397.484L650.146 321.979L935.884 347.976V295.984L650.152 321.979L935.884 246.478V187.535L650.158 321.977L935.884 123.381V36.2275H933.937Z" fill="white"/>
<path opacity="0.2" d="M701.407 293.136L677.975 380.586C677.784 381.296 677.054 381.718 676.344 381.527L653.631 375.441L661.086 403.261C654.932 405.086 648.417 406.071 641.672 406.071C641.407 406.071 641.144 406.064 640.879 406.061C640.196 393.831 630.063 384.124 617.662 384.124C610.711 384.124 604.474 387.175 600.212 392.009C597.637 390.032 595.205 387.877 592.938 385.56L578.876 333.078C578.685 332.368 579.107 331.637 579.817 331.447L631.444 317.614L642.25 277.285C642.44 276.575 643.17 276.153 643.88 276.344L700.466 291.506C701.176 291.696 701.597 292.426 701.407 293.136Z" fill="#3F2F55"/>
<path d="M665.231 398.162C665.421 398.872 665 399.602 664.289 399.792L640.886 406.063C625.58 405.886 611.469 400.671 600.172 391.988L582.641 326.563C582.451 325.853 582.873 325.123 583.583 324.932L640.168 309.77C640.879 309.58 641.609 310.001 641.799 310.712L665.231 398.162Z" fill="#189681"/>
<path d="M669.135 392.149C669.325 392.859 668.904 393.59 668.194 393.78L627.684 404.634C620.241 403.082 613.245 400.314 606.91 396.551L586.546 320.55C586.355 319.84 586.777 319.11 587.487 318.92L644.073 303.758C644.783 303.567 645.513 303.989 645.703 304.699L669.135 392.149Z" fill="#A5EBCE"/>
<path d="M665.511 378.628L619.759 366.368C619.048 366.178 618.627 365.448 618.817 364.738L634.467 306.331L644.071 303.758C644.781 303.567 645.512 303.989 645.702 304.699L665.511 378.628Z" fill="#79D2AB"/>
<path d="M661.807 390.529L618.663 402.09C616.846 401.438 615.065 400.713 613.323 399.915L592.929 323.802C592.738 323.092 593.16 322.362 593.87 322.172L640.167 309.766C640.877 309.576 641.608 309.998 641.798 310.708L662.749 388.898C662.939 389.609 662.518 390.339 661.807 390.529Z" fill="#8DE1BA"/>
<path d="M659.571 377.037L619.759 366.369C619.048 366.179 618.627 365.449 618.817 364.738L633.035 311.678L640.168 309.766C640.878 309.576 641.608 309.998 641.799 310.708L659.571 377.037Z" fill="#79D2AB"/>
<path d="M634.044 379.496C621.259 382.922 608.118 375.334 604.692 362.55C601.267 349.765 608.854 336.624 621.638 333.199C634.423 329.773 647.564 337.36 650.99 350.145C654.415 362.929 646.828 376.07 634.044 379.496ZM637.369 327.605C639.5 327.034 640.764 324.844 640.194 322.713C639.623 320.583 637.432 319.318 635.302 319.889C633.171 320.46 631.906 322.65 632.477 324.781C633.048 326.912 635.238 328.176 637.369 327.605ZM605.218 336.22C607.349 335.649 608.614 333.459 608.043 331.328C607.472 329.198 605.282 327.933 603.151 328.504C601.02 329.075 599.756 331.265 600.327 333.396C600.897 335.527 603.088 336.791 605.218 336.22ZM618.313 385.089C616.182 385.66 614.918 387.85 615.488 389.981C616.059 392.112 618.249 393.376 620.38 392.805C622.511 392.234 623.776 390.044 623.205 387.913C622.634 385.783 620.444 384.518 618.313 385.089ZM655.355 379.299C654.785 377.168 652.594 375.904 650.464 376.475C648.333 377.046 647.068 379.236 647.639 381.366C648.21 383.497 650.4 384.762 652.531 384.191C654.662 383.62 655.926 381.43 655.355 379.299Z" fill="#52C3A3"/>
<path d="M614.081 325.575C613.32 322.734 615.006 319.814 617.847 319.053C620.688 318.292 623.608 319.978 624.369 322.819C625.131 325.66 623.444 328.58 620.604 329.341C617.763 330.102 614.842 328.416 614.081 325.575ZM635.076 383.354C632.235 384.116 630.549 387.036 631.311 389.877C632.072 392.718 634.992 394.404 637.833 393.643C640.674 392.881 642.36 389.961 641.599 387.12C640.838 384.279 637.918 382.593 635.076 383.354ZM635.289 360.648L645.073 351.73L632.141 348.899L623.223 339.115L620.391 352.047L610.607 360.965L623.54 363.797L632.458 373.58L635.289 360.648Z" fill="#35AF94"/>
<path d="M709.793 286.576L686.361 374.026C686.171 374.736 685.441 375.157 684.731 374.967L628.145 359.805C627.435 359.615 627.014 358.885 627.204 358.174L650.636 270.724C650.826 270.014 651.556 269.593 652.267 269.783L708.852 284.945C709.562 285.136 709.984 285.865 709.793 286.576Z" fill="#FFF9C8"/>
<path d="M676.141 324.714L666.125 332.709C665.876 332.908 665.506 332.809 665.389 332.512L660.713 320.58C660.637 320.387 660.696 320.168 660.858 320.038L670.874 312.043C671.123 311.844 671.493 311.944 671.609 312.24L676.286 324.172C676.361 324.365 676.303 324.585 676.141 324.714ZM669.271 300.11L664.595 288.178C664.478 287.882 664.109 287.783 663.86 287.981L653.844 295.976C653.682 296.106 653.623 296.325 653.698 296.518L658.375 308.45C658.491 308.747 658.861 308.846 659.11 308.647L669.126 300.652C669.288 300.523 669.347 300.303 669.271 300.11ZM694.391 306.841L689.715 294.909C689.599 294.613 689.229 294.513 688.98 294.712L678.964 302.707C678.802 302.836 678.742 303.056 678.818 303.249L683.495 315.181C683.611 315.477 683.981 315.577 684.23 315.378L694.246 307.383C694.408 307.254 694.467 307.034 694.391 306.841ZM653.504 329.571C653.387 329.275 653.017 329.175 652.768 329.374L642.752 337.369C642.59 337.499 642.531 337.718 642.607 337.911L647.283 349.843C647.4 350.14 647.77 350.239 648.019 350.04L658.035 342.046C658.197 341.916 658.256 341.696 658.18 341.503L653.504 329.571ZM678.623 336.302C678.507 336.006 678.137 335.906 677.888 336.105L667.872 344.1C667.71 344.23 667.651 344.449 667.727 344.642L672.404 356.574C672.52 356.871 672.89 356.97 673.139 356.771L683.155 348.777C683.317 348.647 683.376 348.427 683.3 348.234L678.623 336.302Z" fill="#FF823B"/>
<path d="M660.488 280.254C659.917 282.385 657.727 283.65 655.596 283.079C653.465 282.508 652.201 280.318 652.772 278.187C653.343 276.056 655.533 274.792 657.664 275.363C659.794 275.934 661.059 278.124 660.488 280.254ZM681.402 361.668C679.272 361.098 677.082 362.362 676.511 364.493C675.94 366.624 677.204 368.814 679.335 369.385C681.466 369.956 683.656 368.691 684.227 366.56C684.798 364.43 683.533 362.239 681.402 361.668Z" fill="#FFC37D"/>
</g>
<path d="M238.672 469.631C247.058 464.79 257.391 464.79 265.777 469.631L317.896 499.722C326.282 504.564 331.449 513.512 331.449 523.196V583.378C331.449 593.062 326.282 602.01 317.896 606.852L265.777 636.943C257.391 641.785 247.058 641.785 238.672 636.943L186.553 606.852C178.166 602.01 173 593.062 173 583.378V523.196C173 513.512 178.166 504.564 186.553 499.722L238.672 469.631Z" fill="white"/>
<path d="M238.671 478.667C247.058 473.825 257.39 473.825 265.777 478.667L310.071 504.24C318.457 509.082 323.624 518.03 323.624 527.714V578.861C323.624 588.544 318.457 597.493 310.071 602.335L265.777 627.908C257.39 632.75 247.058 632.75 238.671 627.908L194.377 602.335C185.99 597.493 180.824 588.544 180.824 578.861V527.714C180.824 518.03 185.99 509.082 194.377 504.24L238.671 478.667Z" fill="#FFE1CF"/>
<mask id="mask1" mask-type="alpha" maskUnits="userSpaceOnUse" x="180" y="475" width="144" height="157">
<path d="M238.671 478.667C247.058 473.825 257.39 473.825 265.777 478.667L310.071 504.24C318.457 509.082 323.624 518.03 323.624 527.714V578.861C323.624 588.544 318.457 597.493 310.071 602.335L265.777 627.908C257.39 632.75 247.058 632.75 238.671 627.908L194.377 602.335C185.99 597.493 180.824 588.544 180.824 578.861V527.714C180.824 518.03 185.99 509.082 194.377 504.24L238.671 478.667Z" fill="#FFE1CF"/>
</mask>
<g mask="url(#mask1)">
<rect x="123.475" y="434.377" width="320.746" height="292.511" fill="url(#paint1_linear)"/>
<path opacity="0.05" fill-rule="evenodd" clip-rule="evenodd" d="M536.013 267.228L252.239 552.974L453.798 267.228H384.282L252.242 552.968L329.867 267.228H276.245L252.243 552.962L228.241 267.228H174.62L252.242 552.956L120.207 267.228H50.6954L252.239 552.951L-31.5134 267.228H-33.5098V354.338L252.234 552.947L-33.5098 418.496V477.441L252.229 552.944L-33.5098 526.949V578.94L252.222 552.944L-33.5098 628.447V687.389L252.217 552.947L-33.5098 751.544V838.698H-31.563L252.212 552.951L50.6521 838.698H120.168L252.209 552.956L174.583 838.698H228.205L252.207 552.962L276.21 838.698H329.831L252.209 552.968L384.243 838.698H453.756L252.211 552.974L535.964 838.698H537.96V751.587L252.216 552.977L537.96 687.429V628.484L252.222 552.979L537.96 578.976V526.984L252.228 552.979L537.96 477.478V418.535L252.234 552.977L537.96 354.381V267.228H536.013Z" fill="white"/>
<path d="M256.246 536.423L278.418 490.308C278.738 489.642 279.41 489.219 280.15 489.219H311.123C311.783 489.219 312.397 489.558 312.749 490.117C313.1 490.677 313.14 491.377 312.854 491.972L283.459 553.114C283.221 553.609 282.784 553.978 282.257 554.13C282.084 554.179 281.906 554.204 281.727 554.204C281.367 554.204 281.011 554.102 280.699 553.906L256.95 538.88C256.126 538.358 255.824 537.301 256.246 536.423Z" fill="#FF64A2"/>
<path d="M296.906 489.219H311.12C311.78 489.219 312.394 489.558 312.747 490.117C313.098 490.677 313.137 491.377 312.852 491.972L283.457 553.114C283.218 553.609 282.781 553.978 282.254 554.13C282.081 554.179 281.903 554.204 281.725 554.204C281.365 554.204 281.008 554.102 280.697 553.906L269.279 546.682L296.906 489.219Z" fill="#F1488C"/>
<path d="M248.232 536.423L226.061 490.308C225.74 489.642 225.069 489.219 224.329 489.219H193.356C192.696 489.219 192.082 489.558 191.73 490.117C191.379 490.677 191.339 491.377 191.625 491.972L221.02 553.114C221.258 553.609 221.695 553.978 222.222 554.13C222.395 554.179 222.573 554.204 222.752 554.204C223.112 554.204 223.468 554.102 223.78 553.906L247.529 538.88C248.352 538.358 248.654 537.301 248.232 536.423Z" fill="#FF64A2"/>
<path d="M207.571 489.219H193.356C192.696 489.219 192.082 489.558 191.73 490.117C191.379 490.677 191.339 491.377 191.625 491.972L221.02 553.114C221.258 553.609 221.695 553.978 222.222 554.13C222.395 554.179 222.573 554.204 222.752 554.204C223.112 554.204 223.468 554.102 223.78 553.906L235.197 546.682L207.571 489.219Z" fill="#F1488C"/>
<path d="M252.268 612.191C273.491 612.191 290.695 594.987 290.695 573.764C290.695 552.541 273.491 535.336 252.268 535.336C231.045 535.336 213.84 552.541 213.84 573.764C213.84 594.987 231.045 612.191 252.268 612.191Z" fill="#FFCD00"/>
<path d="M252.268 612.186C262.879 612.186 272.486 607.885 279.44 600.931L225.095 546.586C218.141 553.54 213.84 563.147 213.84 573.758C213.84 594.981 231.044 612.186 252.268 612.186Z" fill="#FF9100"/>
<path d="M262.313 592.78C261.682 592.78 261.048 592.628 260.463 592.321L252.265 588.012L244.067 592.321C242.72 593.027 241.115 592.91 239.888 592.017C238.656 591.122 238.052 589.634 238.309 588.134L239.874 579.008L233.241 572.545C232.151 571.481 231.766 569.922 232.237 568.474C232.708 567.026 233.935 565.99 235.442 565.77L244.606 564.439L248.705 556.135C249.377 554.771 250.741 553.923 252.263 553.922H252.265C253.788 553.922 255.152 554.77 255.826 556.135L259.924 564.439L269.086 565.77C270.595 565.99 271.822 567.026 272.293 568.474C272.764 569.922 272.379 571.481 271.289 572.544L264.656 579.008L266.223 588.134C266.48 589.634 265.876 591.122 264.643 592.017C263.947 592.523 263.133 592.78 262.313 592.78ZM235.924 569.792L243.279 576.961C243.731 577.403 243.938 578.039 243.831 578.662L242.095 588.784L243.174 590.62L242.281 588.919L251.372 584.14C251.931 583.845 252.599 583.845 253.158 584.14L262.249 588.919L264.33 588.459L262.436 588.784L260.699 578.662C260.592 578.039 260.798 577.403 261.251 576.961L268.606 569.792L268.811 567.672L268.535 569.574L258.372 568.097C257.746 568.006 257.205 567.613 256.926 567.045L252.381 557.836C252.381 557.838 252.267 557.837 252.197 557.836C252.169 557.836 252.15 557.836 252.15 557.836L247.604 567.046C247.324 567.613 246.784 568.006 246.157 568.097L235.995 569.574L234.582 571.169L235.924 569.792Z" fill="white"/>
<path d="M283.013 575.681C282.512 575.681 282.013 575.469 281.647 575.124C281.283 574.759 281.092 574.259 281.092 573.76C281.092 573.26 281.283 572.761 281.647 572.396C282.358 571.685 283.646 571.685 284.357 572.396C284.723 572.761 284.935 573.26 284.935 573.76C284.935 574.259 284.723 574.759 284.357 575.124C284.012 575.469 283.513 575.681 283.013 575.681Z" fill="white"/>
<path d="M252.271 544.941C251.751 544.941 251.271 544.729 250.905 544.384C250.541 544.019 250.35 543.519 250.35 543.02C250.35 542.52 250.541 542.02 250.905 541.655C251.616 540.944 252.903 540.944 253.615 541.655C253.98 542.02 254.192 542.52 254.192 543.02C254.192 543.519 253.98 544.019 253.615 544.384C253.269 544.729 252.77 544.941 252.271 544.941Z" fill="white"/>
<path d="M230.519 553.953C230.02 553.953 229.519 553.741 229.174 553.376C228.808 553.03 228.598 552.53 228.598 552.031C228.598 551.513 228.808 551.013 229.174 550.667C229.866 549.956 231.172 549.956 231.883 550.667C232.247 551.032 232.44 551.513 232.44 552.031C232.44 552.53 232.247 553.03 231.883 553.376C231.517 553.741 231.037 553.953 230.519 553.953Z" fill="white"/>
<path d="M274 597.415C273.5 597.415 272.999 597.222 272.635 596.858C272.29 596.512 272.078 596.012 272.078 595.493C272.078 594.993 272.29 594.494 272.635 594.148C273.365 593.418 274.634 593.418 275.363 594.148C275.709 594.494 275.921 594.993 275.921 595.493C275.921 596.011 275.709 596.492 275.363 596.858C274.998 597.223 274.499 597.415 274 597.415Z" fill="white"/>
<path d="M274 553.953C273.5 553.953 272.999 553.741 272.635 553.396C272.29 553.03 272.078 552.53 272.078 552.031C272.078 551.513 272.29 551.013 272.635 550.667C273.346 549.956 274.634 549.956 275.363 550.667C275.709 551.013 275.921 551.513 275.921 552.031C275.921 552.53 275.709 553.03 275.363 553.396C274.998 553.741 274.499 553.953 274 553.953Z" fill="white"/>
<path d="M280.667 563.92C280.168 563.92 279.669 563.708 279.303 563.343C278.958 562.997 278.746 562.497 278.746 561.998C278.746 561.479 278.958 560.979 279.303 560.634C280.033 559.923 281.302 559.923 282.031 560.634C282.378 560.979 282.589 561.479 282.589 561.998C282.589 562.497 282.378 562.997 282.031 563.343C281.668 563.708 281.167 563.92 280.667 563.92Z" fill="white"/>
<path d="M240.492 547.284C239.993 547.284 239.494 547.073 239.148 546.708C238.782 546.362 238.57 545.862 238.57 545.362C238.57 544.863 238.782 544.363 239.148 543.998C239.857 543.287 241.146 543.287 241.856 543.998C242.221 544.363 242.413 544.844 242.413 545.362C242.413 545.862 242.221 546.362 241.856 546.727C241.492 547.073 241.011 547.284 240.492 547.284Z" fill="white"/>
<path d="M280.666 587.435C280.166 587.435 279.667 587.244 279.301 586.878C278.956 586.513 278.744 586.033 278.744 585.514C278.744 585.015 278.956 584.515 279.301 584.169C280.012 583.44 281.318 583.44 282.029 584.169C282.377 584.515 282.587 585.015 282.587 585.514C282.587 586.033 282.377 586.513 282.029 586.878C281.666 587.244 281.165 587.435 280.666 587.435Z" fill="white"/>
<path d="M264.029 547.284C263.53 547.284 263.031 547.073 262.665 546.727C262.319 546.362 262.107 545.862 262.107 545.362C262.107 544.844 262.319 544.345 262.665 543.998C263.376 543.287 264.663 543.287 265.393 543.998C265.74 544.363 265.95 544.844 265.95 545.362C265.95 545.862 265.74 546.362 265.393 546.727C265.029 547.073 264.53 547.284 264.029 547.284Z" fill="white"/>
<path d="M282.398 569.554C281.878 569.554 281.379 569.341 281.034 568.996C280.668 568.631 280.477 568.131 280.477 567.632C280.477 567.132 280.668 566.633 281.034 566.267C281.745 565.557 283.032 565.557 283.743 566.267C284.107 566.633 284.319 567.132 284.319 567.632C284.319 568.131 284.107 568.63 283.743 568.996C283.396 569.342 282.897 569.554 282.398 569.554Z" fill="white"/>
<path d="M246.14 545.554C245.62 545.554 245.14 545.343 244.776 544.997C244.41 544.632 244.219 544.152 244.219 543.633C244.219 543.134 244.41 542.634 244.776 542.269C245.487 541.558 246.774 541.558 247.504 542.269C247.849 542.634 248.061 543.134 248.061 543.633C248.061 544.132 247.849 544.632 247.504 544.997C247.139 545.343 246.639 545.554 246.14 545.554Z" fill="white"/>
<path d="M277.902 592.651C277.401 592.651 276.902 592.44 276.538 592.095C276.191 591.729 275.98 591.249 275.98 590.73C275.98 590.231 276.191 589.732 276.538 589.366C277.249 588.655 278.555 588.655 279.266 589.366C279.611 589.731 279.823 590.231 279.823 590.73C279.823 591.249 279.611 591.729 279.266 592.095C278.9 592.44 278.401 592.651 277.902 592.651Z" fill="white"/>
<path d="M269.236 550.049C268.737 550.049 268.238 549.838 267.872 549.492C267.526 549.127 267.314 548.628 267.314 548.128C267.314 547.609 267.527 547.129 267.872 546.764C268.583 546.053 269.891 546.053 270.581 546.764C270.947 547.11 271.157 547.609 271.157 548.128C271.157 548.628 270.947 549.127 270.581 549.492C270.236 549.838 269.737 550.049 269.236 550.049Z" fill="white"/>
<path d="M277.75 558.488C277.25 558.488 276.749 558.296 276.385 557.931C276.038 557.585 275.828 557.085 275.828 556.567C275.828 556.067 276.038 555.567 276.385 555.202C277.115 554.491 278.384 554.491 279.113 555.202C279.478 555.567 279.671 556.067 279.671 556.567C279.671 557.085 279.477 557.584 279.113 557.931C278.748 558.296 278.267 558.488 277.75 558.488Z" fill="white"/>
<path d="M235.076 550.182C234.556 550.182 234.076 549.99 233.712 549.625C233.364 549.279 233.154 548.779 233.154 548.279C233.154 547.761 233.364 547.262 233.712 546.915C234.423 546.204 235.728 546.204 236.44 546.915C236.785 547.261 236.997 547.761 236.997 548.279C236.997 548.779 236.785 549.279 236.44 549.625C236.074 549.99 235.575 550.182 235.076 550.182Z" fill="white"/>
<path d="M282.437 581.537C281.938 581.537 281.439 581.344 281.073 580.98C280.727 580.614 280.516 580.134 280.516 579.615C280.516 579.116 280.728 578.616 281.073 578.251C281.803 577.54 283.071 577.54 283.801 578.251C284.167 578.616 284.358 579.116 284.358 579.615C284.358 580.134 284.167 580.614 283.801 580.98C283.437 581.345 282.957 581.537 282.437 581.537Z" fill="white"/>
<path d="M258.128 545.494C257.609 545.494 257.128 545.302 256.764 544.937C256.417 544.572 256.207 544.091 256.207 543.573C256.207 543.073 256.417 542.573 256.764 542.227C257.475 541.497 258.762 541.497 259.492 542.227C259.838 542.573 260.05 543.073 260.05 543.573C260.05 544.091 259.837 544.59 259.492 544.937C259.127 545.302 258.628 545.494 258.128 545.494Z" fill="white"/>
<path d="M262.313 592.781C263.133 592.781 263.947 592.524 264.643 592.018C265.876 591.123 266.48 589.635 266.223 588.135L266.136 587.629L261.431 582.923L262.437 588.784L264.33 588.46L262.249 588.919L253.158 584.14C252.599 583.846 251.931 583.846 251.372 584.14L242.281 588.919L243.174 590.62L242.095 588.784L243.831 578.662C243.938 578.039 243.731 577.403 243.279 576.961L235.924 569.792L234.582 571.169L235.995 569.574L246.157 568.097C246.28 568.079 246.395 568.041 246.509 568.001L243.157 564.649L235.442 565.77C233.935 565.99 232.708 567.026 232.237 568.474C231.766 569.922 232.151 571.481 233.241 572.545L239.874 579.008L238.309 588.135C238.052 589.635 238.656 591.123 239.888 592.018C241.115 592.91 242.72 593.027 244.067 592.321L252.265 588.012L260.463 592.321C261.048 592.629 261.682 592.781 262.313 592.781Z" fill="#FFCD00"/>
<path d="M221.529 575.681C221.028 575.681 220.529 575.469 220.163 575.124C219.817 574.759 219.607 574.259 219.607 573.76C219.607 573.26 219.818 572.761 220.163 572.396C220.874 571.685 222.161 571.685 222.872 572.396C223.238 572.761 223.45 573.26 223.45 573.76C223.45 574.259 223.238 574.759 222.872 575.124C222.527 575.469 222.028 575.681 221.529 575.681Z" fill="#FFCD00"/>
<path d="M252.271 606.424C251.77 606.424 251.271 606.212 250.905 605.867C250.541 605.502 250.35 605.002 250.35 604.503C250.35 604.003 250.541 603.504 250.905 603.139C251.637 602.428 252.903 602.428 253.615 603.139C253.98 603.504 254.192 604.003 254.192 604.503C254.192 605.002 253.98 605.502 253.615 605.867C253.269 606.212 252.77 606.424 252.271 606.424Z" fill="#FFCD00"/>
<path d="M230.519 597.414C230.02 597.414 229.519 597.221 229.174 596.857C228.808 596.491 228.598 595.991 228.598 595.492C228.598 594.992 228.808 594.493 229.174 594.147C229.885 593.436 231.172 593.417 231.883 594.147C232.247 594.493 232.44 594.992 232.44 595.492C232.44 595.991 232.247 596.49 231.883 596.857C231.538 597.222 231.037 597.414 230.519 597.414Z" fill="#FFCD00"/>
<path d="M223.875 587.435C223.355 587.435 222.856 587.244 222.51 586.878C222.145 586.513 221.953 586.014 221.953 585.514C221.953 585.015 222.145 584.515 222.51 584.169C223.221 583.44 224.509 583.44 225.22 584.169C225.584 584.515 225.796 585.015 225.796 585.514C225.796 586.014 225.584 586.513 225.22 586.878C224.873 587.244 224.374 587.435 223.875 587.435Z" fill="#FFCD00"/>
<path d="M264.027 604.077C263.528 604.077 263.029 603.884 262.663 603.52C262.317 603.174 262.105 602.674 262.105 602.155C262.105 601.656 262.318 601.156 262.663 600.791C263.393 600.08 264.661 600.08 265.391 600.791C265.738 601.156 265.948 601.656 265.948 602.155C265.948 602.655 265.738 603.154 265.391 603.52C265.027 603.884 264.528 604.077 264.027 604.077Z" fill="#FFCD00"/>
<path d="M223.873 563.92C223.353 563.92 222.854 563.708 222.508 563.343C222.143 562.997 221.951 562.497 221.951 561.998C221.951 561.479 222.143 560.979 222.508 560.634C223.22 559.923 224.507 559.923 225.218 560.634C225.582 560.999 225.794 561.479 225.794 561.998C225.794 562.497 225.582 562.997 225.218 563.343C224.871 563.708 224.372 563.92 223.873 563.92Z" fill="#FFCD00"/>
<path d="M240.492 604.079C239.993 604.079 239.494 603.887 239.148 603.522C238.782 603.157 238.57 602.676 238.57 602.158C238.57 601.658 238.782 601.158 239.148 600.812C239.857 600.082 241.146 600.082 241.856 600.812C242.221 601.158 242.413 601.658 242.413 602.158C242.413 602.676 242.221 603.157 241.856 603.522C241.511 603.887 241.011 604.079 240.492 604.079Z" fill="#FFCD00"/>
<path d="M222.14 581.805C221.641 581.805 221.142 581.593 220.776 581.248C220.431 580.883 220.219 580.383 220.219 579.884C220.219 579.384 220.431 578.885 220.776 578.52C221.506 577.809 222.774 577.809 223.504 578.52C223.851 578.885 224.061 579.384 224.061 579.884C224.061 580.383 223.851 580.883 223.504 581.248C223.14 581.593 222.639 581.805 222.14 581.805Z" fill="#FFCD00"/>
<path d="M258.4 605.811C257.882 605.811 257.381 605.6 257.036 605.254C256.67 604.889 256.479 604.39 256.479 603.89C256.479 603.391 256.67 602.891 257.036 602.526C257.747 601.814 259.034 601.814 259.745 602.526C260.109 602.891 260.321 603.391 260.321 603.89C260.321 604.39 260.109 604.889 259.745 605.254C259.4 605.6 258.899 605.811 258.4 605.811Z" fill="#FFCD00"/>
<path d="M226.636 558.714C226.118 558.714 225.619 558.503 225.272 558.157C224.908 557.792 224.715 557.292 224.715 556.793C224.715 556.274 224.908 555.794 225.272 555.429C225.983 554.718 227.27 554.718 227.981 555.429C228.347 555.794 228.557 556.293 228.557 556.793C228.557 557.292 228.347 557.792 227.981 558.157C227.636 558.503 227.137 558.714 226.636 558.714Z" fill="#FFCD00"/>
<path d="M235.302 601.31C234.783 601.31 234.283 601.099 233.938 600.753C233.572 600.388 233.381 599.908 233.381 599.389C233.381 598.889 233.572 598.39 233.938 598.044C234.647 597.314 235.936 597.314 236.646 598.044C237.011 598.39 237.223 598.889 237.223 599.389C237.223 599.908 237.011 600.388 236.646 600.753C236.301 601.099 235.801 601.31 235.302 601.31Z" fill="#FFCD00"/>
<path d="M226.773 592.879C226.274 592.879 225.775 592.667 225.409 592.303C225.063 591.956 224.852 591.457 224.852 590.957C224.852 590.438 225.064 589.958 225.409 589.593C226.139 588.882 227.426 588.882 228.137 589.593C228.503 589.958 228.694 590.438 228.694 590.957C228.694 591.457 228.503 591.956 228.137 592.303C227.773 592.667 227.293 592.879 226.773 592.879Z" fill="#FFCD00"/>
<path d="M269.464 601.163C268.947 601.163 268.447 600.971 268.1 600.606C267.736 600.261 267.543 599.76 267.543 599.242C267.543 598.743 267.736 598.243 268.1 597.897C268.793 597.186 270.098 597.166 270.81 597.897C271.175 598.243 271.386 598.743 271.386 599.242C271.386 599.76 271.175 600.261 270.81 600.606C270.464 600.971 269.965 601.163 269.464 601.163Z" fill="#FFCD00"/>
<path d="M222.083 569.818C221.584 569.818 221.085 569.607 220.719 569.242C220.374 568.896 220.162 568.397 220.162 567.897C220.162 567.378 220.374 566.897 220.719 566.532C221.43 565.821 222.738 565.821 223.449 566.532C223.813 566.897 224.005 567.378 224.005 567.897C224.005 568.397 223.813 568.896 223.449 569.242C223.084 569.607 222.585 569.818 222.083 569.818Z" fill="#FFCD00"/>
<path d="M246.391 605.866C245.892 605.866 245.393 605.654 245.045 605.289C244.681 604.944 244.488 604.444 244.488 603.944C244.488 603.426 244.682 602.926 245.045 602.58C245.757 601.869 247.044 601.869 247.755 602.58C248.121 602.926 248.312 603.426 248.312 603.944C248.312 604.444 248.121 604.944 247.755 605.289C247.41 605.654 246.911 605.866 246.391 605.866Z" fill="#FFCD00"/>
<path d="M229.172 550.669C228.808 551.014 228.598 551.513 228.598 552.03C228.598 552.529 228.808 553.029 229.174 553.375C229.519 553.74 230.02 553.952 230.519 553.952C231.035 553.952 231.514 553.74 231.88 553.377L229.172 550.669Z" fill="#FFCD00"/>
<path d="M274.001 597.414C274.499 597.414 274.997 597.222 275.363 596.858L272.646 594.142C272.644 594.144 272.64 594.145 272.637 594.147C272.292 594.493 272.08 594.993 272.08 595.493C272.08 596.01 272.292 596.51 272.637 596.857C273.001 597.222 273.502 597.414 274.001 597.414Z" fill="#FFCD00"/>
</g>
<path d="M503.672 469.631C512.058 464.79 522.391 464.79 530.777 469.631L582.896 499.722C591.282 504.564 596.449 513.512 596.449 523.196V583.378C596.449 593.062 591.282 602.01 582.896 606.852L530.777 636.943C522.391 641.785 512.058 641.785 503.672 636.943L451.553 606.852C443.166 602.01 438 593.062 438 583.378V523.196C438 513.512 443.166 504.564 451.553 499.722L503.672 469.631Z" fill="white"/>
<path d="M503.594 478.769C511.936 473.952 522.215 473.952 530.557 478.769L574.619 504.208C582.961 509.024 588.1 517.925 588.1 527.558V578.437C588.1 588.069 582.961 596.971 574.619 601.787L530.557 627.226C522.215 632.043 511.936 632.043 503.594 627.226L459.532 601.787C451.19 596.971 446.051 588.069 446.051 578.437V527.558C446.051 517.925 451.19 509.024 459.532 504.208L503.594 478.769Z" fill="url(#paint2_linear)"/>
<mask id="mask2" mask-type="alpha" maskUnits="userSpaceOnUse" x="446" y="475" width="143" height="156">
<path d="M503.594 478.769C511.936 473.952 522.215 473.952 530.557 478.769L574.619 504.208C582.961 509.024 588.1 517.925 588.1 527.558V578.437C588.1 588.069 582.961 596.971 574.619 601.787L530.557 627.226C522.215 632.043 511.936 632.043 503.594 627.226L459.532 601.787C451.19 596.971 446.051 588.069 446.051 578.437V527.558C446.051 517.925 451.19 509.024 459.532 504.208L503.594 478.769Z" fill="url(#paint3_linear)"/>
</mask>
<g mask="url(#mask2)">
<path d="M476.439 586.368L460.904 623.49L516.384 657.482C526.296 654.053 546.476 646.927 547.896 645.853C549.316 644.78 562.395 627.218 568.756 618.571L564.318 605.6L555.885 591.288L543.901 599.339L539.463 595.314L525.704 573.398L516.384 563.111L496.855 595.314L476.439 586.368Z" fill="#62CCF9"/>
<path opacity="0.12449" fill-rule="evenodd" clip-rule="evenodd" d="M513.706 728.259C567.686 728.259 611.446 684.499 611.446 630.518C611.446 576.537 567.686 532.777 513.706 532.777C459.725 532.777 415.965 576.537 415.965 630.518C415.965 684.499 459.725 728.259 513.706 728.259Z" fill="white"/>
<path opacity="0.1" fill-rule="evenodd" clip-rule="evenodd" d="M513.145 706.914C553.165 706.914 585.608 674.219 585.608 633.889C585.608 593.559 553.165 560.864 513.145 560.864C473.124 560.864 440.682 593.559 440.682 633.889C440.682 674.219 473.124 706.914 513.145 706.914Z" fill="white"/>
<path d="M457.514 616.916C460.05 611.025 461.433 608.041 464.276 602.15C464.276 602.15 468.503 598.401 468.887 597.789C469.272 597.177 475.189 588.532 475.189 588.532C476.188 586.007 476.726 584.783 477.725 582.258C481.106 584.477 482.72 585.548 486.025 587.843C487.946 588.302 488.945 588.532 490.866 588.991C492.711 589.526 493.556 589.832 495.4 590.444C500.395 583.176 505.544 576.061 510.924 569.022C513.075 565.656 514.151 563.896 516.457 560.53C516.995 559.765 517.225 559.382 517.763 558.617C520.53 562.366 521.836 564.279 524.449 568.104C524.987 567.951 525.218 567.875 525.756 567.722C527.523 572.465 528.445 574.837 530.059 579.58C532.211 582.717 533.287 584.324 535.362 587.537C537.052 589.985 537.898 591.286 539.511 593.811C541.51 594.958 542.509 595.57 544.507 596.718C544.507 596.718 552.883 592.893 554.036 592.051C555.189 591.21 558.954 587.002 558.954 587.002C559.876 588.685 560.338 589.526 561.183 591.133C562.566 593.811 563.181 595.111 564.487 597.789C565.486 601.385 566.024 603.145 566.947 606.741C569.636 613.091 570.866 616.228 573.248 622.654C570.558 616.687 569.175 613.703 566.101 607.812C565.102 604.675 564.564 603.145 563.488 600.084C561.951 598.095 561.183 597.101 559.646 595.035C558.416 594.423 557.801 594.117 556.495 593.505C555.88 596.106 555.496 597.407 554.881 600.008C555.803 601.003 556.265 601.538 557.264 602.533C557.417 604.751 557.494 605.899 557.648 608.118C558.647 609.112 559.185 609.648 560.184 610.643C562.566 612.326 563.719 613.167 566.024 614.85C563.719 614.009 562.489 613.55 560.184 612.708C559.723 612.938 559.492 613.091 559.108 613.32C557.033 612.402 556.034 611.943 553.959 611.025C553.037 611.637 552.576 611.943 551.654 612.632C553.805 616.457 554.804 618.37 556.802 622.195C554.113 621.201 552.806 620.742 550.117 619.747C549.194 618.599 548.81 618.064 547.888 616.916C547.657 615.462 547.504 614.697 547.273 613.244C545.583 613.091 544.737 613.014 543.047 612.861C543.047 612.861 543.047 611.714 542.816 611.714C542.509 611.714 540.28 608.424 540.28 608.424C537.975 608.041 536.822 607.888 534.516 607.506C538.051 604.139 539.819 602.533 543.508 599.243C543.508 599.243 537.437 594.805 537.052 594.805C536.668 594.805 529.905 584.783 529.521 584.553C529.137 584.324 525.756 574.837 525.141 573.46C524.449 572.083 518.839 564.967 518.839 564.967C517.302 567.416 516.457 568.64 514.997 571.088C516.764 571.7 517.61 572.006 519.377 572.618C519.377 572.618 518.378 581.57 520.222 582.717C522.067 583.865 522.989 584.018 522.989 584.018C522.22 585.012 521.913 585.548 521.145 586.543C521.145 586.543 525.064 593.046 523.834 595.341C523.834 595.341 527.6 594.958 527.216 598.401C526.908 601.844 527.83 606.052 528.753 606.358C528.753 606.358 527.293 609.724 527.6 611.484C527.907 613.244 532.902 614.697 532.902 614.697C532.902 614.697 521.836 617.069 518.762 616.151C515.611 615.233 506.774 610.03 506.774 610.03C506.774 610.03 506.313 607.429 506.236 606.435C506.236 606.435 501.471 605.976 498.858 606.588C498.628 605.593 498.551 605.057 498.321 603.986C497.475 603.91 497.014 603.91 496.169 603.833C496.169 603.833 495.477 601.385 495.17 601.309C494.862 601.232 490.943 597.713 490.943 597.713C489.099 594.576 488.1 593.046 486.178 589.909C483.719 588.991 482.49 588.608 479.954 587.767C479.339 589.373 479.108 590.138 478.494 591.745C480.568 593.964 481.567 595.035 483.642 597.33C485.103 602.456 485.871 604.981 487.254 610.107C484.565 610.872 483.258 611.255 480.645 612.096C479.723 613.856 479.262 614.697 478.417 616.457C475.957 617.528 474.728 618.064 472.346 619.211C469.579 619.747 468.196 619.976 465.429 620.589C465.429 618.982 465.506 618.217 465.506 616.61C463.815 616.457 462.893 616.304 461.203 616.151C458.743 617.987 457.591 618.676 455.285 620.129C456.13 618.829 456.592 618.217 457.514 616.916Z" fill="url(#paint4_linear)"/>
</g>
<path d="M536.399 537.513H528.348V542.344H536.399V537.513Z" fill="#871B1B"/>
<path d="M517.881 512.555C517.437 512.555 517.076 512.915 517.076 513.36V515.775V560.058C517.076 560.503 517.437 560.863 517.881 560.863C518.326 560.863 518.686 560.503 518.686 560.058V515.775V513.36C518.686 512.915 518.326 512.555 517.881 512.555Z" fill="white"/>
<path d="M536.401 515.776H518.688V539.126H536.401V515.776Z" fill="url(#paint5_linear)"/>
<path d="M536.399 519.801V539.124H531.568C529.79 539.124 528.348 540.566 528.348 542.345C528.348 544.123 529.79 545.565 531.568 545.565H534.789H561.359L552.502 532.683L561.359 519.801H536.399Z" fill="url(#paint6_linear)"/>
<path d="M528.348 542.345C528.348 544.123 529.79 545.565 531.568 545.565H534.789H536.399V539.124H531.568C529.79 539.124 528.348 540.566 528.348 542.345Z" fill="#333333"/>
<path d="M371.596 238.631C379.982 233.79 390.314 233.79 398.701 238.631L450.82 268.722C459.206 273.564 464.373 282.512 464.373 292.196V352.378C464.373 362.062 459.206 371.01 450.82 375.852L398.701 405.943C390.314 410.785 379.982 410.785 371.596 405.943L319.476 375.852C311.09 371.01 305.924 362.062 305.924 352.378V292.196C305.924 282.512 311.09 273.564 319.476 268.722L371.596 238.631Z" fill="white"/>
<path d="M371.595 247.667C379.982 242.825 390.314 242.825 398.7 247.667L442.995 273.24C451.381 278.082 456.547 287.03 456.547 296.714V347.861C456.547 357.544 451.381 366.493 442.995 371.335L398.7 396.908C390.314 401.75 379.982 401.75 371.595 396.908L327.301 371.335C318.914 366.493 313.748 357.544 313.748 347.861V296.714C313.748 287.03 318.914 278.082 327.301 273.24L371.595 247.667Z" fill="url(#paint7_linear)"/>
<g clip-path="url(#clip0)">
<path d="M337.601 334.374L338.166 335.503C338.279 335.616 338.391 335.842 338.617 335.842L339.86 336.068L338.956 336.859C338.843 336.972 338.73 337.197 338.843 337.31L339.069 338.553L338.053 337.988C337.94 337.875 337.714 337.875 337.488 337.988L336.472 338.553L336.697 337.31C336.697 337.085 336.697 336.972 336.584 336.859L335.455 335.955L336.697 335.842C336.923 335.842 337.036 335.729 337.149 335.503L337.601 334.374Z" fill="white"/>
<path d="M411.35 360.688L411.802 361.705L413.044 361.931L412.141 362.721L412.367 363.964L411.35 363.399L410.221 363.964L410.447 362.721L409.656 361.931L410.786 361.705L411.35 360.688Z" fill="#BABCBE"/>
</g>
<mask id="mask3" mask-type="alpha" maskUnits="userSpaceOnUse" x="313" y="244" width="144" height="157">
<path d="M371.595 247.667C379.982 242.825 390.314 242.825 398.7 247.667L442.995 273.24C451.381 278.082 456.547 287.03 456.547 296.714V347.861C456.547 357.544 451.381 366.493 442.995 371.335L398.7 396.908C390.314 401.75 379.982 401.75 371.595 396.908L327.301 371.335C318.914 366.493 313.748 357.544 313.748 347.861V296.714C313.748 287.03 318.914 278.082 327.301 273.24L371.595 247.667Z" fill="url(#paint8_linear)"/>
</mask>
<g mask="url(#mask3)">
<path d="M348.555 286.161C348.555 289.515 347.717 292.589 346.32 295.383C343.805 300.693 339.054 304.885 333.465 306.841C331.229 307.679 328.994 307.959 326.479 307.959C316.977 307.959 308.594 301.811 305.799 292.868C305.24 290.912 304.961 288.676 304.961 286.161C304.961 284.485 305.24 282.808 305.52 281.131C307.755 271.63 316.418 264.364 326.758 264.364C337.936 264.364 347.158 272.748 348.555 283.646C348.555 284.485 348.555 285.323 348.555 286.161Z" fill="white"/>
<path d="M348.555 286.163C348.555 289.517 347.716 292.591 346.319 295.385C343.525 294.826 341.289 292.591 341.289 289.517C341.289 286.163 344.084 283.648 347.158 283.648C347.437 283.648 347.716 283.648 347.996 283.648C348.555 284.487 348.555 285.325 348.555 286.163Z" fill="#CDF1FF"/>
<path d="M326.479 276.941C328.639 276.941 330.391 275.189 330.391 273.029C330.391 270.868 328.639 269.116 326.479 269.116C324.318 269.116 322.566 270.868 322.566 273.029C322.566 275.189 324.318 276.941 326.479 276.941Z" fill="#CDF1FF"/>
<path d="M333.746 306.841C331.51 307.679 329.275 307.959 326.76 307.959C327.319 306.282 328.716 305.164 330.393 305.164C331.79 305.164 332.908 306.002 333.746 306.841Z" fill="#CDF1FF"/>
<path d="M326.479 293.148C326.479 294.266 325.64 295.104 324.523 295.104C323.405 295.104 322.566 294.266 322.566 293.148C322.566 292.03 323.405 291.192 324.523 291.192C325.64 290.912 326.479 292.03 326.479 293.148Z" fill="#CDF1FF"/>
<rect x="227.035" y="344.551" width="316.229" height="144.562" fill="url(#paint9_linear)"/>
<path d="M441.513 312.792C445.737 323.744 447.223 325.934 462.634 361.841C465.998 369.742 467.719 376.234 468.344 381.632C470.535 400.954 458.566 405.804 458.566 405.804C426.571 422.623 391.056 399.937 375.098 382.884C359.139 365.83 361.173 341.423 363.129 306.612C363.129 306.612 363.442 283.144 380.261 276.964C395.984 271.175 400.365 272.114 407.484 272.74C414.133 273.366 422.19 280.406 427.823 287.603L441.513 312.792Z" fill="url(#paint10_linear)"/>
<path d="M386.911 287.603C386.911 287.603 384.564 280.719 376.585 285.648C368.527 290.576 366.806 300.276 366.102 316.548C365.555 328.516 386.52 310.837 386.52 310.837C386.52 310.837 394.89 322.18 407.797 319.833C420.705 317.564 423.052 308.255 421.878 299.572C420.314 288.151 400.992 270.393 386.911 287.603Z" fill="#FFE1CF"/>
<path d="M380.651 302.543C380.025 307.158 377.522 310.6 374.941 310.209C372.359 309.818 370.716 305.829 371.342 301.213C371.968 296.598 374.471 293.156 377.053 293.547C379.634 293.938 381.277 298.006 380.651 302.543Z" fill="white"/>
<path d="M378.227 302.229C377.836 305.358 376.193 307.783 374.629 307.548C373.064 307.314 372.125 304.576 372.516 301.446C372.908 298.317 374.55 295.892 376.115 296.127C377.679 296.283 378.618 299.021 378.227 302.229Z" fill="#684040"/>
<path d="M410.614 299.574C410.614 304.189 407.093 307.944 402.713 307.944C398.332 307.944 394.812 304.189 394.89 299.495C394.89 294.88 398.41 291.125 402.791 291.125C407.093 291.125 410.614 294.88 410.614 299.574Z" fill="white"/>
<path d="M407.329 299.574C407.329 302.781 404.825 305.363 401.853 305.363C398.802 305.363 396.377 302.781 396.377 299.574C396.377 296.367 398.88 293.785 401.853 293.785C404.904 293.785 407.329 296.367 407.329 299.574Z" fill="#684040"/>
<path d="M386.754 300.275L391.134 315.295C391.134 315.295 386.441 316.39 385.033 317.955C381.747 321.553 380.339 315.53 380.339 315.53C380.339 315.53 379.166 308.567 386.754 300.275Z" fill="#5B5B5B"/>
<path d="M385.034 308.256C384.565 308.256 384.252 307.552 384.252 306.77C384.252 305.987 384.643 305.283 385.112 305.283C385.582 305.283 385.895 305.987 385.895 306.77C385.816 307.63 385.425 308.256 385.034 308.256Z" fill="#47314A"/>
<g opacity="0.47">
<path opacity="0.47" d="M382.608 317.875C382.53 317.953 382.373 317.953 382.06 317.875C381.826 317.718 381.434 317.405 381.2 316.858C380.965 316.388 380.809 315.684 380.809 315.059C380.73 314.433 380.73 313.729 380.809 313.025C380.887 311.46 381.513 310.13 382.139 309.348C382.764 308.566 383.312 308.253 383.468 308.409C383.781 308.722 382.608 310.6 382.451 313.103C382.451 313.807 382.373 314.433 382.373 315.059C382.373 315.606 382.295 316.075 382.373 316.467C382.373 317.171 382.686 317.64 382.608 317.875Z" fill="#F3C3FC"/>
</g>
<path d="M387.303 368.881C387.538 369.037 387.616 369.429 387.459 369.898C387.381 370.367 387.068 371.071 386.442 371.854C386.129 372.245 385.738 372.636 385.113 372.949C384.565 373.262 383.783 373.575 382.922 373.575C381.201 373.575 379.558 372.714 378.541 371.384C377.524 370.054 377.055 368.724 376.82 367.629C376.586 366.456 376.586 365.439 376.664 364.5C376.899 362.701 377.524 361.762 378.072 361.84C378.62 361.919 379.011 362.857 379.558 364.266C379.793 364.97 380.106 365.752 380.497 366.612C380.888 367.473 381.279 368.333 381.749 368.881C382.218 369.428 382.766 369.741 383.157 369.898C383.548 370.054 384.096 369.976 384.721 369.663C385.347 369.428 385.895 369.116 386.364 368.959C386.755 368.724 387.068 368.724 387.303 368.881Z" fill="#684E54"/>
<path d="M399.176 382.313C399.332 382.548 399.254 382.939 398.941 383.33C398.55 383.8 397.924 384.269 396.907 384.504C395.89 384.817 394.639 384.817 393.231 384.347C392.527 384.113 391.823 383.643 391.197 383.096C390.571 382.548 390.102 381.844 389.789 381.14C389.085 379.732 388.928 378.402 388.772 377.385C388.615 376.29 388.537 375.351 388.537 374.569C388.537 372.926 388.772 371.831 389.319 371.674C389.867 371.518 390.571 372.379 391.353 373.865C391.744 374.569 392.057 375.508 392.448 376.525C392.761 377.542 393.074 378.558 393.465 379.341C393.857 380.123 394.248 380.514 394.795 380.905C395.343 381.296 396.047 381.531 396.673 381.609C397.846 381.922 398.863 381.844 399.176 382.313Z" fill="#684E54"/>
<path d="M409.443 374.751C409.678 374.829 409.834 375.221 409.756 375.768C409.678 376.316 409.208 377.02 408.426 377.489C407.644 378.037 406.705 378.35 405.61 378.506C405.062 378.584 404.358 378.584 403.498 378.271C403.106 378.115 402.637 377.88 402.246 377.567C401.855 377.255 401.62 376.942 401.385 376.629C400.916 376.003 400.76 375.534 400.603 375.064C400.369 374.595 400.212 374.125 400.056 373.656C399.743 372.717 399.586 371.779 399.664 370.996C399.664 370.214 399.899 369.51 400.212 369.119C400.447 368.728 400.838 368.571 401.073 368.571C401.62 368.728 401.933 369.51 402.559 370.449C403.185 371.544 403.967 372.874 404.827 374.36C404.906 374.438 404.984 374.517 404.984 374.517C404.984 374.517 404.984 374.517 404.984 374.595C405.062 374.673 405.297 374.751 405.61 374.751C406.314 374.829 406.861 374.908 407.331 374.829C407.8 374.829 408.191 374.829 408.582 374.751C408.817 374.673 409.208 374.595 409.443 374.751Z" fill="#684E54"/>
<path d="M413.899 388.598C414.134 388.754 414.212 389.067 414.056 389.537C413.899 390.006 413.508 390.553 412.882 391.023C412.178 391.492 411.239 391.805 410.144 391.805C409.049 391.805 407.876 391.492 406.78 390.71C405.763 389.928 405.059 388.911 404.747 387.972C404.355 387.033 404.277 386.173 404.355 385.39C404.512 383.904 405.138 383.2 405.685 383.278C406.233 383.357 406.702 384.061 407.172 384.921C407.719 385.782 408.345 386.799 409.205 387.424C409.91 387.972 411.005 388.285 411.787 388.285C412.647 388.441 413.43 388.285 413.899 388.598Z" fill="#684E54"/>
<path d="M416.012 345.02C416.012 345.02 448.242 386.402 471.71 388.202C472.649 388.28 473.509 388.28 474.37 388.202L445.113 321.787C445.113 321.787 436.743 309.74 420.706 321.708C404.669 333.677 416.012 345.02 416.012 345.02Z" fill="url(#paint11_linear)"/>
</g>
<path d="M388.361 261.314L388.926 262.331C389.039 262.444 389.151 262.67 389.377 262.67L390.507 262.783C390.959 262.896 391.184 263.46 390.846 263.799L390.055 264.59C389.942 264.703 389.829 264.928 389.942 265.041L390.168 266.171C390.281 266.623 389.716 266.961 389.377 266.735L388.361 266.171C388.248 266.058 388.022 266.058 387.796 266.171L386.78 266.735C386.328 266.961 385.876 266.623 385.989 266.171L386.215 265.041C386.215 264.816 386.215 264.703 386.102 264.59L385.312 263.799C384.973 263.46 385.199 262.896 385.65 262.783L386.78 262.67C387.006 262.67 387.119 262.557 387.232 262.331L387.344 261.314C387.57 260.863 388.248 260.863 388.361 261.314Z" fill="white"/>
<path d="M106.595 238.631C114.982 233.79 125.314 233.79 133.701 238.631L185.82 268.722C194.206 273.564 199.372 282.512 199.372 292.196V352.378C199.372 362.062 194.206 371.01 185.82 375.852L133.701 405.943C125.314 410.785 114.982 410.785 106.595 405.943L54.4765 375.852C46.0901 371.01 40.9238 362.062 40.9238 352.378V292.196C40.9238 282.512 46.0901 273.564 54.4765 268.722L106.595 238.631Z" fill="white"/>
<path d="M106.595 247.666C114.981 242.824 125.314 242.824 133.7 247.666L177.995 273.239C186.381 278.081 191.547 287.029 191.547 296.713V347.859C191.547 357.543 186.381 366.491 177.995 371.333L133.7 396.907C125.314 401.749 114.981 401.749 106.595 396.907L62.3007 371.333C53.9143 366.491 48.748 357.543 48.748 347.859V296.713C48.748 287.029 53.9143 278.081 62.3007 273.239L106.595 247.666Z" fill="url(#paint12_linear)"/>
<path d="M146.014 306.289C143.651 303.708 139.977 300.226 138.414 308.089C137.882 310.763 136.64 312.824 135.576 314.483C134.429 308.677 130.978 302.668 127.726 298.617C126.509 297.101 122.191 291.075 121.362 280.993C121.238 279.489 119.451 278.782 118.333 279.797C107.65 289.495 101.786 302.832 101.569 317.848C101.569 317.848 97.1201 314.098 94.7035 307.123C94.0527 305.244 91.5344 304.886 90.4418 306.547C90.232 306.866 90.0376 307.185 89.8621 307.495C81.6198 322.069 77.655 339.767 81.3204 356.233C87.449 383.808 127.989 391.517 149.451 374.185C170.45 357.229 163.775 325.669 146.014 306.289Z" fill="#FF7DB4"/>
<path d="M87.0229 357.969C83.4 341.327 87.2349 323.457 95.2836 308.654C95.08 308.163 94.8842 307.655 94.7013 307.127C94.0505 305.249 91.5322 304.891 90.4396 306.552C90.2298 306.871 90.0356 307.19 89.8602 307.5C81.6179 322.074 77.653 339.772 81.3184 356.238C84.1139 368.815 94.0694 377.257 106.108 381.077C96.7164 376.528 89.3621 368.73 87.0229 357.969Z" fill="#FF649A"/>
<path d="M107.299 317.577C107.744 303.95 112.673 291.73 121.495 282.343C121.434 281.826 121.389 281.364 121.36 281.013C121.234 279.495 119.512 278.734 118.399 279.74C108.081 289.069 101.792 302.272 101.566 317.853L103.498 319.353C104.449 320.092 105.737 320.06 106.646 319.383C107.188 318.924 107.265 318.23 107.299 317.577Z" fill="#FF649A"/>
<path d="M139.535 326.446C137.789 324.54 135.075 321.968 133.921 327.776C133.529 329.751 132.611 331.273 131.825 332.499C130.978 328.211 128.429 323.772 126.027 320.779C125.128 319.66 121.939 315.209 121.326 307.762C121.235 306.651 119.915 306.129 119.089 306.879C111.199 314.041 106.867 323.893 106.707 334.984C106.707 334.984 103.421 332.214 101.636 327.062C101.156 325.675 99.2954 325.41 98.4885 326.637C98.3337 326.872 98.1899 327.108 98.0604 327.337C91.9723 338.102 89.0437 351.174 91.751 363.336C96.2778 383.703 126.221 389.398 142.074 376.596C157.583 364.072 152.653 340.761 139.535 326.446Z" fill="#F4A32C"/>
<path d="M97.397 364.938C95 353.049 97.4827 340.293 102.746 329.67C102.345 328.885 101.965 328.016 101.636 327.067C101.155 325.679 99.2952 325.414 98.4883 326.641C98.3334 326.876 98.1897 327.113 98.0601 327.342C91.9723 338.106 89.044 351.179 91.7508 363.34C93.8563 372.813 101.46 379.109 110.586 381.85C104.102 378.598 98.997 372.885 97.397 364.938Z" fill="#E89528"/>
<path d="M133.999 348.648C132.933 347.499 131.274 345.949 130.568 349.45C130.328 350.64 129.767 351.558 129.287 352.296C128.769 349.712 127.211 347.036 125.742 345.232C125.193 344.557 123.243 341.874 122.869 337.386C122.813 336.716 122.006 336.402 121.501 336.853C116.678 341.171 114.03 347.109 113.932 353.794C113.932 353.794 111.924 352.125 110.833 349.019C110.539 348.183 109.402 348.023 108.909 348.763C108.814 348.905 108.727 349.047 108.648 349.185C104.926 355.674 103.136 363.553 104.791 370.884C108.56 387.604 139.45 387.097 141.345 368.393C141.974 362.155 139.539 354.609 133.999 348.648Z" fill="#EAE9E8"/>
<path d="M112.123 374.363C110.434 367.777 112.261 360.698 116.059 354.869C116.139 354.745 116.229 354.617 116.325 354.49C116.829 353.825 117.989 353.969 118.289 354.72C119.402 357.51 121.452 359.01 121.452 359.01C121.534 354.075 123.376 349.596 126.76 346.003C126.003 344.986 123.688 342.535 123.252 337.389C123.195 336.716 122.371 336.401 121.857 336.854C116.935 341.19 114.232 347.154 114.132 353.868C114.132 353.868 112.083 352.191 110.969 349.072C110.67 348.232 109.509 348.072 109.006 348.815C108.909 348.958 108.82 349.101 108.739 349.239C104.942 355.755 103.115 363.669 104.804 371.031C106.367 377.855 112.787 381.957 119.886 382.946C116.057 381.122 113.114 378.232 112.123 374.363Z" fill="#F7E7A1"/>
<path d="M104.176 285.079C108.966 281.183 108.955 273.895 104.176 270.008C99.3866 273.903 99.397 281.192 104.176 285.079Z" fill="#F4A32C"/>
<path d="M161.587 316.343C166.376 312.447 166.366 305.158 161.587 301.271C159.397 303.052 156.808 312.456 161.587 316.343Z" fill="#F4A32C"/>
<path d="M76.753 319.312C80.2049 316.504 80.1974 311.252 76.753 308.45C75.1753 309.733 73.3086 316.511 76.753 319.312Z" fill="#F4A32C"/>
<path d="M136.537 295.941C139.989 293.133 139.982 287.881 136.537 285.079C133.085 287.887 133.093 293.14 136.537 295.941Z" fill="#F4A32C"/>
<path d="M111.111 333.203C111.904 323.844 115.478 315.523 121.478 309.179C121.418 308.72 121.367 308.248 121.327 307.762C121.235 306.651 119.915 306.129 119.09 306.879C112.837 312.555 108.824 319.92 107.346 328.252L107.344 328.251C107.234 328.869 107.098 329.769 107.012 330.476C107.012 330.477 107.012 330.478 107.013 330.478C106.833 331.954 106.729 333.457 106.707 334.984C106.874 335.017 110.654 336.96 111.111 333.203Z" fill="#E89528"/>
<path d="M503.672 11.6315C512.059 6.78952 522.391 6.78952 530.778 11.6315L582.897 41.7226C591.284 46.5646 596.45 55.5129 596.45 65.1967V125.379C596.45 135.063 591.284 144.011 582.897 148.853L530.778 178.944C522.391 183.786 512.059 183.786 503.672 178.944L451.553 148.853C443.166 144.011 438 135.063 438 125.379V65.1967C438 55.5129 443.166 46.5646 451.553 41.7226L503.672 11.6315Z" fill="white"/>
<path d="M503.486 20.6299C511.849 15.8017 522.152 15.8017 530.515 20.6299L574.684 46.131C583.047 50.9593 588.198 59.8821 588.198 69.5386V120.541C588.198 130.197 583.047 139.12 574.684 143.948L530.515 169.449C522.152 174.278 511.849 174.278 503.486 169.449L459.317 143.948C450.954 139.12 445.803 130.197 445.803 120.541V69.5386C445.803 59.8821 450.954 50.9593 459.317 46.131L503.486 20.6299Z" fill="url(#paint13_linear)"/>
<mask id="mask4" mask-type="alpha" maskUnits="userSpaceOnUse" x="445" y="17" width="144" height="157">
<path d="M503.484 20.6329C511.847 15.8047 522.15 15.8047 530.513 20.6329L574.682 46.134C583.045 50.9622 588.197 59.8851 588.197 69.5415V120.544C588.197 130.2 583.045 139.123 574.682 143.951L530.513 169.452C522.15 174.281 511.847 174.281 503.484 169.452L459.315 143.951C450.952 139.123 445.801 130.2 445.801 120.544V69.5415C445.801 59.8851 450.952 50.9622 459.315 46.134L503.484 20.6329Z" fill="#FFE1CF"/>
</mask>
<g mask="url(#mask4)">
<rect x="437.998" y="8.00293" width="172.308" height="171.182" fill="url(#paint14_linear)"/>
<path d="M594.752 117.092C597.746 113.434 600.739 109.276 603.234 104.452C594.586 95.1388 582.777 88.9851 569.805 87.4883C577.455 92.8104 591.093 103.787 594.752 117.092Z" fill="url(#paint15_linear)"/>
<path d="M581.447 129.898C584.94 127.237 588.765 124.077 592.258 120.086C592.258 119.919 592.092 119.919 592.092 119.753C588.765 102.955 566.645 89.1511 563.485 87.1553C560.99 87.1553 558.496 87.3216 555.835 87.6542C549.016 88.6521 542.696 90.8142 537.041 93.9742C545.357 95.4711 565.481 102.124 581.447 129.898Z" fill="url(#paint16_linear)"/>
<path d="M564.818 142.706C564.319 144.702 563.154 150.356 563.321 158.339C603.569 155.179 615.71 137.716 617.373 134.723C617.373 134.39 617.373 134.057 617.207 133.725C615.71 123.58 611.552 114.432 605.565 107.114C591.428 132.394 569.474 141.043 564.818 142.706Z" fill="url(#paint17_linear)"/>
<path d="M561.823 141.871C560.492 140.208 556.168 135.551 549.183 130.562C529.225 157.338 539.537 188.107 540.535 190.601C549.183 194.593 558.829 196.589 568.808 195.591C556.002 169.646 560.659 146.528 561.823 141.871Z" fill="url(#paint18_linear)"/>
<path d="M572.466 160.503C569.638 160.835 566.478 161.168 563.318 161.501C563.485 166.157 564.15 171.646 565.48 177.301C588.931 181.957 612.714 163.663 613.047 163.496C613.047 163.496 613.047 163.496 613.213 163.496C616.539 156.178 618.203 148.029 617.87 139.547C612.88 145.534 600.24 156.511 572.466 160.503Z" fill="url(#paint19_linear)"/>
<path d="M563.984 139.545C566.146 138.714 571.967 136.385 578.786 131.729C559.66 97.8003 533.548 96.636 533.216 96.636C533.049 96.636 532.883 96.636 532.883 96.4697C526.23 101.127 520.742 107.114 516.584 113.933C545.024 118.756 560.491 135.388 563.984 139.545Z" fill="url(#paint20_linear)"/>
<path d="M580.948 180.791C576.291 181.456 571.302 181.622 566.479 180.791C567.809 185.448 569.639 190.271 572.133 195.094C588.598 192.433 602.07 182.787 610.053 169.481C604.066 173.307 593.255 178.961 580.948 180.791Z" fill="url(#paint21_linear)"/>
<path d="M546.352 128.731C542.527 126.403 538.202 123.908 533.213 121.912C515.584 134.552 517.08 168.813 517.08 169.146C517.08 169.312 517.08 169.478 517.08 169.478C521.904 177.295 528.556 183.782 536.373 188.272C533.878 179.125 528.889 152.514 546.352 128.731Z" fill="url(#paint22_linear)"/>
<path d="M529.723 120.75C525.233 119.253 520.409 117.922 515.087 117.091C510.264 126.737 508.268 137.714 509.765 149.19C510.43 154.346 511.927 159.169 513.923 163.659C514.256 153.181 516.584 131.727 529.723 120.75Z" fill="url(#paint23_linear)"/>
<path d="M519.743 175.135C519.743 175.135 506.105 151.186 519.077 121.914C532.05 92.6428 576.789 79.8365 603.399 104.618C603.399 104.618 583.441 74.6807 542.528 90.1481C499.452 106.613 502.113 157.34 519.743 175.135Z" fill="white"/>
<path d="M620.53 134.39C620.53 134.057 620.53 133.558 620.364 133.226C616.372 104.786 591.924 84.1624 563.983 83.9961C563.817 83.9961 563.65 83.9961 563.65 83.9961C560.989 83.9961 558.162 84.1624 555.334 84.495C523.901 88.9856 502.113 118.257 506.604 149.524C511.094 180.626 539.701 202.247 570.635 198.421C570.968 198.588 571.301 198.588 571.467 198.588C571.633 198.588 571.8 198.588 571.966 198.421C572.132 198.421 572.132 198.255 572.132 198.255C602.568 193.598 624.023 165.491 620.53 135.055C620.697 134.889 620.697 134.722 620.53 134.39ZM613.046 163.495C612.713 163.661 588.93 181.956 565.48 177.299C564.149 171.644 563.484 166.156 563.318 161.499C566.478 161.333 569.638 161 572.465 160.501C600.24 156.51 612.88 145.533 617.869 139.546C618.035 148.028 616.372 156.177 613.046 163.495ZM540.366 190.604C539.534 188.276 529.223 157.341 549.014 130.564C556.166 135.554 560.324 140.211 561.654 141.874C560.49 146.531 555.833 169.649 568.64 195.594C558.661 196.426 548.848 194.596 540.366 190.604ZM617.37 134.722C615.541 137.716 603.566 155.179 563.318 158.339C563.318 150.356 564.482 144.701 564.814 142.706C569.471 141.042 591.425 132.394 605.562 107.114C611.549 114.598 615.873 123.579 617.204 133.724C617.37 134.057 617.37 134.39 617.37 134.722ZM603.4 104.619C600.739 109.442 597.911 113.6 594.918 117.259C591.259 103.954 577.621 92.8108 569.97 87.655C582.777 88.9856 594.585 95.1392 603.4 104.619ZM563.484 87.1561C566.81 89.1519 588.764 102.956 592.257 119.754C592.257 119.92 592.423 119.92 592.423 120.087C588.764 124.078 585.105 127.238 581.612 129.899C565.48 102.125 545.355 95.4719 537.04 93.975C542.694 90.815 549.014 88.6529 555.667 87.655C558.328 87.3224 560.823 87.1561 563.484 87.1561ZM532.882 96.6361C533.048 96.6361 533.048 96.8024 533.214 96.8024C533.547 96.8024 559.492 97.9666 578.785 131.895C571.966 136.552 566.311 138.88 563.983 139.712C560.49 135.388 545.023 118.756 516.583 114.099C520.574 107.28 526.229 101.127 532.882 96.6361ZM514.92 117.093C520.242 117.924 525.231 119.089 529.555 120.752C516.417 131.729 514.088 153.35 513.756 163.661C511.76 159.171 510.263 154.348 509.598 149.192C508.101 137.716 510.097 126.739 514.92 117.093ZM517.082 169.649C517.082 169.482 517.082 169.316 517.082 169.316C517.082 168.983 515.585 134.889 533.214 122.082C538.204 124.078 542.694 126.407 546.353 128.901C528.89 152.518 533.88 179.295 536.374 188.609C528.558 183.952 521.905 177.466 517.082 169.649ZM571.966 195.095C569.471 190.272 567.642 185.449 566.311 180.792C571.301 181.623 576.124 181.457 580.781 180.792C593.088 178.962 603.899 173.308 609.886 169.482C601.903 182.788 588.431 192.434 571.966 195.095Z" fill="#2D54C8"/>
<path d="M472.2 125.52L470.951 127.752H473.509H492.884H493.77L494.198 126.976L527.155 67.1984L527.341 66.8602V66.4741V54.1758V52.6758H525.841H479.302C476.588 52.6758 474.413 53.2608 473.026 54.9881C471.715 56.6213 471.41 58.9348 471.41 61.5346V75.4459V76.9459H472.91H488.889H490.389V75.4459V71.5145C490.389 71.0871 490.506 70.9557 490.529 70.9321C490.551 70.9104 490.673 70.7967 491.087 70.7967H501.773C502.264 70.7967 502.711 70.7912 503.115 70.7815C502.367 71.8285 501.465 73.2184 500.463 75.0175C500.463 75.0177 500.462 75.0179 500.462 75.0181L472.2 125.52Z" fill="white" stroke="#2D54C8" stroke-width="3"/>
<path d="M521.224 122.873L520.886 114.089L476.289 82.3301L521.224 122.873Z" fill="white"/>
<path d="M513.454 138.64L508.548 138.255L483.047 111.611L513.454 138.64Z" fill="white"/>
</g>
<path d="M239.198 11.6313C247.257 6.78956 257.186 6.78956 265.245 11.6313L315.328 41.7215C323.387 46.5633 328.352 55.5113 328.352 65.1948V125.375C328.352 135.059 323.387 144.007 315.328 148.848L265.245 178.939C257.186 183.78 247.257 183.78 239.198 178.939L189.115 148.848C181.056 144.007 176.092 135.059 176.092 125.375V65.1948C176.092 55.5113 181.056 46.5633 189.115 41.7215L239.198 11.6313Z" fill="white"/>
<path d="M264.582 170.305C256.976 174.874 247.469 174.874 239.862 170.305L195.251 143.502C188.029 139.163 183.611 131.355 183.611 122.93L183.611 67.6448C183.611 59.2196 188.029 51.4113 195.251 47.0723L239.862 20.27C247.469 15.7 256.976 15.7 264.582 20.27L309.193 47.0723C316.415 51.4113 320.833 59.2196 320.833 67.6448L320.833 122.93C320.833 131.355 316.415 139.163 309.193 143.502L264.582 170.305Z" fill="url(#paint24_linear)"/>
<mask id="mask5" mask-type="alpha" maskUnits="userSpaceOnUse" x="183" y="17" width="138" height="157">
<path d="M239.199 20.6743C247.258 15.8325 257.187 15.8325 265.245 20.6743L307.81 46.247C315.869 51.0888 320.833 60.0368 320.833 69.7203V120.866C320.833 130.549 315.869 139.497 307.81 144.339L265.245 169.912C257.187 174.754 247.258 174.754 239.199 169.912L196.635 144.339C188.576 139.497 183.611 130.549 183.611 120.866V69.7203C183.611 60.0368 188.576 51.0888 196.635 46.247L239.199 20.6743Z" fill="url(#paint25_linear)"/>
</mask>
<g mask="url(#mask5)">
<path opacity="0.05" fill-rule="evenodd" clip-rule="evenodd" d="M524.928 -156.88L252.237 128.859L445.924 -156.88H379.124L252.241 128.853L326.834 -156.88H275.306L252.242 128.848L229.177 -156.88H177.651L252.241 128.842L125.363 -156.88H58.5665L252.238 128.837L-20.4313 -156.88H-22.3496V-69.7719L252.233 128.833L-22.3496 -5.61504V53.3282L252.228 128.83L-22.3496 102.835V154.824L252.222 128.83L-22.3496 204.331V263.272L252.216 128.833L-22.3496 327.425V414.576H-20.4788L252.212 128.837L58.5249 414.576H125.325L252.209 128.841L177.615 414.576H229.143L252.207 128.848L275.272 414.576H326.799L252.209 128.853L379.086 414.576H445.883L252.211 128.859L524.88 414.576H526.799V327.467L252.216 128.863L526.799 263.311V204.367L252.222 128.865L526.799 154.861V102.87L252.227 128.865L526.799 53.3649V-5.57648L252.233 128.863L526.799 -69.7286V-156.88H524.928Z" fill="white"/>
<path d="M277.401 133.692L277.835 134.709L279.029 134.935L278.161 135.725L278.378 136.968L277.401 136.403L276.316 136.968L276.533 135.725L275.773 134.935L276.859 134.709L277.401 133.692Z" fill="#BABCBE"/>
<path d="M266.443 134.224L253.307 117.582L264.273 93.0948L293.972 92.857L303.225 89.0532L302.996 72.1737L305.51 71.6982L310.307 93.2137L292.716 104.15L291.231 133.867H270.327L266.9 107.003L260.96 117.344L269.527 134.699L268.385 136.482L266.443 134.224Z" fill="#FFE1CF"/>
<path d="M281.865 146.343L276.496 227.768H272.041C272.041 227.768 264.616 161.796 265.416 147.531C265.873 138.497 270.442 133.861 270.442 133.861H291.46C291.46 133.861 297.857 138.735 299.685 147.531C302.655 161.915 313.506 227.768 313.506 227.768H309.051L281.865 146.343Z" fill="#FFC0B6"/>
<path d="M266.327 134.106C261.872 132.561 264.27 135.77 264.27 135.77C264.27 135.77 261.186 140.05 261.986 141.001C263.128 142.308 268.383 136.602 268.383 136.602L266.327 134.106Z" fill="#FFC0B6"/>
<path d="M285.749 157.991L301.17 156.089C300.484 152.523 299.913 149.551 299.57 147.53C297.743 138.734 291.346 133.86 291.346 133.86H270.213C270.213 133.86 265.759 138.615 265.187 147.53C265.073 150.264 265.187 154.781 265.53 160.368L280.951 158.466L281.865 146.342L285.749 157.991Z" fill="#84D6FB"/>
<path d="M268.385 92.9685C268.385 92.9685 269.528 100.22 266.9 106.995L268.385 118.407L292.031 117.099L292.602 104.142C288.832 102.121 289.175 97.961 289.861 92.8496H287.462C287.462 92.8496 280.037 110.918 271.47 92.9685H268.385Z" fill="#6389DE"/>
<path d="M270.783 79.3048C270.783 79.3048 264.044 64.0895 278.665 63.1386C290.202 62.4253 289.288 77.6407 286.09 78.9482C281.863 80.7313 270.783 79.3048 270.783 79.3048Z" fill="#49557F"/>
<path d="M282.436 93.4499L282.322 86.08L275.811 85.6045L275.925 93.5688C275.925 93.5688 279.123 99.5122 282.436 93.4499Z" fill="#FFC0B6"/>
<path d="M275.925 91.0725L282.322 89.2895V86.08L275.811 85.6045L275.925 91.0725Z" fill="#F9ADA7"/>
<path d="M286.434 73.4801L284.492 86.0803L279.123 89.052L273.754 86.1992L270.67 74.3122C270.67 74.3122 275.353 73.7178 278.552 70.7461C278.552 70.7461 278.438 73.2424 273.526 75.1443C273.526 75.1443 277.866 74.9065 280.494 71.1027C280.494 71.1027 282.093 73.1235 286.434 73.4801Z" fill="#FFE1CF"/>
<path d="M271.927 76.3374C271.927 76.3374 269.757 75.743 269.986 77.7638C270.328 80.379 273.184 81.6865 273.184 81.6865L271.927 76.3374Z" fill="#FFE1CF"/>
<path d="M285.29 76.3374C285.29 76.3374 287.46 75.743 287.232 77.7638C286.889 80.379 284.033 81.6865 284.033 81.6865L285.29 76.3374Z" fill="#FFE1CF"/>
<path d="M273.525 66.3467C272.839 62.0674 268.841 57.4315 263.701 61.5919C261.073 63.7316 262.787 68.7241 262.787 71.6958C262.787 73.1223 262.901 75.2619 261.759 76.4506C260.731 77.5205 259.36 77.4016 258.104 76.8072C258.104 76.8072 260.845 80.9677 264.843 77.4016C268.727 73.9544 264.729 66.2278 272.154 67.4165L273.525 66.3467Z" fill="#49557F"/>
<path d="M305.509 71.6931L303.338 68.0081C303.338 68.0081 297.627 66.8194 297.627 70.1478C297.627 71.9308 299.569 71.9308 300.368 71.6931C300.368 71.6931 300.368 73.2384 302.196 71.812L302.882 72.0497L305.509 71.6931Z" fill="#FFC0B6"/>
<path d="M223.14 85.5928H218.039V95.0794H223.14V85.5928Z" fill="#FFC0B6"/>
<path d="M223.248 87.626L218.039 86.4967V86.0449H223.248V87.626Z" fill="#F9ADA7"/>
<path d="M232.799 66.3948C232.799 66.3948 234.21 64.1361 236.489 63.6843C238.659 63.2326 241.264 64.8137 241.698 67.2983C242.241 70.5734 239.962 71.4769 238.985 74.0744C237.574 77.9143 241.264 80.06 241.481 80.06C241.481 80.06 236.163 79.6083 235.946 75.0909C235.729 70.5734 238.334 67.9759 233.667 67.9759L232.799 66.3948Z" fill="#FF649A"/>
<path d="M233.232 69.3282C233.232 69.3282 234.751 68.3117 234.209 67.0694C233.666 65.8271 231.604 65.6013 231.17 66.3918L233.232 69.3282Z" fill="#D497E8"/>
<path d="M224.658 86.0459L217.17 67.8632C221.837 61.3129 226.937 62.4422 230.41 65.2656C234.534 68.7667 239.201 81.8672 224.658 86.0459Z" fill="#FF649A"/>
<path d="M224.334 86.7236L216.303 85.3683L215.326 80.1733L213.807 78.931L214.783 75.7688L217.28 67.8633L224.985 71.4772L224.659 75.9947L225.636 76.3335C225.636 76.3335 227.481 74.0748 228.349 74.9782C229.218 75.9947 228.241 77.3499 226.83 78.2534C226.721 78.3663 226.07 82.3191 224.334 86.7236Z" fill="#FFE1CF"/>
<path d="M249.295 173.232H253.853V187.914C253.853 187.914 250.489 183.623 249.295 177.75V173.232Z" fill="#E05AB0"/>
<path d="M195.897 67.1846L199.044 67.9751L199.478 87.1742L209.68 90.6752L235.509 90.4494L245.385 86.8354L243.975 67.9751L247.013 67.1846L252.874 90.2235L236.703 101.743L232.145 130.203H211.85L207.835 100.049L192.207 91.4658L195.897 67.1846Z" fill="#FFE1CF"/>
<path d="M249.294 173.23L227.263 172.665C227.263 172.665 238.008 153.805 237.899 145.56C237.791 134.493 232.039 130.201 232.039 130.201H211.853L187.217 140.478L190.256 180.458H194.597L199.48 149.174L219.884 145.448L214.24 184.185L249.186 177.747V173.23H249.294Z" fill="#84D6FB"/>
<path d="M213.047 90.6774C213.047 90.6774 214.675 97.9053 208.271 103.1L209.574 112.926L234.969 112.474L236.272 104.569C236.272 104.569 229.651 99.8252 232.148 90.5645H229.326C229.326 90.5645 221.729 116.088 215.326 90.6774H213.047Z" fill="#6389DE"/>
<path d="M242.783 65.7178L243 62.2168L246.473 62.3297L247.016 67.186L243.977 67.9765C239.853 66.3954 242.783 65.7178 242.783 65.7178Z" fill="#FFC0B6"/>
<path d="M241.807 66.391C241.807 67.0686 241.264 67.6333 240.613 67.6333H238.768C238.117 67.6333 237.574 67.0686 237.574 66.391V62.3253C237.574 61.6477 238.117 61.083 238.768 61.083H240.613C241.264 61.083 241.807 61.6477 241.807 62.3253V66.391Z" fill="#84D6FB"/>
<path d="M251.248 66.391C251.248 67.0686 250.706 67.6333 250.054 67.6333H248.209C247.558 67.6333 247.016 67.0686 247.016 66.391V62.3253C247.016 61.6477 247.558 61.083 248.209 61.083H250.054C250.706 61.083 251.248 61.6477 251.248 62.3253V66.391Z" fill="#84D6FB"/>
<path d="M241.048 65.8253C240.614 65.8253 240.18 65.4865 240.18 64.9218V63.5666C240.18 63.1148 240.505 62.6631 241.048 62.6631H247.668C248.102 62.6631 248.536 63.0019 248.536 63.5666V65.0347C248.536 65.4865 248.211 65.9382 247.668 65.9382H241.048V65.8253Z" fill="#84D6FB"/>
<path d="M242.999 62.2168C242.999 62.2168 242.891 65.6049 244.736 65.4919C246.906 65.379 246.472 62.3297 246.472 62.3297L242.999 62.2168Z" fill="#FFC0B6"/>
<path d="M200.131 65.7178L199.914 62.2168L196.441 62.3297L195.898 67.186L198.937 67.9765C203.17 66.3954 200.131 65.7178 200.131 65.7178Z" fill="#FFC0B6"/>
<path d="M201.22 66.391C201.22 67.0686 201.762 67.6333 202.414 67.6333H204.259C204.91 67.6333 205.452 67.0686 205.452 66.391V62.3253C205.452 61.6477 204.91 61.083 204.259 61.083H202.305C201.654 61.083 201.111 61.6477 201.111 62.3253V66.391H201.22Z" fill="#84D6FB"/>
<path d="M191.777 66.391C191.777 67.0686 192.32 67.6333 192.971 67.6333H194.816C195.467 67.6333 196.01 67.0686 196.01 66.391V62.3253C196.01 61.6477 195.467 61.083 194.816 61.083H192.971C192.32 61.083 191.777 61.6477 191.777 62.3253V66.391Z" fill="#84D6FB"/>
<path d="M201.871 65.8253C202.305 65.8253 202.739 65.4865 202.739 64.9218V63.5666C202.739 63.1148 202.414 62.6631 201.871 62.6631H195.251C194.817 62.6631 194.383 63.0019 194.383 63.5666V65.0347C194.383 65.4865 194.708 65.9382 195.251 65.9382H201.871V65.8253Z" fill="#84D6FB"/>
<path d="M200.024 62.2168C200.024 62.2168 200.132 65.6049 198.288 65.4919C196.117 65.379 196.551 62.3297 196.551 62.3297L200.024 62.2168Z" fill="#FFC0B6"/>
</g>
</g>
<defs>
<filter id="filter0_d" x="0.923828" y="0" width="768.449" height="712.574" filterUnits="userSpaceOnUse" color-interpolation-filters="sRGB">
<feFlood flood-opacity="0" result="BackgroundImageFix"/>
<feColorMatrix in="SourceAlpha" type="matrix" values="0 0 0 0 0 0 0 0 0 0 0 0 0 0 0 0 0 0 127 0"/>
<feOffset dy="32"/>
<feGaussianBlur stdDeviation="20"/>
<feColorMatrix type="matrix" values="0 0 0 0 0.0352941 0 0 0 0 0 0 0 0 0 0.435294 0 0 0 0.05 0"/>
<feBlend mode="normal" in2="BackgroundImageFix" result="effect1_dropShadow"/>
<feBlend mode="normal" in="SourceGraphic" in2="effect1_dropShadow" result="shape"/>
</filter>
<linearGradient id="paint0_linear" x1="740.544" y1="540.649" x2="858.553" y2="258.647" gradientUnits="userSpaceOnUse">
<stop stop-color="#FF61A3"/>
<stop offset="0.514348" stop-color="#9648F2"/>
<stop offset="1" stop-color="#5A52F2"/>
</linearGradient>
<linearGradient id="paint1_linear" x1="342.62" y1="771.649" x2="460.63" y2="489.647" gradientUnits="userSpaceOnUse">
<stop stop-color="#FF61A3"/>
<stop offset="0.514348" stop-color="#9648F2"/>
<stop offset="1" stop-color="#5A52F2"/>
</linearGradient>
<linearGradient id="paint2_linear" x1="543.104" y1="654.661" x2="613.898" y2="513.891" gradientUnits="userSpaceOnUse">
<stop stop-color="#FF61A3"/>
<stop offset="0.514348" stop-color="#9648F2"/>
<stop offset="1" stop-color="#5A52F2"/>
</linearGradient>
<linearGradient id="paint3_linear" x1="588.1" y1="627.801" x2="585.338" y2="474.347" gradientUnits="userSpaceOnUse">
<stop stop-color="#7BD0BC"/>
<stop offset="0.535912" stop-color="#69ACD7"/>
<stop offset="1" stop-color="#284DC6"/>
<stop offset="1" stop-color="#284DC6"/>
</linearGradient>
<linearGradient id="paint4_linear" x1="573.248" y1="622.654" x2="563.524" y2="560.184" gradientUnits="userSpaceOnUse">
<stop stop-color="#6D50FC"/>
<stop offset="1" stop-color="#6099D4"/>
</linearGradient>
<linearGradient id="paint5_linear" x1="518.687" y1="522.439" x2="525.897" y2="542.244" gradientUnits="userSpaceOnUse">
<stop stop-color="#FFA969"/>
<stop offset="1" stop-color="#FF60D2"/>
</linearGradient>
<linearGradient id="paint6_linear" x1="528.348" y1="527.153" x2="533.445" y2="550.804" gradientUnits="userSpaceOnUse">
<stop stop-color="#FFA969"/>
<stop offset="1" stop-color="#FF60D2"/>
</linearGradient>
<linearGradient id="paint7_linear" x1="456.547" y1="397.486" x2="453.77" y2="243.222" gradientUnits="userSpaceOnUse">
<stop stop-color="#7BD0BC"/>
<stop offset="0.535912" stop-color="#69ACD7"/>
<stop offset="1" stop-color="#284DC6"/>
<stop offset="1" stop-color="#284DC6"/>
</linearGradient>
<linearGradient id="paint8_linear" x1="456.547" y1="400.539" x2="411.824" y2="258.22" gradientUnits="userSpaceOnUse">
<stop stop-color="#6D50FC"/>
<stop offset="1" stop-color="#6099D4"/>
</linearGradient>
<linearGradient id="paint9_linear" x1="543.264" y1="486.292" x2="542.193" y2="343.761" gradientUnits="userSpaceOnUse">
<stop stop-color="#7BD0BC"/>
<stop offset="0.535912" stop-color="#69ACD7"/>
<stop offset="1" stop-color="#284DC6"/>
<stop offset="1" stop-color="#284DC6"/>
</linearGradient>
<linearGradient id="paint10_linear" x1="438.792" y1="369.962" x2="416.166" y2="270.636" gradientUnits="userSpaceOnUse">
<stop stop-color="#FF6399"/>
<stop offset="1" stop-color="#A04BEB"/>
</linearGradient>
<linearGradient id="paint11_linear" x1="454.651" y1="399.255" x2="488.319" y2="335.687" gradientUnits="userSpaceOnUse">
<stop stop-color="#FF61A3"/>
<stop offset="0.514348" stop-color="#9648F2"/>
<stop offset="1" stop-color="#5A52F2"/>
</linearGradient>
<linearGradient id="paint12_linear" x1="181.532" y1="361.49" x2="199.068" y2="253.629" gradientUnits="userSpaceOnUse">
<stop stop-color="#FF61A3"/>
<stop offset="0.514348" stop-color="#9648F2"/>
<stop offset="1" stop-color="#5A52F2"/>
</linearGradient>
<linearGradient id="paint13_linear" x1="455.115" y1="63.066" x2="489.441" y2="192.453" gradientUnits="userSpaceOnUse">
<stop stop-color="#FF6399"/>
<stop offset="1" stop-color="#A04BEB"/>
<stop offset="1" stop-color="#A04BEB"/>
</linearGradient>
<linearGradient id="paint14_linear" x1="555.725" y1="205.379" x2="628.92" y2="44.8152" gradientUnits="userSpaceOnUse">
<stop stop-color="#FF61A3"/>
<stop offset="0.514348" stop-color="#9648F2"/>
<stop offset="1" stop-color="#5A52F2"/>
</linearGradient>
<linearGradient id="paint15_linear" x1="603.234" y1="117.092" x2="596.178" y2="89.3046" gradientUnits="userSpaceOnUse">
<stop stop-color="#6D50FC"/>
<stop offset="1" stop-color="#6099D4"/>
</linearGradient>
<linearGradient id="paint16_linear" x1="592.258" y1="129.898" x2="583.224" y2="89.196" gradientUnits="userSpaceOnUse">
<stop stop-color="#6D50FC"/>
<stop offset="1" stop-color="#6099D4"/>
</linearGradient>
<linearGradient id="paint17_linear" x1="617.373" y1="158.339" x2="604.425" y2="110.674" gradientUnits="userSpaceOnUse">
<stop stop-color="#6D50FC"/>
<stop offset="1" stop-color="#6099D4"/>
</linearGradient>
<linearGradient id="paint18_linear" x1="568.808" y1="195.845" x2="540.301" y2="147.386" gradientUnits="userSpaceOnUse">
<stop stop-color="#6D50FC"/>
<stop offset="1" stop-color="#6099D4"/>
</linearGradient>
<linearGradient id="paint19_linear" x1="617.912" y1="178.059" x2="610.434" y2="141.091" gradientUnits="userSpaceOnUse">
<stop stop-color="#6D50FC"/>
<stop offset="1" stop-color="#6099D4"/>
</linearGradient>
<linearGradient id="paint20_linear" x1="578.786" y1="139.545" x2="570.564" y2="98.1382" gradientUnits="userSpaceOnUse">
<stop stop-color="#6D50FC"/>
<stop offset="1" stop-color="#6099D4"/>
</linearGradient>
<linearGradient id="paint21_linear" x1="610.053" y1="195.094" x2="605.859" y2="170.21" gradientUnits="userSpaceOnUse">
<stop stop-color="#6D50FC"/>
<stop offset="1" stop-color="#6099D4"/>
</linearGradient>
<linearGradient id="paint22_linear" x1="546.352" y1="188.272" x2="516.067" y2="141.632" gradientUnits="userSpaceOnUse">
<stop stop-color="#6D50FC"/>
<stop offset="1" stop-color="#6099D4"/>
</linearGradient>
<linearGradient id="paint23_linear" x1="529.723" y1="163.659" x2="508.421" y2="131.041" gradientUnits="userSpaceOnUse">
<stop stop-color="#6D50FC"/>
<stop offset="1" stop-color="#6099D4"/>
</linearGradient>
<linearGradient id="paint24_linear" x1="321.085" y1="129.069" x2="286.426" y2="-8.52508" gradientUnits="userSpaceOnUse">
<stop stop-color="#FF6399"/>
<stop offset="1" stop-color="#A04BEB"/>
<stop offset="1" stop-color="#A04BEB"/>
</linearGradient>
<linearGradient id="paint25_linear" x1="277.366" y1="197.491" x2="350.204" y2="58.3106" gradientUnits="userSpaceOnUse">
<stop stop-color="#FF61A3"/>
<stop offset="0.514348" stop-color="#9648F2"/>
<stop offset="1" stop-color="#5A52F2"/>
</linearGradient>
<clipPath id="clip0">
<rect x="335.455" y="281.632" width="98.5955" height="82.3324" fill="white"/>
</clipPath>
</defs>
</svg>
