<svg width="87" height="97" viewBox="0 0 87 97" fill="none" xmlns="http://www.w3.org/2000/svg">
<path fill-rule="evenodd" clip-rule="evenodd" d="M43.301 0.628906C41.236 0.628906 39.171 1.16291 37.321 2.23091L5.98 20.3259C2.28 22.4619 0 26.4109 0 30.6839V66.8729C0 71.1459 2.28 75.0949 5.98 77.2309L37.321 95.3259C39.171 96.3939 41.236 96.9279 43.301 96.9279C45.366 96.9279 47.431 96.3939 49.281 95.3259L80.622 77.2309C84.322 75.0949 86.602 71.1459 86.602 66.8729V30.6839C86.602 26.4109 84.322 22.4619 80.622 20.3259L49.281 2.23091C47.431 1.16291 45.366 0.628906 43.301 0.628906Z" fill="url(#paint0_linear)"/>
<path d="M34.4298 36.3179C35.3758 37.0169 36.4298 37.5879 37.1258 38.7539C37.7338 39.7729 38.7848 42.9369 37.5458 44.5379C36.1458 46.3489 32.0918 46.9599 32.0918 48.6289C32.0918 49.8849 33.8698 51.3179 34.8188 52.7199C36.2468 54.8279 35.5968 56.8699 34.8188 58.1749C34.4148 58.8509 33.7278 59.3919 33.0138 59.8209" stroke="white" stroke-width="2" stroke-linecap="round" stroke-linejoin="round"/>
<path d="M54.8147 39.3858C51.8707 40.7968 49.4167 42.5458 47.7827 42.1288C45.9307 41.6568 46.0907 40.0368 45.0007 38.3788C44.1827 37.1348 41.6367 36.2838 41.6367 34.9928C41.6367 34.4878 41.6887 34.0758 41.8177 33.6748" stroke="white" stroke-width="2" stroke-linecap="round" stroke-linejoin="round"/>
<path fill-rule="evenodd" clip-rule="evenodd" d="M52.5653 49.861C52.6223 54.066 46.7653 59.984 44.3643 58.174C42.3133 56.629 44.1253 55.691 43.0203 49.861C42.5993 47.641 45.1573 45.77 47.7933 45.77C50.4293 45.77 52.5343 47.602 52.5653 49.861Z" stroke="white" stroke-width="2" stroke-linecap="round" stroke-linejoin="round"/>
<path fill-rule="evenodd" clip-rule="evenodd" d="M43 63.6289C51.2843 63.6289 58 56.9132 58 48.6289C58 40.3446 51.2843 33.6289 43 33.6289C34.7157 33.6289 28 40.3446 28 48.6289C28 56.9132 34.7157 63.6289 43 63.6289Z" stroke="white" stroke-width="2" stroke-linecap="round" stroke-linejoin="round"/>
<defs>
<linearGradient id="paint0_linear" x1="-6.5" y1="103.629" x2="72.5" y2="9.62891" gradientUnits="userSpaceOnUse">
<stop stop-color="#FF61A3"/>
<stop offset="0.514348" stop-color="#9648F2"/>
<stop offset="1" stop-color="#5A52F2"/>
</linearGradient>
</defs>
</svg>
