<svg width="87" height="97" viewBox="0 0 87 97" fill="none" xmlns="http://www.w3.org/2000/svg">
<path fill-rule="evenodd" clip-rule="evenodd" d="M43.301 0.628906C41.236 0.628906 39.171 1.16291 37.321 2.23091L5.98 20.3259C2.28 22.4619 0 26.4109 0 30.6839V66.8729C0 71.1459 2.28 75.0949 5.98 77.2309L37.321 95.3259C39.171 96.3939 41.236 96.9279 43.301 96.9279C45.366 96.9279 47.431 96.3939 49.281 95.3259L80.622 77.2309C84.322 75.0949 86.602 71.1459 86.602 66.8729V30.6839C86.602 26.4109 84.322 22.4619 80.622 20.3259L49.281 2.23091C47.431 1.16291 45.366 0.628906 43.301 0.628906Z" fill="url(#paint0_linear)"/>
<path d="M55.0996 33.1289C55.0996 33.1289 55.4996 38.9289 49.0996 39.9289C49.0996 39.9289 49.2996 33.6289 55.0996 33.1289Z" stroke="white" stroke-width="2" stroke-linecap="round" stroke-linejoin="round"/>
<path d="M35.9992 57.829H29.6992V43.829C29.6992 43.829 30.0992 35.829 37.6992 35.829C42.4992 35.729 44.2992 38.929 44.2992 38.929" stroke="white" stroke-width="2" stroke-linecap="round" stroke-linejoin="round"/>
<path d="M57.4991 50.1289C57.4991 47.9289 58.6991 45.9289 60.4991 44.9289C58.7991 42.6289 55.9991 41.4289 53.0991 42.1289C52.0991 42.4289 51.2991 43.0289 50.2991 43.1289C48.6991 43.3289 47.6991 42.5289 46.2991 42.1289C42.7991 41.2289 39.4991 43.2289 38.0991 46.4289C37.0991 48.7289 37.0991 51.3289 37.7991 53.6289C38.4991 56.0289 39.3991 58.3289 40.8991 60.3289C41.5991 61.2289 42.6991 62.4289 43.6991 63.0289C45.1991 63.9289 46.1991 63.8289 47.5991 63.0289C47.8991 62.8289 48.9991 62.2289 49.7991 62.2289C50.5991 62.2289 51.6991 62.8289 51.9991 63.0289C53.3991 63.8289 54.3991 63.9289 55.8991 63.0289C56.8991 62.4289 57.9991 61.3289 58.6991 60.3289C59.6991 58.9289 60.4991 57.2289 61.0991 55.5289C58.8991 54.7289 57.4991 52.6289 57.4991 50.1289Z" stroke="white" stroke-width="2" stroke-linecap="round" stroke-linejoin="round"/>
<path d="M43.5004 33.5288L41.4004 36.5288" stroke="white" stroke-width="2" stroke-linecap="round" stroke-linejoin="round"/>
<path d="M31.5 33.3291L34.1 36.5291" stroke="white" stroke-width="2" stroke-linecap="round" stroke-linejoin="round"/>
<path d="M29.6992 43.8291H36.0992" stroke="white" stroke-width="2" stroke-linecap="round" stroke-linejoin="round"/>
<path d="M33.1992 57.8291V63.3291" stroke="white" stroke-width="2" stroke-linecap="round" stroke-linejoin="round"/>
<path d="M25.5 45.229V52.029" stroke="white" stroke-width="2" stroke-linecap="round" stroke-linejoin="round"/>
<defs>
<linearGradient id="paint0_linear" x1="-6.5" y1="103.629" x2="72.5" y2="9.62891" gradientUnits="userSpaceOnUse">
<stop stop-color="#FF61A3"/>
<stop offset="0.514348" stop-color="#9648F2"/>
<stop offset="1" stop-color="#5A52F2"/>
</linearGradient>
</defs>
</svg>
