<svg width="87" height="97" viewBox="0 0 87 97" fill="none" xmlns="http://www.w3.org/2000/svg">
<path fill-rule="evenodd" clip-rule="evenodd" d="M43.301 0.628906C41.236 0.628906 39.171 1.16291 37.321 2.23091L5.98 20.3259C2.28 22.4619 0 26.4109 0 30.6839V66.8729C0 71.1459 2.28 75.0949 5.98 77.2309L37.321 95.3259C39.171 96.3939 41.236 96.9279 43.301 96.9279C45.366 96.9279 47.431 96.3939 49.281 95.3259L80.622 77.2309C84.322 75.0949 86.602 71.1459 86.602 66.8729V30.6839C86.602 26.4109 84.322 22.4619 80.622 20.3259L49.281 2.23091C47.431 1.16291 45.366 0.628906 43.301 0.628906Z" fill="url(#paint0_linear)"/>
<path d="M46 33.6289V33.6289C50.4128 33.6421 53.9868 37.2161 54 41.6289V41.6289" stroke="white" stroke-width="2" stroke-linecap="round" stroke-linejoin="round"/>
<path d="M32 55.6289V55.6289C32.0132 60.0417 35.5872 63.6157 40 63.6289V63.6289" stroke="white" stroke-width="2" stroke-linecap="round" stroke-linejoin="round"/>
<path fill-rule="evenodd" clip-rule="evenodd" d="M39 51.6289H30C28.8968 51.6256 28.0033 50.7321 28 49.6289V35.6289C28.0033 34.5257 28.8968 33.6322 30 33.6289H39C40.1032 33.6322 40.9967 34.5257 41 35.6289V49.6289C40.9967 50.7321 40.1032 51.6256 39 51.6289Z" stroke="white" stroke-width="2" stroke-linecap="round" stroke-linejoin="round"/>
<path fill-rule="evenodd" clip-rule="evenodd" d="M56 63.6289H47C45.8968 63.6256 45.0033 62.7321 45 61.6289V47.6289C45.0033 46.5257 45.8968 45.6322 47 45.6289H56C57.1032 45.6322 57.9967 46.5257 58 47.6289V61.6289C57.9967 62.7321 57.1032 63.6256 56 63.6289V63.6289Z" stroke="white" stroke-width="2" stroke-linecap="round" stroke-linejoin="round"/>
<path d="M28 46.6289H41" stroke="white" stroke-width="2" stroke-linecap="round" stroke-linejoin="round"/>
<path d="M45 58.6289H58" stroke="white" stroke-width="2" stroke-linecap="round" stroke-linejoin="round"/>
<defs>
<linearGradient id="paint0_linear" x1="-6.5" y1="103.629" x2="72.5" y2="9.62891" gradientUnits="userSpaceOnUse">
<stop stop-color="#FF61A3"/>
<stop offset="0.514348" stop-color="#9648F2"/>
<stop offset="1" stop-color="#5A52F2"/>
</linearGradient>
</defs>
</svg>
