<svg width="87" height="97" viewBox="0 0 87 97" fill="none" xmlns="http://www.w3.org/2000/svg">
<path fill-rule="evenodd" clip-rule="evenodd" d="M43.301 0.628906C41.236 0.628906 39.171 1.16291 37.321 2.23091L5.98 20.3259C2.28 22.4619 0 26.4109 0 30.6839V66.8729C0 71.1459 2.28 75.0949 5.98 77.2309L37.321 95.3259C39.171 96.3939 41.236 96.9279 43.301 96.9279C45.366 96.9279 47.431 96.3939 49.281 95.3259L80.622 77.2309C84.322 75.0949 86.602 71.1459 86.602 66.8729V30.6839C86.602 26.4109 84.322 22.4619 80.622 20.3259L49.281 2.23091C47.431 1.16291 45.366 0.628906 43.301 0.628906Z" fill="url(#paint0_linear)"/>
<path d="M38 44.6289H29" stroke="white" stroke-width="2" stroke-linecap="round" stroke-linejoin="round"/>
<path d="M38 52.6289H29" stroke="white" stroke-width="2" stroke-linecap="round" stroke-linejoin="round"/>
<path d="M48 60.6289H29" stroke="white" stroke-width="2" stroke-linecap="round" stroke-linejoin="round"/>
<path d="M48 36.6289H29" stroke="white" stroke-width="2" stroke-linecap="round" stroke-linejoin="round"/>
<path fill-rule="evenodd" clip-rule="evenodd" d="M48 54.6289C51.3137 54.6289 54 51.9426 54 48.6289C54 45.3152 51.3137 42.6289 48 42.6289C44.6863 42.6289 42 45.3152 42 48.6289C42 51.9426 44.6863 54.6289 48 54.6289Z" stroke="white" stroke-width="2" stroke-linecap="round" stroke-linejoin="round"/>
<path d="M56.9992 57.6291L52.2422 52.8721" stroke="white" stroke-width="2" stroke-linecap="round" stroke-linejoin="round"/>
<defs>
<linearGradient id="paint0_linear" x1="-6.5" y1="103.629" x2="72.5" y2="9.62891" gradientUnits="userSpaceOnUse">
<stop stop-color="#FF61A3"/>
<stop offset="0.514348" stop-color="#9648F2"/>
<stop offset="1" stop-color="#5A52F2"/>
</linearGradient>
</defs>
</svg>
