<svg width="102" height="25" viewBox="0 0 102 25" fill="none" xmlns="http://www.w3.org/2000/svg">
<path fill-rule="evenodd" clip-rule="evenodd" d="M20.8945 0.802246H26.1752V23.578H20.8945V0.802246Z" fill="#F15D22"/>
<path fill-rule="evenodd" clip-rule="evenodd" d="M46.918 0.802246H52.1987V23.578H46.918V0.802246Z" fill="#F15D22"/>
<path fill-rule="evenodd" clip-rule="evenodd" d="M97.464 0.802246H91.6632V15.9928L83.5221 0.802246H77.9014V23.578H83.0421V9.70567L90.443 23.578H96.8039V4.08779C96.8039 1.7149 97.464 0.802246 97.464 0.802246Z" fill="#F15D22"/>
<path fill-rule="evenodd" clip-rule="evenodd" d="M65.0796 0.457031C58.6787 0.457031 53.498 5.70985 53.498 12.1998C53.498 18.6898 58.6787 23.9426 65.0796 23.9426C71.4804 23.9426 76.6611 18.6898 76.6611 12.1998C76.6611 5.70985 71.4804 0.457031 65.0796 0.457031ZM65.0796 19.0751C61.3391 19.0751 58.2987 15.9924 58.2987 12.1998C58.2987 8.40724 61.3391 5.32451 65.0796 5.32451C68.8201 5.32451 71.8605 8.40724 71.8605 12.1998C71.8605 16.0127 68.8201 19.0751 65.0796 19.0751Z" fill="#F15D22"/>
<path fill-rule="evenodd" clip-rule="evenodd" d="M11.6528 18.8522C7.91234 18.8522 4.87193 15.7695 4.87193 11.9769C4.87193 8.18436 7.91234 5.10162 11.6528 5.10162C11.7128 5.10162 11.7528 5.10162 11.8129 5.10162C15.2333 5.30444 16.3135 7.94098 16.3135 7.94098L19.2338 3.07351C17.1936 1.28877 14.5532 0.213867 11.6528 0.213867C5.25198 0.213867 0.0712891 5.46669 0.0712891 11.9567C0.0712891 18.4466 5.25198 23.6994 11.6528 23.6994C14.5532 23.6994 17.1936 22.6245 19.2338 20.8398L16.4735 16.7836C15.2533 18.0816 13.5331 18.8522 11.6528 18.8522Z" fill="#F15D22"/>
<path fill-rule="evenodd" clip-rule="evenodd" d="M39.8368 10.6587C39.1167 10.3545 37.4564 9.76637 36.4763 9.38103C35.4762 8.97541 34.256 8.20473 34.256 6.82561C34.256 5.44649 35.4962 4.77721 37.1764 4.77721C37.9965 4.77721 38.9166 5.02059 39.7768 5.40593C41.357 6.23746 41.917 7.61657 41.917 7.61657L44.4374 3.39809H44.4174L44.4374 3.37781C42.5771 1.51195 39.9168 0.396484 37.3164 0.396484C34.7161 0.396484 32.6558 1.12661 31.3956 2.20151C30.0955 3.29669 29.0553 5.18284 29.0553 7.35292C29.0553 9.50272 29.8354 10.821 30.8156 11.7336C31.7957 12.6869 32.9358 13.1128 33.4759 13.3764C34.216 13.7009 35.9162 14.3094 36.8964 14.6541C37.8765 15.0192 39.5367 15.6073 39.5367 17.169C39.5367 18.6901 38.1765 19.3796 36.4763 19.3796C34.7561 19.3796 32.2958 18.3453 30.6755 16.6417L28.0752 20.5357C29.8954 22.2596 32.7958 23.7198 36.0563 23.9632C38.4766 24.1457 40.9169 23.8415 42.6171 22.1784C44.0973 20.7182 44.7774 18.8118 44.7774 16.6417C44.7774 12.484 40.5969 11.0238 39.8368 10.6587Z" fill="#F15D22"/>
<path fill-rule="evenodd" clip-rule="evenodd" d="M100.845 2.10015C100.905 2.05959 100.945 1.99875 100.965 1.9379C100.985 1.87706 101.005 1.79593 101.005 1.69453C101.005 1.53228 100.965 1.41059 100.865 1.32947C100.765 1.24834 100.585 1.1875 100.345 1.1875H99.5244V3.07365H99.7644V2.20156H100.164L100.685 3.05337H100.985L100.425 2.18128C100.505 2.18128 100.565 2.161 100.645 2.14071C100.725 2.18128 100.785 2.14071 100.845 2.10015ZM99.7844 1.39031H100.305C100.365 1.39031 100.425 1.39031 100.465 1.41059C100.525 1.41059 100.565 1.43087 100.605 1.45115C100.645 1.47144 100.685 1.512 100.705 1.55256C100.725 1.59312 100.745 1.65397 100.745 1.71481C100.745 1.81622 100.725 1.87706 100.685 1.91762C100.645 1.95818 100.585 1.99875 100.525 2.01903C100.465 2.03931 100.385 2.03931 100.325 2.03931H99.7844V1.39031Z" fill="#F15D22"/>
<path fill-rule="evenodd" clip-rule="evenodd" d="M101.685 1.49137C101.605 1.28856 101.485 1.10603 101.325 0.96406C101.165 0.822092 101.005 0.700405 100.805 0.598999C100.605 0.517875 100.385 0.457031 100.165 0.457031C99.9251 0.457031 99.725 0.497594 99.525 0.598999C99.325 0.680124 99.145 0.801811 99.0049 0.96406C98.8649 1.10603 98.7249 1.28856 98.6449 1.49137C98.5649 1.69418 98.5049 1.91727 98.5049 2.14037C98.5049 2.36346 98.5449 2.58655 98.6449 2.78936C98.7249 2.99217 98.8449 3.17471 99.0049 3.31667C99.145 3.47892 99.325 3.60061 99.525 3.68173C99.725 3.76286 99.9451 3.8237 100.165 3.8237C100.385 3.8237 100.605 3.78314 100.805 3.68173C101.005 3.60061 101.185 3.47892 101.325 3.31667C101.465 3.17471 101.585 2.99217 101.685 2.78936C101.765 2.58655 101.805 2.36346 101.805 2.14037C101.805 1.91727 101.765 1.69418 101.685 1.49137ZM100.145 3.60061C99.9451 3.60061 99.7651 3.56005 99.585 3.47892C99.405 3.3978 99.265 3.29639 99.145 3.17471C99.025 3.05302 98.9249 2.89077 98.8649 2.70824C98.8049 2.52571 98.7649 2.34318 98.7649 2.14037C98.7649 1.93756 98.8049 1.75502 98.8649 1.57249C98.9249 1.38996 99.025 1.248 99.145 1.10603C99.265 0.984341 99.405 0.882935 99.585 0.801811C99.745 0.720686 99.9451 0.680124 100.145 0.680124C100.345 0.680124 100.525 0.720686 100.705 0.801811C100.865 0.882935 101.025 0.984341 101.145 1.10603C101.265 1.22771 101.365 1.38996 101.425 1.57249C101.485 1.75502 101.525 1.93756 101.525 2.14037C101.525 2.34318 101.485 2.54599 101.425 2.70824C101.365 2.89077 101.265 3.03274 101.145 3.17471C101.025 3.29639 100.885 3.3978 100.705 3.47892C100.545 3.56005 100.345 3.60061 100.145 3.60061Z" fill="#F15D22"/>
</svg>
