<svg width="202" height="168" viewBox="0 0 202 168" fill="none" xmlns="http://www.w3.org/2000/svg">
<path fill-rule="evenodd" clip-rule="evenodd" d="M77.9941 66.5154C62.5307 66.5154 49.9941 79.0519 49.9941 94.5154C49.9941 109.98 62.5307 122.515 77.9941 122.515C93.4576 122.515 105.994 109.98 105.994 94.5154C105.994 79.0519 93.4576 66.5154 77.9941 66.5154ZM45.9941 94.5154C45.9941 76.8428 60.3216 62.5154 77.9941 62.5154C95.6667 62.5154 109.994 76.8428 109.994 94.5154C109.994 112.189 95.6667 126.515 77.9941 126.515C60.3216 126.515 45.9941 112.189 45.9941 94.5154Z" fill="black"/>
<path fill-rule="evenodd" clip-rule="evenodd" d="M100.6 0.0280762L102.067 2.47182L101.209 2.98632L100.6 1.97173L99.9915 2.98633L99.134 2.47184L100.6 0.0280762ZM105.359 9.90298L103.284 6.44465L104.142 5.93015L106.217 9.38849L105.359 9.90298ZM97.9165 6.44466L95.8415 9.90299L94.984 9.3885L97.059 5.93017L97.9165 6.44466ZM109.509 16.8196L107.434 13.3613L108.292 12.8468L110.367 16.3052L109.509 16.8196ZM93.7665 13.3613L91.6915 16.8197L90.834 16.3052L92.909 12.8468L93.7665 13.3613ZM113.659 23.7363L111.584 20.278L112.442 19.7635L114.517 23.2218L113.659 23.7363ZM89.6165 20.278L87.5415 23.7363L86.684 23.2218L88.759 19.7635L89.6165 20.278ZM117.809 30.653L115.734 27.1946L116.592 26.6802L118.667 30.1385L117.809 30.653ZM85.4665 27.1947L83.3915 30.653L82.534 30.1385L84.609 26.6802L85.4665 27.1947ZM121.959 37.5696L119.884 34.1113L120.742 33.5968L122.817 37.0552L121.959 37.5696ZM81.3165 34.1113L79.2415 37.5697L78.384 37.0552L80.459 33.5968L81.3165 34.1113ZM126.109 44.4863L124.034 41.028L124.892 40.5135L126.967 43.9718L126.109 44.4863ZM77.1665 41.028L75.0915 44.4863L74.234 43.9718L76.309 40.5135L77.1665 41.028ZM130.259 51.403L128.184 47.9446L129.042 47.4301L131.117 50.8885L130.259 51.403ZM73.0165 47.9446L70.9415 51.403L70.084 50.8885L72.159 47.4302L73.0165 47.9446ZM134.409 58.3196L132.334 54.8613L133.192 54.3468L135.267 57.8051L134.409 58.3196ZM68.8665 54.8613L66.7915 58.3196L65.934 57.8052L68.009 54.3468L68.8665 54.8613ZM138.559 65.2363L136.484 61.778L137.342 61.2635L139.417 64.7218L138.559 65.2363ZM64.7165 61.778L62.6415 65.2363L61.784 64.7218L63.859 61.2635L64.7165 61.778ZM142.709 72.153L140.634 68.6946L141.492 68.1801L143.567 71.6385L142.709 72.153ZM60.5665 68.6946L58.4915 72.153L57.634 71.6385L59.709 68.1802L60.5665 68.6946ZM146.859 79.0696L144.784 75.6113L145.642 75.0968L147.717 78.5551L146.859 79.0696ZM56.4165 75.6113L54.3415 79.0696L53.484 78.5552L55.559 75.0968L56.4165 75.6113ZM148.934 82.528L149.792 82.0135L151.867 85.4718L151.009 85.9863L148.934 82.528ZM52.2665 82.528L50.1915 85.9863L49.334 85.4718L51.409 82.0135L52.2665 82.528ZM155.159 92.903L153.084 89.4446L153.942 88.9302L156.017 92.3885L155.159 92.903ZM48.1165 89.4447L46.0415 92.903L45.184 92.3885L47.259 88.9302L48.1165 89.4447ZM159.309 99.8196L157.234 96.3613L158.092 95.8468L160.167 99.3052L159.309 99.8196ZM43.9665 96.3613L41.8915 99.8197L41.034 99.3052L43.109 95.8468L43.9665 96.3613ZM163.459 106.736L161.384 103.278L162.242 102.763L164.317 106.222L163.459 106.736ZM39.8165 103.278L37.7415 106.736L36.884 106.222L38.959 102.763L39.8165 103.278ZM167.609 113.653L165.534 110.195L166.392 109.68L168.467 113.138L167.609 113.653ZM35.6665 110.195L33.5915 113.653L32.734 113.138L34.809 109.68L35.6665 110.195ZM171.759 120.57L169.684 117.111L170.542 116.597L172.617 120.055L171.759 120.57ZM31.5165 117.111L29.4415 120.57L28.584 120.055L30.659 116.597L31.5165 117.111ZM175.909 127.486L173.834 124.028L174.692 123.513L176.767 126.972L175.909 127.486ZM27.3665 124.028L25.2915 127.486L24.434 126.972L26.509 123.513L27.3665 124.028ZM23.2165 130.945L21.1415 134.403L20.284 133.888L22.359 130.43L23.2165 130.945ZM180.059 134.403L177.984 130.945L178.842 130.43L180.917 133.888L180.059 134.403ZM184.209 141.32L182.134 137.861L182.992 137.347L185.067 140.805L184.209 141.32ZM19.0665 137.861L16.9915 141.32L16.134 140.805L18.209 137.347L19.0665 137.861ZM14.9165 144.778L12.8415 148.236L11.984 147.722L14.059 144.263L14.9165 144.778ZM188.359 148.236L186.284 144.778L187.142 144.263L189.217 147.722L188.359 148.236ZM192.509 155.153L190.434 151.695L191.292 151.18L193.367 154.638L192.509 155.153ZM10.7665 151.695L8.69153 155.153L7.83404 154.638L9.90904 151.18L10.7665 151.695ZM196.659 162.07L194.584 158.611L195.442 158.097L197.517 161.555L196.659 162.07ZM6.61653 158.611L4.54153 162.07L3.68404 161.555L5.75904 158.097L6.61653 158.611ZM199.317 166.5L198.734 165.528L199.592 165.013L201.083 167.5H198.208V166.5H199.317ZM1.88338 166.5L2.46653 165.528L1.60904 165.013L0.117188 167.5H2.99236V166.5H1.88338ZM6.97636 166.5H10.9604V167.5H6.97636V166.5ZM14.9443 166.5H18.9283V167.5H14.9443V166.5ZM22.9123 166.5H26.8963V167.5H22.9123V166.5ZM30.8803 166.5H34.8643V167.5H30.8803V166.5ZM38.8483 166.5H42.8323V167.5H38.8483V166.5ZM46.8163 166.5H50.8003V167.5H46.8163V166.5ZM54.7843 166.5H58.7683V167.5H54.7843V166.5ZM62.7523 166.5H66.7363V167.5H62.7523V166.5ZM70.7203 166.5H74.7043V167.5H70.7203V166.5ZM78.6883 166.5H82.6722V167.5H78.6883V166.5ZM86.6563 166.5H90.6403V167.5H86.6563V166.5ZM94.6243 166.5H98.6083V167.5H94.6243V166.5ZM102.592 166.5H106.576V167.5H102.592V166.5ZM110.56 166.5H114.544V167.5H110.56V166.5ZM118.528 166.5H122.512V167.5H118.528V166.5ZM126.496 166.5H130.48V167.5H126.496V166.5ZM134.464 166.5H138.448V167.5H134.464V166.5ZM142.432 166.5H146.416V167.5H142.432V166.5ZM150.4 166.5H154.384V167.5H150.4V166.5ZM158.368 166.5H162.352V167.5H158.368V166.5ZM166.336 166.5H170.32V167.5H166.336V166.5ZM174.304 166.5H178.288V167.5H174.304V166.5ZM182.272 166.5H186.256V167.5H182.272V166.5ZM190.24 166.5H194.224V167.5H190.24V166.5Z" fill="black"/>
<path fill-rule="evenodd" clip-rule="evenodd" d="M122.596 66.5154C107.131 66.5154 94.5957 79.0519 94.5957 94.5154C94.5957 109.98 107.131 122.515 122.596 122.515C138.059 122.515 150.596 109.98 150.596 94.5154C150.596 79.0519 138.059 66.5154 122.596 66.5154ZM90.5957 94.5154C90.5957 76.8429 104.922 62.5154 122.596 62.5154C140.268 62.5154 154.596 76.8428 154.596 94.5154C154.596 112.189 140.268 126.515 122.596 126.515C104.922 126.515 90.5957 112.189 90.5957 94.5154Z" fill="black"/>
<path fill-rule="evenodd" clip-rule="evenodd" d="M100.315 106.887C84.852 106.887 72.3154 119.424 72.3154 134.887C72.3154 150.35 84.852 162.887 100.315 162.887C115.78 162.887 128.315 150.35 128.315 134.887C128.315 119.423 115.78 106.887 100.315 106.887ZM68.3154 134.887C68.3154 117.214 82.6429 102.887 100.315 102.887C117.989 102.887 132.315 117.214 132.315 134.887C132.315 152.559 117.989 166.887 100.315 166.887C82.6429 166.887 68.3154 152.56 68.3154 134.887Z" fill="black"/>
</svg>
